<svg width="176" height="29" viewBox="0 0 176 29" fill="none" xmlns="http://www.w3.org/2000/svg">
<path d="M42.9404 21.8898C42.0862 22.8516 40.4661 22.5895 37.7543 21.0921C36.1872 20.237 34.4735 19.0766 32.661 17.85L31.9647 17.3832C30.8564 16.6384 29.7101 15.869 28.6097 15.1939C28.3221 15.0209 28.0335 14.8489 27.7679 14.6971L27.2075 14.3874C26.596 14.0485 26.0674 13.7873 25.6254 13.602C25.5353 13.5605 25.4462 13.5217 25.3368 13.4758V13.4749C25.1674 13.4008 24.9971 13.3284 24.8268 13.2587L24.7306 13.2014H24.6864C21.7488 12.0171 18.6445 11.4171 15.4492 11.4171C12.8416 11.4171 10.3117 11.8212 7.88587 12.6031C12.2468 8.56155 17.7797 4.80505 19.7413 3.66407C20.5884 3.16991 21.635 2.90871 22.768 2.90871C23.9064 2.90871 25.0068 3.17873 25.8663 3.66936C30.5837 6.35901 42.5406 15.5116 43.3198 20.2793L43.3207 20.2864C43.4328 20.9509 43.3084 21.475 42.9404 21.8898ZM3.89905 22.3857C3.3546 22.3857 2.95927 22.2277 2.66012 21.8915C2.26832 21.4486 2.13155 20.8909 2.24362 20.1832C2.28686 19.9052 2.37422 19.6007 2.5057 19.2725C2.51452 19.2478 2.52864 19.2213 2.53923 19.1975C2.59747 19.0563 2.65924 18.9125 2.73337 18.7633C2.7616 18.706 2.79778 18.6451 2.82778 18.5868C2.89132 18.4651 2.95309 18.3451 3.02545 18.2189L3.09428 18.1059C3.09957 18.0971 3.10663 18.0874 3.11193 18.0786C3.65109 17.1776 4.49734 16.4266 5.56067 15.9051C8.64917 14.3909 11.9759 13.6232 15.4492 13.6232C16.7066 13.6232 17.9482 13.7246 19.1686 13.9285C19.1192 13.9514 19.0689 13.9797 19.0195 14.0035C18.8615 14.0812 18.7018 14.1615 18.5403 14.2453C18.4538 14.2903 18.3674 14.3353 18.2791 14.3821C18.1159 14.4703 17.95 14.5612 17.7841 14.6538C17.702 14.6997 17.6217 14.7439 17.5396 14.7906C17.3226 14.915 17.1037 15.043 16.884 15.1745C16.8372 15.2018 16.7913 15.2292 16.7446 15.2574C16.5152 15.3951 16.284 15.5372 16.0519 15.6819C15.9477 15.7472 15.8427 15.8142 15.7377 15.8804C15.5868 15.9757 15.4359 16.071 15.2842 16.169C15.1668 16.244 15.0486 16.3208 14.9303 16.3966C14.7891 16.4893 14.647 16.5811 14.505 16.6746C14.385 16.7531 14.2658 16.8308 14.1458 16.9102C14.0002 17.0064 13.8537 17.1035 13.7081 17.2005C13.5899 17.2791 13.4708 17.3576 13.3525 17.4361C13.1134 17.5959 12.8742 17.7556 12.636 17.9153C9.33306 20.1134 5.91805 22.3857 3.89905 22.3857ZM45.4959 19.9211C44.4652 13.6373 30.5934 3.82555 26.9587 1.75273C25.771 1.0759 24.2832 0.702637 22.768 0.702637C21.2459 0.702637 19.8146 1.06708 18.6321 1.75714C15.8233 3.39052 6.76342 9.61253 2.41569 15.2133C1.97095 15.786 1.58621 16.3384 1.26941 16.859L1.19 16.9861C0.567883 18.0371 0.199027 18.9707 0.0640155 19.8425C-0.150415 21.1988 0.176084 22.4131 1.00998 23.3564C1.73092 24.1647 2.72984 24.5927 3.89905 24.5927C6.58517 24.5927 10.1175 22.241 13.9155 19.7137C17.0005 17.6506 20.8391 15.0827 22.7989 15.0827C23.1078 15.0827 23.5031 15.163 23.9743 15.3218L24.097 15.3642C24.202 15.4004 24.3079 15.441 24.4155 15.4833L24.7359 15.621C25.1383 15.7895 25.598 16.0181 26.1848 16.3428C26.2528 16.3808 26.3234 16.4196 26.3437 16.4284C26.386 16.4522 26.4284 16.4734 26.4787 16.4981L26.6578 16.6031C26.9252 16.7567 27.1987 16.9199 27.4643 17.0805C28.5188 17.7256 29.6448 18.4827 30.7346 19.2142L31.4238 19.6766C33.2822 20.935 35.0373 22.1236 36.6937 23.0263C38.6994 24.1338 40.2507 24.6491 41.5753 24.6491C42.8124 24.6491 43.8272 24.2141 44.5896 23.3546C45.4068 22.4342 45.7192 21.2474 45.4959 19.9211Z" fill="#64748B"/>
<path d="M59.5127 19.1657C60.8602 19.1657 61.9976 18.7165 62.8968 17.8191C63.7951 16.8908 64.2434 15.7524 64.2434 14.3741C64.2434 12.9975 63.7951 11.86 62.8968 10.9608C61.9976 10.0325 60.8602 9.58336 59.5127 9.58336C58.1652 9.58336 57.0278 10.0325 56.1286 10.9608C55.2303 11.86 54.7811 12.9975 54.7811 14.3741C54.7811 15.7524 55.2303 16.8908 56.1286 17.8191C57.0278 18.7165 58.1652 19.1657 59.5127 19.1657ZM65.2926 8.77506C66.7592 10.3017 67.4775 12.1592 67.4775 14.3741C67.4775 16.5607 66.7592 18.4474 65.2926 19.9749C63.8251 21.5015 62.0876 22.2506 60.0219 22.2506C57.7461 22.2506 56.0086 21.4123 54.7811 19.7048V21.8615H51.547V0.899372H54.7811V9.01419C56.0086 7.33758 57.7461 6.49927 60.0219 6.49927C62.0876 6.49927 63.8251 7.24757 65.2926 8.77506ZM76.2823 19.1062C77.5998 19.1062 78.7081 18.657 79.6064 17.7587C80.5047 16.8604 80.9539 15.7221 80.9539 14.3746C80.9539 13.0271 80.5047 11.8888 79.6064 10.9914C78.7081 10.0922 77.5998 9.64301 76.2823 9.64301C74.9648 9.64301 73.8565 10.0922 72.9582 10.9914C72.0599 11.8888 71.6107 13.0271 71.6107 14.3746C71.6107 15.7221 72.0599 16.8604 72.9582 17.7587C73.8565 18.657 74.9648 19.1062 76.2823 19.1062ZM70.6824 19.9745C69.1549 18.447 68.3766 16.5904 68.3766 14.3746C68.3766 12.1588 69.1549 10.3013 70.6824 8.7747C72.2099 7.2481 74.0956 6.49892 76.2823 6.49892C78.4981 6.49892 80.3547 7.2481 81.8822 8.7747C83.4088 10.3013 84.188 12.1588 84.188 14.3746C84.188 16.5904 83.4088 18.447 81.8822 19.9745C80.3547 21.502 78.4981 22.2503 76.2823 22.2503C74.0956 22.2503 72.2099 21.502 70.6824 19.9745ZM92.9915 19.1062C94.309 19.1062 95.4173 18.657 96.3165 17.7587C97.214 16.8604 97.6631 15.7221 97.6631 14.3746C97.6631 13.0271 97.214 11.8888 96.3165 10.9914C95.4173 10.0922 94.309 9.64301 92.9915 9.64301C91.6741 9.64301 90.5666 10.0922 89.6674 10.9914C88.77 11.8888 88.32 13.0271 88.32 14.3746C88.32 15.7221 88.77 16.8604 89.6674 17.7587C90.5666 18.657 91.6741 19.1062 92.9915 19.1062ZM87.3916 19.9745C85.865 18.447 85.0859 16.5904 85.0859 14.3746C85.0859 12.1588 85.865 10.3013 87.3916 8.7747C88.9191 7.2481 90.8058 6.49892 92.9915 6.49892C95.2082 6.49892 97.064 7.2481 98.5923 8.7747C100.119 10.3013 100.897 12.1588 100.897 14.3746C100.897 16.5904 100.119 18.447 98.5923 19.9745C97.064 21.502 95.2082 22.2503 92.9915 22.2503C90.8058 22.2503 88.9191 21.502 87.3916 19.9745ZM109.761 19.1657C111.109 19.1657 112.247 18.7165 113.145 17.8191C114.044 16.8908 114.493 15.7524 114.493 14.3741C114.493 12.9975 114.044 11.86 113.145 10.9608C112.247 10.0325 111.109 9.58336 109.761 9.58336C108.415 9.58336 107.276 10.0325 106.378 10.9608C105.479 11.86 105.03 12.9975 105.03 14.3741C105.03 15.7524 105.479 16.8908 106.378 17.8191C107.22 18.6604 108.273 19.1078 109.511 19.1604L109.761 19.1657ZM114.493 6.88842H117.727V27.8505H114.493V19.7357C113.265 21.4123 111.529 22.2506 109.253 22.2506C107.186 22.2506 105.449 21.5015 103.982 19.9749C102.515 18.4474 101.796 16.5907 101.796 14.3741C101.796 12.1892 102.515 10.3317 103.982 8.80506C105.449 7.27757 107.186 6.49927 109.253 6.49927C111.529 6.49927 113.265 7.33758 114.493 9.0442V6.88842ZM127.43 19.1657C128.776 19.1657 129.915 18.7165 130.814 17.8191C131.712 16.8908 132.16 15.7524 132.16 14.3741C132.16 12.9975 131.712 11.86 130.814 10.9608C129.915 10.0325 128.776 9.58336 127.43 9.58336C126.082 9.58336 124.944 10.0325 124.045 10.9608C123.147 11.86 122.698 12.9975 122.698 14.3741C122.698 15.7524 123.147 16.8908 124.045 17.8191C124.888 18.6604 125.941 19.1078 127.179 19.1604L127.43 19.1657ZM132.16 6.88842H135.394V21.8615H132.16V19.7048C130.933 21.4123 129.196 22.2506 126.92 22.2506C124.854 22.2506 123.117 21.5015 121.65 19.9749C120.182 18.4474 119.464 16.5607 119.464 14.3741C119.464 12.1592 120.182 10.3017 121.65 8.77506C123.117 7.24757 124.854 6.49927 126.92 6.49927C129.196 6.49927 130.933 7.33758 132.16 9.01419V6.88842ZM145.936 19.1657C147.283 19.1657 148.421 18.7165 149.319 17.8191C150.218 16.8908 150.666 15.7524 150.666 14.3741C150.666 12.9975 150.218 11.86 149.319 10.9608C148.421 10.0325 147.283 9.58336 145.936 9.58336C144.588 9.58336 143.451 10.0325 142.552 10.9608C141.652 11.86 141.204 12.9975 141.204 14.3741C141.204 15.7524 141.652 16.8908 142.552 17.8191C143.451 18.7165 144.588 19.1657 145.936 19.1657ZM151.715 8.77506C153.182 10.3017 153.9 12.1592 153.9 14.3741C153.9 16.5607 153.182 18.4474 151.715 19.9749C150.248 21.5015 148.511 22.2506 146.444 22.2506C144.169 22.2506 142.432 21.4123 141.204 19.7048V21.8615H137.97V0.899372H141.204V9.01419C142.432 7.33758 144.169 6.49927 146.444 6.49927C148.511 6.49927 150.248 7.24757 151.715 8.77506ZM155.638 21.8604H158.872V0H155.638V21.8604ZM172.737 13.1171C172.288 10.6913 170.581 9.43379 168.454 9.43379C166.059 9.43379 164.382 10.8413 163.932 13.1171H172.737ZM163.963 15.752C164.442 18.0278 166.269 19.2861 168.754 19.2861C170.461 19.2861 171.748 18.6569 172.617 17.4295L175.282 18.9861C173.815 21.1728 171.628 22.2511 168.724 22.2511C166.299 22.2511 164.322 21.5019 162.824 20.0344C161.327 18.5378 160.579 16.6512 160.579 14.3745C160.579 12.1287 161.327 10.2721 162.794 8.77461C164.262 7.24801 166.178 6.49883 168.484 6.49883C170.67 6.49883 172.467 7.27801 173.874 8.80462C175.282 10.3321 176 12.2179 176 14.4045C176 14.7345 175.971 15.1837 175.881 15.752H163.963Z" fill="#64748B"/>
</svg>
