<svg width="176" height="30" viewBox="0 0 176 30" fill="none" xmlns="http://www.w3.org/2000/svg">
<g clip-path="url(#clip0_46_751)">
<path d="M169.404 29.1491C171.633 29.1491 173.726 28.2847 175.409 27.3295L173.953 23.5989C172.77 24.2812 171.315 24.8272 169.631 24.8272C165.218 24.8272 164.354 21.688 164.354 17.2295C164.354 12.7711 164.9 9.26795 167.948 9.26795C170.541 9.26795 171.542 12.4981 171.133 17.2295L172.634 15.3188H162.944L162.853 18.5034H175.91C176.547 9.58641 173.817 5.3099 167.766 5.3099C161.715 5.3099 159.168 10.0414 159.168 17.2295C159.168 24.4178 162.216 29.1491 169.404 29.1491ZM150.432 29.1491C152.662 29.1491 154.755 28.2847 156.438 27.3295L154.982 23.5989C153.799 24.2812 152.343 24.8272 150.66 24.8272C146.247 24.8272 145.382 21.688 145.382 17.2295C145.382 12.7711 145.928 9.26795 148.977 9.26795C151.57 9.26795 152.571 12.4981 152.161 17.2295L153.663 15.3188H143.972L143.881 18.5034H156.938C157.575 9.58641 154.845 5.3099 148.795 5.3099C142.744 5.3099 140.196 10.0414 140.196 17.2295C140.196 24.4178 143.244 29.1491 150.432 29.1491ZM130.142 29.1491C134.828 29.1491 138.331 26.7835 138.331 21.324C138.331 17.366 135.92 14.6818 132.189 12.3616C129.869 10.9058 129.095 9.85937 129.095 8.54004C129.095 6.94771 130.46 5.99231 132.144 5.99231C133.554 5.99231 134.782 6.26529 136.011 7.0842L137.557 3.17164C136.011 2.07977 134.373 1.62481 132.189 1.57932C127.549 1.48833 123.864 4.26353 123.864 8.94949C123.864 12.3616 125.729 14.0904 129.323 16.5926C131.734 18.2759 133.144 19.4588 133.144 21.324C133.144 23.4168 131.643 24.5996 129.323 24.5996C127.73 24.5996 126.093 23.8262 124.819 23.1894L123.227 27.4205C124.819 28.3302 127.503 29.1491 130.142 29.1491Z" fill="#64748B"/>
<path d="M97.2489 25.8281L98.2954 24.2811C97.5675 24.5542 96.7031 24.8271 95.6111 24.8271C91.7897 24.8271 90.4703 21.6881 90.4703 17.2295C90.4703 12.771 91.3347 9.2679 94.9743 9.2679C95.7932 9.2679 97.2489 9.13141 98.5228 10.6782L97.2489 8.72195V25.8281ZM95.4748 29.1492C97.7039 29.1492 100.07 28.7851 102.162 27.7843V0L97.2489 0.909898V6.76568L99.6603 6.85666C98.2954 5.85578 96.521 5.30984 94.3827 5.30984C88.332 5.30984 85.2839 10.0413 85.2839 17.2295C85.2839 24.4177 88.2865 29.1492 95.4748 29.1492ZM114.81 29.1492C117.039 29.1492 119.132 28.2848 120.815 27.3294L119.36 23.5988C118.177 24.2811 116.721 24.8271 115.037 24.8271C110.625 24.8271 109.76 21.6881 109.76 17.2295C109.76 12.771 110.306 9.2679 113.354 9.2679C115.947 9.2679 116.948 12.498 116.539 17.2295L118.04 15.3187H108.35L108.259 18.5033H121.316C121.953 9.58636 119.223 5.30984 113.172 5.30984C107.121 5.30984 104.574 10.0413 104.574 17.2295C104.574 24.4177 107.622 29.1492 114.81 29.1492ZM74.0922 24.8271C71.0439 24.8271 70.1795 21.6881 70.1795 17.2295C70.1795 12.771 71.0439 9.2679 74.0922 9.2679C77.1402 9.2679 78.0046 12.771 78.0046 17.2295C78.0046 21.6881 77.1402 24.8271 74.0922 24.8271ZM74.0922 29.1492C80.1429 29.1492 83.1912 24.4177 83.1912 17.2295C83.1912 10.0413 80.1429 5.30984 74.0922 5.30984C68.0412 5.30984 64.9932 10.0413 64.9932 17.2295C64.9932 24.4177 68.0412 29.1492 74.0922 29.1492ZM57.8959 29.1492C60.0271 29.1511 62.1132 28.5349 63.9012 27.3749L62.3544 23.2348C61.1715 23.9627 59.8522 24.5087 58.3964 24.5087C54.3019 24.5087 52.391 20.5052 52.391 15.1822C52.391 9.44986 54.7113 6.26524 58.5783 6.26524C59.8066 6.26524 61.0805 6.76568 62.0815 7.31161L63.7193 3.26257C62.1725 2.21618 60.4437 1.57926 57.8959 1.57926C51.2536 1.57926 46.8407 6.90215 46.8407 15.4097C46.8407 25.1 52.1636 29.1492 57.8959 29.1492Z" fill="#64748B"/>
<path d="M15.8063 5.34375L17.6892 10.15C14.8153 11.2897 11.0495 13.9158 7.38288 17.1861C11.0495 20.4563 14.8153 23.0329 17.6892 24.2716L15.8559 28.9789C11.2478 26.997 5.59911 22.6364 0 17.1365L0.335938 16.808C5.82267 11.465 11.2904 7.28609 15.8063 5.34375ZM25.4188 5.34375C30.027 7.32573 35.626 11.6365 41.2253 17.1365L40.8893 17.4652C35.4005 22.8099 29.8853 27.0366 25.3693 28.9789L23.5361 24.2716C26.4099 23.0329 30.1757 20.4563 33.8424 17.1861L33.5449 16.9224C29.9728 13.775 26.3322 11.2589 23.5361 10.15L25.4188 5.34375ZM20.6126 13.3707C22.7744 13.3707 24.5271 15.1233 24.5271 17.2852C24.5271 19.447 22.7744 21.1995 20.6126 21.1995C18.4507 21.1995 16.6982 19.447 16.6982 17.2852C16.6982 15.1233 18.4507 13.3707 20.6126 13.3707Z" fill="#64748B"/>
</g>
<defs>
<clipPath id="clip0_46_751">
<rect width="176" height="29.2188" fill="white"/>
</clipPath>
</defs>
</svg>
