<svg width="176" height="26" viewBox="0 0 176 26" fill="none" xmlns="http://www.w3.org/2000/svg">
<path d="M57.7576 0.610943V14.367C57.7576 17.4065 59.4518 19.2012 62.3922 19.2012C65.6816 19.2012 67.5723 17.2069 67.5723 13.3691V0.610943H73.703V24.2838H67.5769V21.5414C66.1326 23.7841 63.7893 24.881 60.5503 24.881C55.0686 24.8825 51.6299 20.8954 51.6299 15.1136V0.610943H57.7576ZM123.596 0.162993C130.574 0.17673 135.497 5.76662 135.48 12.3514C135.481 13.0024 135.43 13.6525 135.327 14.2954L117.287 14.2619C117.979 17.1033 120.317 19.151 123.857 19.1586C125.999 19.1586 128.293 18.3694 129.692 16.5777L133.872 19.9295C131.723 22.9659 127.931 24.753 123.896 24.7455C116.774 24.7211 111.301 19.378 111.313 12.4504C111.327 5.82147 116.071 0.149306 123.596 0.162993ZM162.495 0.16303C166.233 0.16303 168.376 1.30874 169.82 3.50265L170.395 0.607905H176V24.2838H170.395L169.671 21.8461C168.027 23.6409 165.983 24.7409 162.495 24.7409C157.113 24.7332 150.982 19.9981 150.982 12.6226C150.982 5.19683 157.012 0.16303 162.495 0.16303ZM36.8972 0.16303C43.9238 0.16303 49.5061 5.6478 49.5061 12.423C49.5061 19.151 43.9238 24.7332 36.8972 24.7332C29.9194 24.7332 24.3386 19.1449 24.3386 12.423C24.3386 5.64475 29.9194 0.16303 36.8972 0.16303ZM99.9339 0.0122003C103.886 0.0122003 107.387 1.76276 109.289 5.014L103.889 7.87065C103.089 6.26941 101.589 5.36899 99.6871 5.36899C97.8375 5.36899 96.9356 6.01954 96.9356 7.11954C96.9356 10.8218 109.842 8.47093 109.842 17.3273C109.842 21.9299 106.091 24.7302 100.038 24.7302C94.8849 24.7256 91.2832 23.0253 89.4839 19.1235L94.9321 16.2715C95.8326 18.2231 97.6334 19.3734 100.185 19.3734C102.536 19.3734 103.437 18.6238 103.437 17.5726C103.437 13.7637 90.5306 16.0719 90.5306 7.36483C90.5306 2.56262 94.7325 0.0122003 99.9339 0.0122003ZM12.5586 0.112754C14.6566 0.0980485 16.7253 0.605606 18.5784 1.58968C20.4314 2.57377 22.0104 4.00344 23.1731 5.74988L17.9413 8.78478C17.336 7.91971 16.5302 7.21402 15.5929 6.72798C14.6555 6.24194 13.6144 5.98997 12.5586 5.99364C8.97064 5.99364 6.03019 8.98436 6.03019 12.423C6.03019 15.8616 8.97064 18.8524 12.5586 18.8524C13.6642 18.8595 14.7533 18.5833 15.7218 18.0498C16.6901 17.5164 17.5057 16.7436 18.0906 15.8053L23.2706 18.895C22.122 20.6925 20.5371 22.17 18.6636 23.1897C16.7899 24.2096 14.6887 24.7384 12.5555 24.7273C5.58075 24.7332 0 19.1449 0 12.423C0 5.596 5.58075 0.112754 12.5586 0.112754ZM89.4474 0L88.3169 5.72091C88.1085 5.69818 87.899 5.68648 87.6892 5.68587C84.4014 5.69349 82.5107 7.69086 82.5198 11.5271L82.5533 24.2823L76.4241 24.296L76.3723 0.624655L82.5015 0.610943V3.35332C83.9291 1.1259 86.2479 0.0259003 89.4474 0ZM151.038 0.0167753L149.902 5.73159C149.699 5.71179 149.492 5.69655 149.274 5.69655C145.989 5.69655 144.094 7.68935 144.094 11.5272V24.2838H137.965V0.609435H144.094V3.35182C145.528 1.12896 147.843 0.0335343 151.038 0.0167753ZM36.8972 6.04392C33.3093 6.04392 30.3688 9.03464 30.3688 12.423C30.3688 15.8616 33.3093 18.8524 36.8972 18.8524C40.5415 18.8524 43.4759 15.8616 43.4759 12.423C43.4759 9.03464 40.5355 6.04392 36.8972 6.04392ZM163.543 6.04616C161.805 6.05286 160.141 6.74948 158.918 7.98279C157.693 9.21611 157.011 10.8851 157.017 12.6226C157.017 15.9119 159.957 18.8524 163.547 18.8524C167.18 18.8524 170.119 15.9119 170.119 12.5723C170.113 10.8348 169.415 9.17112 168.183 7.94724C166.949 6.72336 165.28 6.03953 163.543 6.04616ZM123.537 5.74529C120.695 5.74529 118.401 7.43033 117.499 9.97008L129.309 9.99141C128.965 7.59945 126.477 5.74986 123.537 5.74529Z" fill="#64748B"/>
</svg>
