<svg width="176" height="51" viewBox="0 0 176 51" fill="none" xmlns="http://www.w3.org/2000/svg">
<path d="M9.32475 0.309835C5.73388 1.8141 1.78628 6.05848 0.539519 11.3899C-1.03946 18.1431 5.5313 20.9993 6.07023 20.0641C6.70454 18.9638 4.89286 18.5917 4.5199 15.0876C4.03796 10.5618 6.14199 5.50479 8.79026 3.28589C9.28223 2.87365 9.2589 3.44742 9.2589 4.50873C9.2589 6.40664 9.15407 23.4441 9.15407 26.9998C9.15407 31.8112 8.95533 33.3305 8.59831 34.8318C8.23686 36.3532 7.65541 37.3812 8.09571 37.7772C8.58798 38.2201 10.6896 37.1665 11.9063 35.4685C13.3651 33.4321 13.8757 30.9864 13.9675 28.3305C14.0782 25.1288 14.0735 20.0484 14.0782 17.1506C14.0824 14.4929 14.1228 6.71051 14.0316 2.03204C14.0091 0.884493 10.8267 -0.319453 9.32475 0.309835Z" fill="#64748B"/>
<path d="M136.836 22.8267C136.721 25.3279 136.167 27.2831 135.48 28.6621C134.15 31.332 131.389 32.1609 130.217 28.3231C129.578 26.2312 129.548 22.7372 130.008 19.8178C130.475 16.8439 131.78 14.5978 133.942 14.8004C136.073 15.0006 137.071 17.7475 136.836 22.8267ZM100.898 38.3454C100.869 42.5015 100.215 46.1455 98.8119 47.2038C96.8225 48.7046 94.1485 47.5789 94.7022 44.5461C95.1921 41.8624 97.509 39.1217 100.903 35.773C100.903 35.773 100.91 36.5367 100.898 38.3454ZM100.354 22.8022C100.233 25.0804 99.642 27.369 98.9976 28.6621C97.6676 31.332 94.887 32.1665 93.7348 28.3231C92.9469 25.697 93.1356 22.2984 93.5254 20.1568C94.0313 17.3784 95.2573 14.8007 97.4594 14.8007C99.6004 14.8007 100.656 17.1495 100.354 22.8022ZM79.5352 22.7676C79.4046 25.1802 78.9339 27.1971 78.1786 28.6621C76.8119 31.3137 74.1081 32.1544 72.9157 28.3231C72.0561 25.5603 72.3487 21.7934 72.7063 19.7585C73.237 16.7387 74.5658 14.5978 76.6403 14.8007C78.7712 15.0088 79.8071 17.7475 79.5352 22.7676ZM174.944 25.5857C174.423 25.5857 174.185 26.1228 173.989 27.0265C173.307 30.1694 172.59 30.8787 171.665 30.8787C170.632 30.8787 169.704 29.3227 169.465 26.2076C169.278 23.7581 169.308 19.2488 169.548 14.7632C169.597 13.8415 169.342 12.9296 166.87 12.0316C165.807 11.6454 164.261 11.0766 163.491 12.9349C161.316 18.1851 160.464 22.3533 160.264 24.0463C160.254 24.134 160.146 24.152 160.128 23.947C160 22.591 159.715 20.1264 159.679 14.9489C159.672 13.9387 159.458 13.0788 158.343 12.3748C157.62 11.9179 155.423 11.11 154.632 12.0712C153.946 12.8573 153.152 14.9728 152.328 17.4805C151.657 19.5187 151.191 20.8975 151.191 20.8975C151.191 20.8975 151.199 15.3981 151.207 13.312C151.211 12.5251 150.671 12.2628 150.508 12.2153C149.776 12.003 148.332 11.6477 147.72 11.6477C146.964 11.6477 146.778 12.07 146.778 12.6857C146.778 12.7666 146.659 19.9262 146.659 24.9328C146.659 25.1504 146.659 25.3875 146.66 25.6397C146.242 27.9407 144.886 31.0644 143.411 31.0644C141.935 31.0644 141.238 29.7586 141.238 23.7899C141.238 20.3083 141.343 18.794 141.394 16.2757C141.424 14.8252 141.482 13.7113 141.478 13.4585C141.467 12.6833 140.127 12.2927 139.503 12.1483C138.877 12.003 138.332 11.9463 137.907 11.9705C137.305 12.0047 136.879 12.3993 136.879 12.9423C136.879 13.2338 136.883 13.7872 136.883 13.7872C136.107 12.5691 134.861 11.7213 134.031 11.4756C131.797 10.812 129.465 11.4003 127.707 13.8607C126.309 15.8159 125.467 18.0304 125.135 21.212C124.893 23.5381 124.972 25.8966 125.403 27.8914C124.882 30.1422 123.916 31.0644 122.857 31.0644C121.321 31.0644 120.207 28.5567 120.336 24.2193C120.422 21.3667 120.992 19.3646 121.616 16.4682C121.882 15.2336 121.666 14.5872 121.124 13.9676C120.627 13.3995 119.567 13.1092 118.044 13.4662C116.959 13.7207 115.408 13.9945 113.989 14.2047C113.989 14.2047 114.074 13.8631 114.145 13.2607C114.514 10.1015 111.081 10.3578 109.986 11.3669C109.332 11.9693 108.887 12.6798 108.718 13.9573C108.45 15.9845 110.103 16.9407 110.103 16.9407C109.561 19.4242 108.231 22.6678 106.858 25.0131C106.123 26.2696 105.56 27.2007 104.834 28.1905C104.832 27.822 104.83 27.4532 104.828 27.0864C104.812 21.8658 104.881 17.7572 104.912 16.276C104.942 14.8255 105 13.7411 104.997 13.4883C104.988 12.9217 104.657 12.7073 103.969 12.4362C103.36 12.1964 102.64 12.0304 101.893 11.9726C100.95 11.8993 100.383 12.399 100.397 12.9902C100.4 13.1018 100.4 13.7872 100.4 13.7872C99.6252 12.5691 98.3784 11.7213 97.5489 11.4756C95.3146 10.8123 92.9832 11.4003 91.2247 13.8607C89.8273 15.8159 88.9122 18.5596 88.6529 21.1877C88.4114 23.6373 88.456 25.7186 88.7852 27.4724C88.43 29.2282 87.4085 31.0644 86.2536 31.0644C84.7771 31.0644 83.937 29.7586 83.937 23.7899C83.937 20.3083 84.0415 18.794 84.0929 16.276C84.1227 14.8255 84.1803 13.7113 84.177 13.4588C84.1661 12.6836 82.8257 12.293 82.202 12.1483C81.5494 11.9974 80.986 11.9418 80.5534 11.974C79.9826 12.0163 79.5812 12.5274 79.5812 12.9087V13.7872C78.8061 12.5691 77.5593 11.7213 76.7298 11.4756C74.4955 10.8123 72.1771 11.4097 70.4056 13.8607C69.2504 15.4589 68.3152 17.2307 67.8338 21.1529C67.6947 22.2863 67.6333 23.3479 67.6413 24.3398C67.1806 27.1573 65.146 30.4041 63.4817 30.4041C62.5078 30.4041 61.5802 28.5151 61.5802 24.4892C61.5802 19.1265 61.9121 11.4915 61.9683 10.7556C61.9683 10.7556 64.0711 10.7199 64.4783 10.7152C65.5272 10.7036 66.4772 10.7284 67.8743 10.657C68.575 10.6212 69.2501 8.10646 68.5269 7.79521C68.1991 7.65435 65.8825 7.53091 64.9641 7.51142C64.1919 7.494 62.0421 7.33483 62.0421 7.33483C62.0421 7.33483 62.2349 2.26686 62.2798 1.73148C62.3179 1.28528 61.7406 1.05553 61.4095 0.916149C60.6045 0.575666 59.8843 0.412659 59.0306 0.236659C57.8511 -0.00666949 57.3161 0.231344 57.2115 1.22681C57.0541 2.73757 56.9726 7.16267 56.9726 7.16267C56.1071 7.16267 53.1505 6.99346 52.2847 6.99346C51.4803 6.99346 50.6121 10.4529 51.7242 10.4955C53.0038 10.5451 55.2336 10.5882 56.7119 10.6325C56.7119 10.6325 56.646 18.3936 56.646 20.79C56.646 21.0448 56.6472 21.2902 56.6487 21.5285C55.8351 25.7688 52.9695 28.0594 52.9695 28.0594C53.5849 25.2541 52.3278 23.1474 50.0634 21.364C49.2292 20.707 47.5823 19.4629 45.7396 18.0995C45.7396 18.0995 46.8069 17.0479 47.7533 14.9315C48.4239 13.4322 48.4529 11.7171 46.8069 11.3388C44.0871 10.7134 41.8446 12.7108 41.1757 14.8432C40.6575 16.4954 40.9339 17.7209 41.9491 18.9942C42.0233 19.0873 42.1036 19.1824 42.1866 19.278C41.5726 20.4613 40.7292 22.0545 40.0149 23.29C38.0322 26.7202 36.5345 29.4335 35.4026 29.4335C34.4978 29.4335 34.5099 26.6786 34.5099 24.0994C34.5099 21.8761 34.6741 18.5333 34.8052 15.0723C34.8486 13.9277 34.2763 13.2757 33.3169 12.6851C32.7339 12.3263 31.4898 11.6208 30.7693 11.6208C29.6909 11.6208 26.5793 11.7676 23.6392 20.272C23.2686 21.344 22.5407 23.2971 22.5407 23.2971L22.6036 13.0702C22.6036 12.8304 22.4757 12.5986 22.1834 12.44C21.6879 12.171 20.3646 11.6208 19.1881 11.6208C18.6277 11.6208 18.3477 11.8816 18.3477 12.4013L18.2452 28.4014C18.2452 29.6174 18.2768 31.0355 18.397 31.6556C18.5169 32.2766 18.7109 32.7819 18.951 33.0825C19.1911 33.3825 19.4687 33.6114 19.9261 33.7059C20.3519 33.7936 22.6842 34.093 22.8053 33.2018C22.9506 32.1337 22.9562 30.9785 24.1808 26.67C26.0873 19.9622 28.5725 16.6894 29.7413 15.5271C29.9457 15.3239 30.179 15.3118 30.1678 15.6443C30.1179 17.1149 29.9424 20.79 29.8243 23.9116C29.5078 32.2663 31.0277 33.8149 33.1996 33.8149C34.8613 33.8149 37.2036 32.1638 39.7146 27.9844C41.28 25.3799 42.7999 22.8261 43.8919 20.9855C44.6529 21.6901 45.5069 22.4481 46.3604 23.2581C48.3436 25.1404 48.9947 26.929 48.5627 28.6258C48.2323 29.9231 46.9879 31.2599 44.7731 29.9606C44.1276 29.5814 43.8521 29.2885 43.203 28.8612C42.8542 28.6317 42.3218 28.5629 42.0026 28.8036C41.1734 29.4287 40.6991 30.224 40.4283 31.2085C40.1649 32.1665 41.1244 32.6729 42.1189 33.1159C42.9753 33.4971 44.8159 33.8426 45.9897 33.8819C50.5634 34.0349 54.2272 31.6736 56.7777 25.5827C57.2343 30.8432 59.1773 33.8196 62.5532 33.8196C64.8102 33.8196 67.0731 30.9023 68.0627 28.0323C68.3468 29.2022 68.7673 30.2196 69.3103 31.0801C71.9117 35.2016 76.9581 34.3145 79.4929 30.8146C80.2767 29.7332 80.396 29.3446 80.396 29.3446C80.7657 32.6493 83.427 33.8039 84.9507 33.8039C86.6573 33.8039 88.4193 32.9972 89.6543 30.2169C89.799 30.5187 89.957 30.8069 90.1294 31.0801C92.7307 35.2016 97.7772 34.3145 100.312 30.8146C100.432 30.6504 100.535 30.5016 100.626 30.3678L100.7 32.5386C100.7 32.5386 99.2543 33.8651 98.3666 34.6789C94.4547 38.2642 91.4831 40.9836 91.2646 44.1504C90.9864 48.1884 94.2592 49.6891 96.7392 49.8858C99.368 50.0946 101.623 48.6411 103.007 46.607C104.225 44.8166 105.023 40.9632 104.964 37.1574C104.941 35.6333 104.903 33.6956 104.872 31.6184C106.246 30.0238 107.793 28.008 109.217 25.6492C110.77 23.0783 112.433 19.6256 113.285 16.9386C113.285 16.9386 114.731 16.951 116.273 16.8501C116.767 16.8179 116.909 16.9186 116.817 17.2803C116.707 17.7174 114.868 24.8099 116.547 29.5348C117.695 32.7692 120.285 33.8098 121.82 33.8098C123.617 33.8098 125.337 32.4526 126.258 30.4372C126.369 30.6619 126.485 30.8793 126.612 31.0801C129.213 35.2016 134.242 34.3092 136.794 30.8146C137.37 30.0261 137.697 29.3446 137.697 29.3446C138.245 32.7648 140.905 33.8214 142.428 33.8214C144.015 33.8214 145.521 33.1708 146.743 30.2795C146.794 31.5526 146.875 32.5935 147.002 32.9216C147.079 33.1224 147.53 33.3743 147.858 33.4959C149.31 34.0343 150.79 33.7797 151.338 33.669C151.718 33.5922 152.014 33.2877 152.054 32.5017C152.16 30.4375 152.095 26.9695 152.721 24.3918C153.771 20.0662 154.751 18.3883 155.216 17.5576C155.476 17.0922 155.769 17.0154 155.78 17.508C155.802 18.5046 155.852 21.4314 156.258 25.3636C156.557 28.2555 156.957 29.965 157.263 30.506C158.139 32.0531 159.22 32.1263 160.101 32.1263C160.661 32.1263 161.833 31.9716 161.728 30.987C161.677 30.5072 161.766 27.5415 162.802 23.28C163.478 20.497 164.605 17.9828 165.012 17.0633C165.162 16.7243 165.232 16.9915 165.229 17.0435C165.144 18.96 164.952 25.2287 165.732 28.6571C166.791 33.3016 169.852 33.8214 170.919 33.8214C173.197 33.8214 175.06 32.0888 175.687 27.5299C175.838 26.4329 175.615 25.5857 174.944 25.5857Z" fill="#64748B"/>
</svg>
