<svg width="176" height="45" viewBox="0 0 176 45" fill="none" xmlns="http://www.w3.org/2000/svg">
<g clip-path="url(#clip0_46_738)">
<path d="M37.9055 0.000119114C38.6121 -0.00301483 39.3125 0.138081 39.9665 0.415533C40.6206 0.692985 41.2155 1.10128 41.7175 1.61713C42.2193 2.13304 42.6183 2.74638 42.8916 3.42217C43.1649 4.09796 43.3072 4.82294 43.3103 5.5558V38.9015C43.3057 39.6343 43.1618 40.3589 42.8871 41.0341C42.6123 41.7093 42.212 42.3217 41.709 42.8365C41.206 43.3512 40.6102 43.7582 39.9556 44.0341C39.3009 44.3101 38.6002 44.4494 37.8936 44.4447H5.41677C4.7091 44.4494 4.00747 44.3096 3.35206 44.0329C2.69659 43.7562 2.10027 43.3482 1.5971 42.8321C1.09393 42.316 0.693867 41.7022 0.419852 41.0255C0.145778 40.349 0.00314074 39.6229 0 38.8891V5.5558C0.00314074 4.82193 0.145778 4.09589 0.419852 3.41933C0.693867 2.7427 1.09393 2.12884 1.5971 1.61275C2.10027 1.09672 2.69659 0.688659 3.35206 0.411978C4.00747 0.135237 4.7091 -0.00467409 5.41677 0.000119114H37.9055ZM7.15653 31.1378L7.07538 31.1419C6.69624 31.1719 6.344 31.3562 6.09535 31.6545C5.97464 31.8019 5.8832 31.9726 5.82625 32.1567C5.7693 32.3408 5.74797 32.5348 5.76344 32.7275C5.77896 32.9201 5.83093 33.1077 5.9165 33.2796C6.00207 33.4514 6.11947 33.604 6.26204 33.7286C6.48824 33.9261 11.8097 38.5311 21.6313 38.5311C31.453 38.5311 36.8102 33.9015 37.0007 33.7039L37.0126 33.7163C37.2935 33.4614 37.4661 33.1019 37.4928 32.7159C37.5196 32.3298 37.3983 31.9484 37.1554 31.6545C36.9031 31.3582 36.5492 31.1757 36.169 31.1457C35.7889 31.1157 35.4124 31.2407 35.1197 31.4941C35.0721 31.5311 30.2505 35.5805 21.6194 35.5805C12.9883 35.5805 8.20255 31.5557 8.11917 31.4941C7.82975 31.2384 7.45452 31.1118 7.07538 31.1419L7.15653 31.1378ZM148.858 13.9994C153.425 13.9994 155.4 17.1444 155.4 22.1941C155.4 27.3102 153.403 30.3888 148.858 30.3888C144.229 30.3888 142.295 27.3102 142.295 22.1941C142.295 17.2333 144.249 13.9994 148.858 13.9994ZM21.679 5.91379C21.2969 5.91379 20.9305 6.07118 20.6604 6.35136C20.3902 6.63147 20.2385 7.01144 20.2385 7.40765V28.8891C20.2385 29.2853 20.3902 29.6653 20.6604 29.9454C20.9305 30.2255 21.2969 30.3829 21.679 30.3829C22.061 30.3829 22.4274 30.2255 22.6975 29.9454C22.9677 29.6653 23.1195 29.2853 23.1195 28.8891V7.40765C23.1195 7.01144 22.9677 6.63147 22.6975 6.35136C22.4274 6.07118 22.061 5.91379 21.679 5.91379ZM133.524 13.9994C135.202 13.9994 136.498 14.3987 137.474 15.2622C138.324 15.9705 138.94 16.968 139.301 18.3634C139.492 19.0943 139.003 19.8251 138.197 19.9803C137.432 20.113 136.817 19.6036 136.583 18.8728C136.328 18.1645 135.988 17.6551 135.585 17.2996C135.032 16.7902 134.353 16.5687 133.46 16.5687C132.505 16.5687 131.676 16.8565 131.06 17.4985C130.168 18.4283 129.785 20.0904 129.785 22.1941C129.785 24.2766 130.147 25.9373 131.081 26.8671C131.697 27.5091 132.505 27.7969 133.439 27.7969C134.415 27.7969 135.159 27.5317 135.775 26.9335C136.093 26.6231 136.37 26.2251 136.561 25.7595C136.837 25.0724 137.411 24.5631 138.153 24.7409C138.897 24.9186 139.365 25.6706 139.131 26.4015C138.748 27.6191 138.09 28.5941 137.198 29.2587C136.222 29.9895 135.011 30.3662 133.482 30.3662C131.528 30.3662 130.296 29.768 129.361 28.9271C127.768 27.4428 127.046 25.1176 127.046 22.1941C127.046 19.2481 127.747 16.9454 129.319 15.4837C130.296 14.5976 131.612 13.9994 133.524 13.9994ZM113.86 14.2415L113.944 14.2435H118.977C122.439 14.2435 123.883 16.5913 123.883 18.9828C123.883 21.225 122.652 22.8893 120.532 23.3666L120.42 23.3906L123.075 28.3063C123.436 28.9483 123.202 29.768 122.459 30.1673C121.759 30.5323 121 30.2735 120.626 29.6734L120.591 29.6142L117.639 23.9225H114.836L114.857 28.7508C114.857 29.5042 114.305 30.1236 113.519 30.1236C112.778 30.1236 112.237 29.541 112.204 28.8209L112.203 28.7508V15.9931C112.203 14.8993 112.758 14.2652 113.779 14.2421L113.86 14.2415ZM68.877 14.2421C70.2151 14.2421 70.7668 14.9956 71.2984 16.1031L73.9313 21.4858L76.1825 26.7134L76.1191 21.7073L76.0978 15.6615C76.0978 14.908 76.6495 14.2887 77.4359 14.2887C78.1985 14.2872 78.7508 14.9067 78.7508 15.6601V27.6206C78.7508 29.2375 77.923 30.1461 76.6062 30.1461H76.5007C75.248 30.1461 74.6524 29.3927 74.1221 28.2851L71.4459 22.8587L69.0673 17.2558L69.1313 22.6823L69.1526 28.7282C69.1526 29.4816 68.6009 30.101 67.8145 30.101C67.0501 30.101 66.4984 29.4802 66.4984 28.7282V16.7677C66.4984 15.2834 67.3262 14.2421 68.771 14.2421H68.877ZM60.2744 14.2872C61.0388 14.2872 61.5911 14.908 61.5911 15.6601V28.7493C61.5911 29.5028 61.0388 30.1221 60.253 30.1221C59.4886 30.1221 58.9363 29.5013 58.9363 28.7493V15.6601C58.9363 14.9066 59.4886 14.2872 60.2744 14.2872ZM173.663 14.2887C175.15 14.2887 175.978 15.2184 175.978 16.8805L176 28.7281C176 29.4816 175.448 30.101 174.662 30.101C173.897 30.101 173.345 29.4802 173.345 28.7281V22.7924L173.409 17.0117L171.561 22.8813L169.692 28.6618C169.375 29.6805 168.716 30.0798 167.887 30.0798C167.016 30.0798 166.379 29.6594 166.04 28.6407L164.128 22.8827L162.365 17.1021L162.428 22.7938V28.7295C162.428 29.483 161.876 30.1024 161.09 30.1024C160.326 30.1024 159.774 29.4816 159.774 28.7295V16.8805C159.774 15.241 160.623 14.2887 162.11 14.2887C163.512 14.2887 164.298 15.0632 164.743 16.4813L166.697 22.5271L167.886 26.647L169.097 22.5271L171.051 16.4813C171.497 15.0632 172.262 14.2887 173.663 14.2887ZM92.6833 14.2887C93.3624 14.2887 93.9147 14.8206 93.9147 15.5951C93.9147 16.3486 93.3624 16.8791 92.6833 16.8791H89.3914V28.7282C89.3914 29.4816 88.8397 30.101 88.0533 30.101C87.2895 30.101 86.7372 29.4802 86.7372 28.7282V16.8791H83.4453C82.7662 16.8791 82.2145 16.3472 82.2145 15.5726C82.2145 14.8191 82.7662 14.2887 83.4453 14.2887H92.6833ZM99.1182 14.2435H106.764C107.443 14.2435 107.995 14.7966 107.995 15.5501C107.995 16.3035 107.443 16.834 106.764 16.834H100.009V20.6435H105.977C106.636 20.6435 107.167 21.1528 107.167 21.8837C107.167 22.6146 106.636 23.1239 105.977 23.1239H100.009V27.5091H106.764C107.443 27.5091 107.995 28.0622 107.995 28.8157C107.995 29.5691 107.443 30.0996 106.764 30.0996H99.0542C97.9502 30.101 97.3351 29.459 97.3766 28.2851V15.9931C97.3766 14.8417 97.9923 14.1998 99.1182 14.2435ZM14.5003 6.7286C14.1169 6.70839 13.7414 6.84641 13.4559 7.11242C13.1703 7.3785 12.998 7.75094 12.9764 8.14839V27.9015C12.9764 28.2976 13.1282 28.6776 13.3983 28.9578C13.6685 29.2379 14.0349 29.3953 14.4169 29.3953C14.799 29.3953 15.1654 29.2379 15.4356 28.9578C15.7057 28.6776 15.8574 28.2976 15.8574 27.9015V8.14839C15.8404 7.77962 15.6922 7.43053 15.4416 7.16836C15.191 6.9062 14.8556 6.74952 14.5003 6.7286ZM28.822 6.65453C28.4399 6.65453 28.0735 6.81192 27.8034 7.0921C27.5332 7.37222 27.3815 7.75218 27.3815 8.14839V27.9015C27.3815 28.2976 27.5332 28.6776 27.8034 28.9578C28.0735 29.2379 28.4399 29.3953 28.822 29.3953C29.204 29.3953 29.5704 29.2379 29.8405 28.9578C30.1107 28.6776 30.2625 28.2976 30.2625 27.9015V8.14839C30.2625 7.75218 30.1107 7.37222 29.8405 7.0921C29.5704 6.81192 29.204 6.65453 28.822 6.65453ZM148.837 16.5913C146.351 16.5913 145.035 18.4298 145.035 22.1941C145.035 25.9599 146.309 27.7969 148.837 27.7969C151.342 27.7969 152.68 25.9585 152.68 22.1941C152.68 18.4283 151.364 16.5913 148.837 16.5913ZM36.0602 9.61749C35.6782 9.61749 35.3118 9.77488 35.0416 10.0551C34.7714 10.3352 34.6197 10.7151 34.6197 11.1114V24.457C34.6197 24.8532 34.7714 25.2331 35.0416 25.5133C35.3118 25.7934 35.6782 25.9508 36.0602 25.9508C36.4423 25.9508 36.8087 25.7934 37.0788 25.5133C37.3489 25.2331 37.5007 24.8532 37.5007 24.457V11.1114C37.5007 10.7151 37.3489 10.3352 37.0788 10.0551C36.8087 9.77488 36.4423 9.61749 36.0602 9.61749ZM7.27396 9.69156C6.89061 9.67136 6.51508 9.80937 6.22957 10.0754C5.944 10.3415 5.77162 10.7139 5.7501 11.1114V24.4323C5.7501 24.8285 5.90187 25.2085 6.17203 25.4886C6.44219 25.7688 6.80859 25.9261 7.19064 25.9261C7.57268 25.9261 7.93908 25.7688 8.20918 25.4886C8.47935 25.2085 8.63111 24.8285 8.63111 24.4323V11.1114C8.61404 10.7426 8.4659 10.3935 8.21529 10.1313C7.96468 9.86916 7.62933 9.71248 7.27396 9.69156ZM119.017 16.8326H114.834V21.4181H119.039C120.462 21.4181 121.205 20.4657 121.205 19.1141C121.205 17.7624 120.419 16.8326 119.017 16.8326Z" fill="#64748B"/>
</g>
<defs>
<clipPath id="clip0_46_738">
<rect width="176" height="44.6875" fill="white"/>
</clipPath>
</defs>
</svg>
