<svg width="192" height="48" viewBox="0 0 192 48" fill="none" xmlns="http://www.w3.org/2000/svg">
<g clip-path="url(#clip0_46_724)">
<path d="M177.674 29.7919L177.645 29.7385L177.587 29.5528L177.613 29.4975C179.443 25.7075 181.54 23.5351 183.365 23.5351H183.383C185.443 23.5507 186.868 25.414 186.848 28.0651C186.835 29.8344 186.058 30.8533 185.411 31.3962C184.671 32.0162 183.687 32.3707 182.708 32.3707C180.297 32.3522 178.643 30.9586 177.674 29.7919ZM177.175 44.0988C176.881 44.4929 176.471 44.6923 175.957 44.6923C175.368 44.6876 174.925 44.4811 174.623 44.0765C173.779 42.9424 174.017 40.2776 175.394 35.4395C175.559 34.8615 175.738 34.2803 175.926 33.7118L176.086 33.2288L176.226 33.7175C177.832 39.3022 178.15 42.795 177.175 44.0988ZM118.186 18.3738C118.24 17.1678 118.341 15.9935 118.484 14.8834C119.414 7.72786 121.354 2.73049 123.204 2.73049H123.212C124.094 2.73711 124.535 3.40768 124.526 4.72235C124.501 7.95327 122.465 12.5787 118.474 18.4702L118.161 18.9314L118.186 18.3738ZM182.917 34.6957L182.982 34.6966C186.866 34.6966 189.6 31.9912 189.63 28.1195C189.644 26.2023 189.094 24.4477 188.078 23.1798C187.005 21.8377 185.502 21.1217 183.732 21.108H183.697C181.308 21.108 179.09 22.9293 176.916 26.6777L176.743 26.9768L176.631 26.6503C176.082 25.0431 175.593 23.7048 175.301 22.9047C175.096 22.3462 175.006 22.0952 174.985 22.0139C174.88 21.6085 174.535 21.3566 174.083 21.3566C173.805 21.3566 173.51 21.4516 173.23 21.6302C172.954 21.807 172.799 22.0239 172.743 22.3131L172.729 22.3566C170.553 29.178 168.759 32.4916 167.239 32.4916C167.018 32.4897 166.845 32.417 166.716 32.2728C166.318 31.8305 166.415 30.7786 166.551 29.3222C166.65 28.2523 166.764 27.0406 166.716 25.7557C166.626 23.2847 165.282 21.8008 163.119 21.7843C160.371 21.7833 158.59 24.7246 157.769 26.4783L157.524 27.0019L157.47 26.4258C157.265 24.2558 156.541 21.6638 154.253 21.6463C151.585 21.6463 149.552 24.794 148.312 27.4357L147.979 28.1436L148.013 27.3615C148.16 23.8385 148.281 21.7583 148.372 21.1818C148.463 20.6029 148.415 20.2144 148.227 19.9918C148.048 19.7834 147.712 19.7064 147.218 19.7376C146.364 19.7919 145.927 20.3146 145.27 22.0664C144.19 24.9434 141.442 31.6368 139.248 31.6368C138.812 31.6339 138.468 31.4846 138.215 31.194C137.295 30.1335 137.663 27.2674 138.172 23.3007L138.211 23.0007C138.452 21.1227 138.041 20.722 137.027 20.5343C136.917 20.5145 136.813 20.5036 136.718 20.5036C135.908 20.5036 135.528 21.2843 134.772 23.452C133.425 27.31 131.693 31.3674 129.667 31.3674C129.593 31.3674 129.519 31.3617 129.445 31.3499C128.372 31.1661 128.395 29.5655 128.425 27.5377C128.441 26.4414 128.459 25.1981 128.291 24.0757C127.989 22.0621 126.808 20.8042 125.21 20.7919C122.02 20.7919 119.868 24.8975 118.868 27.3449L118.641 27.8988L118.566 27.3043C118.432 26.2429 118.255 24.5615 118.179 22.5725L118.176 22.5134L118.213 22.4671C124.182 14.9141 126.86 9.46359 126.896 4.79371C126.919 1.81041 125.549 0.0184457 123.233 0.000488281C121.54 0.000488281 117.512 1.41818 116.113 14.5536C115.853 16.9896 115.711 19.4871 115.689 21.9771L115.689 22.0258L115.661 22.0655C112.931 26.0392 107.102 32.8735 101.396 32.8735C96.2393 32.8735 92.1257 28.6804 92.1257 21.2796C92.1257 11.3576 99.1127 5.2658 104.371 5.2658L104.414 5.26627C105.556 5.27478 106.536 5.59565 107.247 6.19391C107.986 6.81486 108.372 7.68533 108.364 8.71079C108.354 10.0808 107.91 10.7849 107.481 11.4649C107.371 11.6402 107.261 11.8141 107.16 11.9984C107.059 12.1841 106.966 12.4544 107.101 12.6855C107.239 12.9223 107.592 13.0716 108.023 13.0744C109.274 13.0744 111.167 11.2537 111.188 8.50948C111.21 5.63771 108.803 2.67898 104.509 2.67898C98.0112 2.67898 89.2607 9.85392 89.2607 21.4828C89.2607 29.7087 94.3917 35.3941 101.342 35.3941C106.274 35.3941 111.153 31.8447 115.474 25.9154L115.739 25.5563L115.758 26.0029C115.85 28.1729 116.006 29.8831 116.121 31.1321C116.195 31.935 116.248 32.5148 116.246 32.8347C116.24 33.5365 116.354 34.0227 116.595 34.3219C116.835 34.621 117.217 34.7623 117.796 34.7666C118.766 34.7666 118.961 34.1012 119.345 32.4609L119.456 31.9921C119.933 30.0041 121.697 23.5158 124.35 23.5158C124.784 23.5195 125.117 23.6485 125.355 23.9014C125.941 24.5261 125.877 25.8082 125.803 27.2934C125.756 28.2201 125.708 29.1771 125.801 30.1094C126.051 32.6263 127.132 33.8569 129.106 33.8715C131.134 33.8725 133.249 31.6774 134.365 29.6378L134.576 29.2527L134.658 29.6846C134.864 30.7758 135.786 34.3587 138.671 34.3587C141.286 34.3587 143.529 31.5909 145.988 25.8942L146.31 25.1504L146.29 25.9617C146.238 28.1204 146.121 30.7564 146.12 32.7941C146.12 34.3706 146.278 34.9726 147.003 34.9726C147.055 34.9726 147.11 34.9797 147.167 34.9797C147.863 34.9797 148.335 34.5629 148.57 33.7378C150.42 27.2556 152.02 24.2364 153.604 24.2364C155.155 24.2487 155.301 27.0997 155.425 32.1382L155.434 32.4916C155.471 34.2534 155.534 35.0336 156.624 35.0416C157.45 35.0416 157.656 34.389 158.083 32.7823C158.164 32.476 158.254 32.1401 158.358 31.7771C159.852 26.5671 161.09 24.4415 162.632 24.4415C163.952 24.4514 164.025 25.8195 164.05 26.2689C164.101 27.2315 164.002 28.2395 163.907 29.212C163.818 30.1165 163.727 31.0517 163.762 31.9222C163.842 33.9599 164.952 35.0907 166.887 35.1054C169.399 35.1054 171.666 32.1528 173.651 26.3318L173.789 25.9254L173.946 26.3242C174.306 27.2391 174.775 28.4777 175.21 29.9554L175.227 30.0116L175.203 30.065C173.281 34.3559 171.924 39.1359 171.905 41.6892C171.879 45.0524 173.393 47.238 175.762 47.2564H175.803C177.092 47.2564 180.095 46.7366 180.154 41.9235C180.177 39.9511 179.714 37.162 178.777 33.6324L178.669 33.2279L179.015 33.4599C180.211 34.2571 181.56 34.6843 182.917 34.6957Z" fill="#64748B"/>
<path d="M56.4283 24.8171C55.5825 28.2366 53.9615 32.363 51.0387 32.5993C50.9569 32.605 50.8775 32.6097 50.8009 32.6097C49.5884 32.6097 48.9086 31.8111 48.7802 30.2374C48.6195 28.2678 49.4647 25.9617 50.932 24.3602C51.8666 23.3404 52.9207 22.779 53.8995 22.779H53.9192C55.1557 22.7884 56.0216 23.786 56.4198 24.7165L56.441 24.7642L56.4283 24.8171ZM83.2294 5.69529L83.2713 5.69434C83.5468 5.69434 83.7889 5.83375 83.991 6.10831C84.9501 7.41211 84.9642 12.1689 83.315 17.5822C82.3719 20.6751 81.1044 23.5979 79.6494 26.0326L79.4176 26.4201L79.3584 25.9716C79.1868 24.6626 79.1026 23.2997 79.0429 22.1396C78.6222 13.9581 81.0842 5.80729 83.2294 5.69529ZM60.9716 34.0699C63.7957 33.8417 66.0368 29.9808 66.8689 28.3316L67.0833 27.9063L67.1646 28.376C67.5638 30.6963 68.8195 34.5949 72.7474 34.6252H72.7803C74.4794 34.6252 76.4074 33.5808 78.3551 31.6055L78.498 31.4604L78.6019 31.6348C79.9136 33.8398 81.6728 35.0113 83.5453 34.9153C86.3031 34.7712 87.9763 32.8072 88.1239 31.4429C88.1616 31.0951 88.0699 30.7681 87.8724 30.547C87.6242 30.2691 87.2645 30.2365 86.9994 30.4912L86.8739 30.6112C86.2317 31.2308 85.0357 32.3852 83.7329 32.4538C82.1373 32.5322 80.9568 31.5734 80.1943 29.5943L80.1628 29.5111L80.2164 29.4412C84.6036 23.6726 87.683 14.8701 87.3793 8.96685C87.2392 6.23448 86.4484 2.9771 83.48 2.9771C83.4071 2.9771 83.3333 2.97899 83.2586 2.98324C82.1209 3.04231 81.087 3.58671 80.1844 4.60177C77.4299 7.69943 75.9885 15.3238 76.5117 24.0261C76.6203 25.8341 76.9325 27.524 77.4398 29.047L77.4685 29.1316L77.4106 29.2002C75.7826 31.1126 74.1761 32.1664 72.8871 32.1664C69.7856 32.1664 69.89 26.9399 70.1354 22.6046C70.1885 21.6698 70.267 21.0744 69.992 20.7361C69.795 20.4941 69.4664 20.3745 68.9873 20.3703L68.9309 20.3698C67.828 20.3698 67.5967 20.5981 67.0321 22.2445C65.8572 25.6654 63.5385 31.4051 61.2058 31.4051C60.5589 31.3995 60.0652 31.1774 59.7277 30.7445C58.5961 29.2923 59.4555 25.6715 60.1456 22.7615C60.2697 22.2383 60.3887 21.736 60.4907 21.271C60.6421 20.5811 60.5955 20.0778 60.3529 19.773C60.1099 19.4696 59.6238 19.3462 58.983 19.3973C57.9835 19.4776 57.3451 19.8982 57.0367 21.8078L56.9746 22.2048L56.7423 21.9227C56.3061 21.2753 55.4551 20.5036 53.8764 20.5036C53.7378 20.5036 53.5948 20.5092 53.4467 20.521C51.7618 20.66 49.8427 21.8404 48.4385 23.6012C46.7986 25.6578 46.0159 28.2607 46.2336 30.9297C46.2453 31.071 46.2655 31.2067 46.2857 31.3413L46.297 31.416L46.2462 31.4727C45.2651 32.5469 44.2656 33.0912 43.2755 33.0912C41.7476 33.0794 40.8703 31.9377 40.8703 30.0366C40.8703 26.8345 43.0287 17.1843 43.0287 13.6906C43.0287 9.97247 41.3804 7.948 38.5183 7.92626L38.475 7.92579C34.296 7.92579 31.0385 12.693 27.9215 22.5001C27.6362 23.3985 27.3259 24.4358 27.0593 25.3327L26.6221 26.808L26.7519 25.2746C27.0415 21.8579 27.2403 18.5344 27.3428 15.3947C27.498 10.6548 26.8605 7.60445 25.3941 6.06956C24.6029 5.24163 23.5564 4.8338 22.193 4.82293H22.1568C17.0428 4.82293 14.5929 13.4931 12.8092 19.6104C12.2709 21.4572 11.2094 25.6228 10.5009 28.47L10.9207 27.7844C11.2353 24.1985 12.1468 15.2165 12.0871 10.3439C12.0227 5.11687 10.2908 2.77295 6.47144 2.74365H6.42442C4.38406 2.74365 2.96897 3.7625 2.14061 4.61784C0.811081 5.99017 -0.0177569 7.99573 0.0283158 9.72768C0.0565235 10.7806 0.69966 11.7181 1.18671 11.7181C1.50405 11.7181 1.67988 11.2923 1.75604 11.0386C2.93747 7.11204 4.46681 5.20288 6.43007 5.20288C7.24386 5.20902 7.84938 5.4505 8.30353 5.94008C9.83662 7.59358 9.55783 12.0584 9.05198 20.1638C8.88884 22.7761 8.70408 25.7363 8.548 29.1033C8.5212 29.6812 8.48547 30.2384 8.45162 30.7691C8.30212 33.1073 8.18412 34.955 9.06608 35.0926C10.2141 35.2726 10.9616 34.8033 11.3434 33.6616C11.9104 31.967 13.1821 27.3359 15.6427 18.8723C18.0037 10.7508 19.7874 7.79584 22.0694 7.79584C24.7059 7.79584 24.9024 12.3462 24.4191 21.9482C24.3161 23.9835 24.1784 26.2892 24.0726 28.7985C24.058 29.1515 24.0411 29.4927 24.0251 29.8221C23.9236 31.8999 23.8436 33.5392 24.4337 34.1677C24.618 34.3634 24.8685 34.4603 25.2 34.4622C26.3429 34.4622 26.686 33.4551 27.2558 31.7856C27.3565 31.4911 27.4632 31.1764 27.5821 30.8466C31.4983 19.9875 34.3943 10.566 38.2808 10.566C39.4468 10.566 40.3532 11.5178 40.3532 13.3745C40.3532 17.6592 38.2696 25.9385 38.2696 30.1358C38.2696 31.6395 38.6997 32.9901 39.5135 33.9386C40.3485 34.9125 41.5167 35.4323 42.8919 35.4432H42.922C44.2223 35.4432 45.5777 34.8081 46.95 33.5558L47.0788 33.4386L47.1823 33.5789C48.0859 34.8 49.5447 35.456 51.1191 35.334C53.5347 35.145 55.5614 32.9835 56.3155 30.9444L56.4626 30.546L56.6102 30.9444C57.1697 32.4575 58.3817 34.2802 60.9716 34.0699Z" fill="#64748B"/>
<path d="M69.9845 12.2822C68.9055 12.2822 68.0339 13.1366 68.0264 14.1867C68.0174 15.2447 68.8834 16.1124 69.9553 16.1209L69.9708 16.2782V16.1209C71.0338 16.1209 71.9054 15.2669 71.9134 14.2169C71.9219 13.1584 71.0564 12.2907 69.9845 12.2822Z" fill="#64748B"/>
<path d="M137.821 12.2822C136.742 12.2822 135.871 13.1366 135.862 14.1867C135.854 15.2447 136.719 16.1124 137.792 16.1209L137.807 16.2782V16.1209C138.871 16.1209 139.742 15.2669 139.75 14.2169C139.758 13.1584 138.893 12.2907 137.821 12.2822Z" fill="#64748B"/>
<path d="M190.648 34.9999C190.021 34.9999 189.515 34.4923 189.515 33.8619C189.515 33.2315 190.021 32.723 190.648 32.723C191.274 32.723 191.781 33.2315 191.781 33.8619C191.781 34.4923 191.274 34.9999 190.648 34.9999ZM190.648 32.5293C189.918 32.5293 189.323 33.1276 189.323 33.8619C189.323 34.5958 189.918 35.1931 190.648 35.1931C191.378 35.1931 191.974 34.5958 191.974 33.8619C191.974 33.1276 191.378 32.5293 190.648 32.5293Z" fill="#64748B"/>
<path d="M190.605 33.7788H190.36V33.2604H190.701C190.865 33.2604 191.043 33.3176 191.043 33.5142C191.043 33.7689 190.816 33.7788 190.605 33.7788ZM191.235 33.5142C191.235 33.2391 191.101 33.0889 190.755 33.0889H190.167V34.6238H190.36V33.9518H190.634L191.09 34.6238H191.307L190.851 33.9518C191.058 33.9159 191.235 33.7977 191.235 33.5142Z" fill="#64748B"/>
</g>
<defs>
<clipPath id="clip0_46_724">
<rect width="192" height="47.4947" fill="white"/>
</clipPath>
</defs>
</svg>
