<svg width="176" height="46" viewBox="0 0 176 46" fill="none" xmlns="http://www.w3.org/2000/svg">
<g clip-path="url(#clip0_46_744)">
<path fill-rule="evenodd" clip-rule="evenodd" d="M41.4006 24.5234L44.7391 27.8682C45.0031 28.1334 45.1527 28.4941 45.1527 28.8687V30.7504C45.1527 35.7921 44.6285 37.6209 43.6443 39.4649C42.6832 41.2858 41.1968 42.7757 39.3782 43.7411C37.538 44.7253 35.7129 45.2507 30.6812 45.2507H21.846C21.732 45.2501 21.6294 45.181 21.586 45.0755C21.5426 44.97 21.5668 44.8488 21.6474 44.768V44.7693L24.9847 41.4245C25.2486 41.1593 25.6081 41.0097 25.9827 41.0097H30.0666C33.84 41.0097 35.2076 40.6163 36.5877 39.8759C37.9518 39.1521 39.0668 38.0349 39.7879 36.6694C40.5135 35.3098 40.906 33.9611 40.9189 30.3203L40.9192 24.7232C40.9198 24.6095 40.9885 24.5071 41.0936 24.4635C41.1987 24.4199 41.3196 24.4435 41.4006 24.5234ZM0.481417 21.6939L3.82117 25.0387C4.08513 25.3039 4.23471 25.6647 4.23471 26.0393V30.132C4.23471 33.9142 4.62689 35.2855 5.36598 36.6682C6.08679 38.0335 7.20133 39.1507 8.56495 39.8747C9.9451 40.615 11.3139 41.0085 15.0873 41.0085H20.4847C20.5993 41.0081 20.7028 41.0768 20.7468 41.1825C20.7909 41.2882 20.7668 41.4101 20.6859 41.4911L17.3461 44.8359C17.0821 45.1011 16.7227 45.2507 16.3493 45.2507H14.4714C9.4398 45.2507 7.61595 44.7253 5.77575 43.7398C3.95667 42.7746 2.46984 41.2847 1.50836 39.4637C0.537824 37.6453 0.0146486 35.8416 0.000303158 30.9573L0 21.8938C0.000600382 21.78 0.0693066 21.6777 0.174376 21.6341C0.279446 21.5905 0.400424 21.6141 0.481417 21.6939ZM66.5186 12.6021C67.8346 12.6021 69.0187 12.8462 70.0707 13.3339C71.1228 13.8203 72.019 14.4903 72.7606 15.3387C73.5168 16.2159 74.0895 17.2357 74.445 18.3379C74.8283 19.488 75.0194 20.7261 75.0194 22.0497C75.0297 23.3127 74.8235 24.5681 74.4098 25.7615C74.0335 26.8584 73.4559 27.8755 72.7066 28.7606C71.9799 29.6081 71.0814 30.2914 70.0707 30.7655C69.0156 31.259 67.8631 31.509 66.6983 31.497C65.885 31.497 65.1686 31.409 64.5464 31.2343C63.9709 31.0782 63.417 30.8515 62.8972 30.5593C62.4586 30.3134 62.0496 30.0182 61.678 29.6794C61.3733 29.401 61.0967 29.0932 60.8522 28.7606C60.7929 28.7606 60.7447 28.8082 60.7441 28.8674V37.9478C60.7441 38.8572 60.0068 39.5944 59.0974 39.5944H58.0881C57.1787 39.5944 56.4415 38.8572 56.4415 37.9478V14.6989C56.4415 13.7902 57.178 13.0523 58.0881 13.0523H59.1791C59.9245 13.0523 60.5291 13.6557 60.5291 14.4023V15.6794C60.5291 15.7196 60.5618 15.751 60.6008 15.751C61.223 14.6512 62.0588 13.853 63.1122 13.3515C64.177 12.8491 65.3412 12.5931 66.5186 12.6021ZM34.3465 17.4517L37.685 20.8002C37.949 21.0655 38.0973 21.425 38.0973 21.8008V32.5277C38.0973 35.6513 35.5708 38.1841 32.4536 38.1841H28.88C28.7672 38.1835 28.6655 38.116 28.6212 38.0122C28.577 37.9084 28.5986 37.7882 28.6764 37.7064V37.7052L33.0255 33.1436C33.3272 32.842 33.5459 32.49 33.6829 32.1129C33.803 31.7935 33.8643 31.4549 33.8639 31.1136V17.6516C33.864 17.5372 33.9329 17.4342 34.0385 17.3905C34.1441 17.3468 34.2657 17.3709 34.3465 17.4517ZM7.53299 28.7392H7.53173L12.0845 33.0984C12.3849 33.4001 12.7381 33.6188 13.1127 33.7558C13.4219 33.8739 13.7587 33.938 14.1107 33.938H27.5426C27.6567 33.9386 27.7592 34.0077 27.8026 34.1132C27.8461 34.2187 27.8218 34.34 27.7412 34.4207L24.4002 37.7668C24.1362 38.0307 23.7767 38.1803 23.4034 38.1803H12.6991C11.2006 38.1786 9.76417 37.5818 8.70576 36.521C7.64735 35.4602 7.05367 34.0224 7.05534 32.524V28.9429C7.05589 28.83 7.12345 28.7283 7.22724 28.6841C7.33104 28.6398 7.4512 28.6614 7.53299 28.7392ZM170.5 12.6022C171.601 12.6022 172.706 12.821 173.818 13.2585C174.242 13.4256 174.742 13.7235 175.318 14.1522C175.696 14.4341 175.936 14.8651 175.975 15.3356C176.015 15.8062 175.85 16.271 175.524 16.612L174.858 17.3071C174.273 17.9186 173.319 17.9871 172.653 17.4655C172.504 17.3468 172.349 17.2376 172.187 17.1387C171.679 16.8257 171.096 16.6571 170.5 16.651C169.712 16.651 169.005 16.8018 168.384 17.101C167.777 17.3897 167.234 17.7975 166.788 18.3001C166.343 18.8036 166.002 19.3896 165.784 20.0247C165.556 20.6751 165.441 21.3594 165.443 22.0484C165.443 22.7498 165.556 23.4235 165.784 24.0734C166.01 24.7232 166.345 25.2989 166.789 25.7979C167.235 26.3009 167.777 26.7091 168.384 26.9983C169.005 27.2975 169.712 27.4483 170.5 27.4483C171.17 27.4483 171.792 27.3038 172.365 27.0172C172.482 26.9581 172.608 26.8789 172.742 26.7796C173.427 26.2752 174.384 26.376 174.949 27.0122L175.603 27.7462C175.916 28.0984 176.055 28.5728 175.98 29.0383C175.905 29.5037 175.625 29.9109 175.217 30.147C174.181 30.7506 173.045 31.1636 171.863 31.3663C171.337 31.453 170.883 31.4972 170.5 31.4972C169.249 31.5043 168.008 31.2753 166.842 30.822C165.729 30.3949 164.716 29.7443 163.864 28.9102C163.01 28.0587 162.333 27.0456 161.874 25.9299C161.384 24.7672 161.139 23.4738 161.139 22.0497C161.139 20.6255 161.384 19.3321 161.874 18.1694C162.333 17.0538 163.01 16.0407 163.864 15.1892C164.716 14.3551 165.729 13.7044 166.842 13.2773C168.008 12.8241 169.249 12.595 170.5 12.6022ZM109.847 12.6023C110.995 12.6023 112.131 12.8085 113.255 13.2208C113.662 13.3703 114.116 13.6469 114.618 14.0503C114.989 14.3492 115.212 14.7941 115.23 15.2701C115.248 15.7462 115.059 16.2067 114.712 16.5329L114.176 17.0369C113.598 17.5814 112.712 17.6349 112.072 17.1638C111.199 16.5228 110.421 16.201 109.741 16.201C109.166 16.201 108.604 16.3518 108.054 16.651C107.504 16.9514 107.229 17.4379 107.229 18.1129C107.229 18.6634 107.455 19.0631 107.91 19.3133C108.365 19.5621 108.939 19.7758 109.632 19.9505C110.326 20.1253 111.073 20.3063 111.874 20.4935C112.676 20.6821 113.422 20.9687 114.116 21.3558C114.81 21.743 115.383 22.2734 115.838 22.9497C116.292 23.6246 116.519 24.5485 116.519 25.7238C116.519 26.7985 116.298 27.7035 115.856 28.4413C115.429 29.162 114.84 29.7722 114.134 30.2225C113.401 30.6831 112.595 31.0128 111.749 31.1966C110.878 31.3952 109.988 31.4959 109.094 31.497C107.756 31.497 106.524 31.2959 105.399 30.8974C104.959 30.7403 104.431 30.4261 103.815 29.9535C103.436 29.663 103.202 29.2223 103.173 28.7457C103.145 28.2691 103.324 27.8036 103.666 27.4697L104.112 27.0323C104.728 26.4282 105.705 26.4018 106.353 26.9719C106.614 27.202 106.841 27.3792 107.032 27.5036C107.665 27.9172 108.437 28.1233 109.345 28.1233C109.656 28.1233 109.979 28.0856 110.314 28.0102C110.649 27.9348 110.96 27.8103 111.246 27.6356C111.533 27.4596 111.767 27.2422 111.946 26.9795C112.125 26.7168 112.215 26.4113 112.215 26.0619C112.215 25.4359 111.988 24.9734 111.533 24.6742C111.079 24.3738 110.505 24.1299 109.811 23.9427C109.07 23.7442 108.322 23.5694 107.57 23.4185C106.789 23.2629 106.035 22.9976 105.329 22.6304C104.64 22.272 104.048 21.7508 103.607 21.112C103.153 20.4621 102.925 19.5621 102.925 18.4133C102.925 17.414 103.123 16.5454 103.516 15.8076C103.893 15.0917 104.426 14.4703 105.077 13.99C105.746 13.5035 106.501 13.1471 107.302 12.9392C108.132 12.7154 108.988 12.6023 109.847 12.6023ZM154.864 13.0523C155.774 13.0523 156.511 13.7902 156.511 14.6989V29.4004C156.511 30.3098 155.774 31.047 154.864 31.047H153.855C152.946 31.047 152.208 30.3098 152.208 29.4004V14.6989C152.208 13.7902 152.945 13.0523 153.855 13.0523H154.864ZM140.695 12.6023C141.842 12.6023 142.81 12.8022 143.599 13.2019C144.367 13.5828 145.027 14.1498 145.519 14.851C146.009 15.5512 146.361 16.3694 146.576 17.3071C146.792 18.2448 146.899 19.2504 146.899 20.3239V29.3991C146.899 30.3085 146.162 31.0458 145.252 31.0458H144.242C143.332 31.0458 142.595 30.3085 142.595 29.3991V20.8493C142.595 20.3 142.547 19.7683 142.452 19.2567C142.369 18.7794 142.199 18.3217 141.949 17.9067C141.712 17.5217 141.378 17.2053 140.981 16.9891C140.574 16.7629 140.048 16.651 139.402 16.651C138.734 16.651 138.166 16.7817 137.699 17.0444C137.24 17.3002 136.847 17.6596 136.552 18.094C136.245 18.5493 136.026 19.0578 135.906 19.5936C135.774 20.1526 135.708 20.725 135.708 21.2993V29.4004C135.708 30.3098 134.971 31.047 134.062 31.047H133.051C132.142 31.047 131.404 30.3098 131.404 29.4004V20.3251C131.404 19.2001 131.178 18.3064 130.723 17.644C130.268 16.9828 129.516 16.651 128.463 16.651C127.747 16.651 127.142 16.7767 126.652 17.0256C126.162 17.277 125.756 17.6138 125.432 18.0387C125.104 18.4745 124.866 18.9715 124.732 19.5005C124.588 20.0639 124.516 20.6435 124.519 21.2251V29.4004C124.519 29.8373 124.345 30.2563 124.036 30.5652C123.727 30.874 123.308 31.0474 122.871 31.047H121.86C120.951 31.047 120.214 30.3098 120.214 29.4004V14.6989C120.214 13.7902 120.951 13.0523 121.86 13.0523H122.656C123.565 13.0523 124.302 13.7902 124.302 14.6989V15.8641C124.774 14.9799 125.428 14.2064 126.222 13.5953C127.07 12.9329 128.212 12.6023 129.647 12.6023C132.35 12.6023 134.142 13.7147 135.027 15.9383C135.649 14.7894 136.426 13.946 137.359 13.408C138.291 12.8713 139.402 12.6023 140.695 12.6023ZM89.0446 12.6023C89.3073 12.6023 89.565 12.6275 89.8151 12.6777C90.2635 12.7665 90.5866 13.1597 90.5869 13.6167V16.0854C90.587 16.3517 90.469 16.6045 90.2646 16.7753C90.0603 16.9462 89.7907 17.0176 89.5285 16.9703C89.1914 16.9085 88.8494 16.8769 88.5066 16.876C87.5011 16.876 86.6953 17.0696 86.0857 17.4567C85.4761 17.8451 85.0098 18.2876 84.6867 18.7891C84.3823 19.2453 84.1634 19.7529 84.0406 20.2874C83.9325 20.7877 83.8797 21.1623 83.8797 21.4124V29.4004C83.8797 30.3098 83.1425 31.047 82.2331 31.047H81.2225C80.3131 31.047 79.5759 30.3098 79.5759 29.4004V14.6989C79.5759 13.7902 80.3125 13.0523 81.2225 13.0523H82.4543C83.2412 13.0523 83.8797 13.6896 83.8797 14.4765V15.8302C83.8797 15.8692 83.9112 15.9019 83.9514 15.9019C84.429 14.851 85.1103 14.039 85.9952 13.4646C86.8801 12.8902 87.897 12.6023 89.0446 12.6023ZM96.7951 13.0523C97.7038 13.0523 98.4417 13.7902 98.4417 14.6989V29.4004C98.4417 30.3098 97.7045 31.047 96.7951 31.047H95.7844C94.875 31.047 94.1378 30.3098 94.1378 29.4004V14.6989C94.1378 13.7902 94.8744 13.0523 95.7844 13.0523H96.7951ZM16.2727 7.07042C16.3855 7.07097 16.4872 7.13853 16.5314 7.24233C16.5757 7.34612 16.5541 7.46628 16.4763 7.54807L12.1259 12.1109C11.8243 12.4125 11.6068 12.7645 11.4698 13.1416C11.3492 13.4609 11.2875 13.7995 11.2875 14.1408V27.6029C11.2864 27.7165 11.2175 27.8183 11.1126 27.8616C11.0076 27.9049 10.887 27.8813 10.8061 27.8015L7.46762 24.453C7.20339 24.1876 7.05514 23.8282 7.05534 23.4537V12.7268C7.05534 9.60321 9.58184 7.07042 12.6991 7.07042H16.2727ZM65.6588 16.651C64.8694 16.651 64.163 16.8018 63.5421 17.101C62.935 17.3897 62.3921 17.7975 61.9457 18.3001C61.5012 18.8036 61.16 19.3896 60.9414 20.0247C60.7146 20.6752 60.5999 21.3595 60.602 22.0484C60.602 22.7498 60.7151 23.4235 60.9414 24.0734C61.1689 24.7232 61.5033 25.2989 61.947 25.7979C62.3932 26.3011 62.9361 26.7093 63.5433 26.9983C64.1643 27.2975 64.8694 27.4483 65.6588 27.4483C66.4482 27.4483 67.1533 27.2975 67.7743 26.9983C68.3815 26.7093 68.9244 26.3011 69.3706 25.7979C69.8131 25.2989 70.1474 24.7232 70.3762 24.0734C70.6024 23.4235 70.7156 22.7498 70.7156 22.0497C70.7156 21.3495 70.6024 20.6746 70.3762 20.026C70.1574 19.3903 69.8157 18.8039 69.3706 18.3001C68.9242 17.7975 68.3814 17.3897 67.7743 17.101C67.1533 16.8006 66.4482 16.651 65.6588 16.651ZM39.3782 1.51087C41.1968 2.4763 42.6832 3.96618 43.6443 5.78706C44.6148 7.60542 45.138 9.40911 45.1524 14.2934L45.1527 23.3569C45.1527 23.4712 45.0837 23.5742 44.9781 23.618C44.8724 23.6617 44.7509 23.6376 44.67 23.5568V23.5555L41.3328 20.212C41.0678 19.9465 40.919 19.5866 40.9192 19.2114V15.1188C40.9192 11.3366 40.5258 9.96521 39.7879 8.58255C39.0668 7.21704 37.9518 6.09986 36.5877 5.37604C35.2088 4.63568 33.84 4.24226 30.0666 4.24226H24.6679C24.5538 4.24165 24.4513 4.17256 24.4079 4.06706C24.3645 3.96155 24.3887 3.8403 24.4693 3.75958L27.8066 0.414798C28.0705 0.149579 28.43 0 28.8046 0H30.6812C35.7129 0 37.538 0.525411 39.3782 1.51087ZM23.3066 0C23.4207 0.000605825 23.5233 0.0696962 23.5667 0.175199C23.6101 0.280702 23.5859 0.401956 23.5052 0.482674L20.168 3.82746C19.9028 4.09268 19.5445 4.24226 19.17 4.24226H15.0861C11.3127 4.24226 9.94384 4.63568 8.5637 5.37604C7.1996 6.09986 6.08461 7.21704 5.36347 8.58255C4.62563 9.96521 4.2322 11.3366 4.2322 15.1188V20.5287C4.2316 20.6425 4.16289 20.7448 4.05782 20.7885C3.95275 20.8321 3.83178 20.8085 3.75078 20.7286L0.414798 17.3838C0.149339 17.1185 0 16.7586 0 16.3833V14.5016C0 9.45992 0.524154 7.63103 1.50836 5.78706C2.4695 3.96618 3.95588 2.4763 5.77449 1.51087C7.58913 0.539098 9.3891 0.0146835 14.2624 0.000303882L23.3066 0ZM32.4536 7.07042C35.5708 7.07042 38.0973 9.60321 38.0973 12.7268V16.3079C38.0968 16.4207 38.0292 16.5224 37.9254 16.5666C37.8216 16.6109 37.7015 16.5893 37.6197 16.5115L33.0695 12.1523C32.7678 11.8507 32.4159 11.6319 32.04 11.4949C31.7212 11.3741 31.383 11.3124 31.042 11.3127H17.6101C17.4958 11.3126 17.3927 11.2437 17.349 11.1381C17.3053 11.0324 17.3294 10.9109 17.4102 10.83L20.7525 7.48397C21.0164 7.22 21.3747 7.07042 21.7493 7.07042H32.4536ZM96.2533 4.24226C97.0427 4.24226 97.7064 4.49868 98.2443 5.01026C98.7823 5.5231 99.0513 6.16667 99.0513 6.94096C99.0513 7.71651 98.7823 8.36007 98.2443 8.87166C97.7064 9.3845 97.0427 9.64092 96.2533 9.64092C95.4652 9.64092 94.8128 9.37193 94.2987 8.8352C93.7988 8.33233 93.5212 7.65004 93.5282 6.94096C93.5282 6.21695 93.7846 5.58595 94.2987 5.04797C94.8141 4.51125 95.4652 4.24226 96.2533 4.24226ZM154.324 4.24226C155.113 4.24226 155.777 4.49868 156.315 5.01026C156.853 5.5231 157.122 6.16667 157.122 6.94096C157.122 7.71651 156.853 8.36007 156.315 8.87166C155.777 9.3845 155.113 9.64092 154.324 9.64092C153.534 9.64092 152.883 9.37193 152.369 8.8352C151.869 8.33254 151.591 7.65022 151.597 6.94096C151.597 6.21695 151.855 5.58595 152.369 5.04797C152.883 4.51125 153.534 4.24226 154.324 4.24226Z" fill="#64748B"/>
</g>
<defs>
<clipPath id="clip0_46_744">
<rect width="176" height="45.375" fill="white"/>
</clipPath>
</defs>
</svg>
