<svg width="176" height="41" viewBox="0 0 176 41" fill="none" xmlns="http://www.w3.org/2000/svg">
<g clip-path="url(#clip0_46_756)">
<path d="M43.0669 14.7212L30.5609 2.2152C29.862 1.5131 29.0313 0.95599 28.1165 0.575841C27.2017 0.195693 26.2207 0 25.2301 0C24.2395 0 23.2586 0.195693 22.3438 0.575841C21.429 0.95599 20.5982 1.5131 19.8994 2.2152L14.3341 7.80717C17.2434 8.27125 19.8921 9.75741 21.8042 11.9988C23.7164 14.2401 24.7668 17.0897 24.7668 20.0359C24.7668 22.9821 23.7164 25.8318 21.8042 28.0731C19.8921 30.3145 17.2434 31.8006 14.3341 32.2648L19.926 37.862C20.6249 38.5641 21.4556 39.1212 22.3704 39.5014C23.2852 39.8815 24.2661 40.0772 25.2567 40.0772C26.2474 40.0772 27.2283 39.8815 28.1431 39.5014C29.0579 39.1212 29.8886 38.5641 30.5875 37.862L43.0669 25.3507C44.475 23.9405 45.266 22.0289 45.266 20.0359C45.266 18.043 44.475 16.1315 43.0669 14.7212ZM14.1634 7.97768L14.3339 7.80709C12.5651 7.52495 10.7562 7.62988 9.03183 8.11466C7.30749 8.59946 5.70885 9.45253 4.34618 10.6151C2.98351 11.7776 1.88926 13.2219 1.13892 14.8484C0.388576 16.4748 0 18.2446 0 20.0359C0 21.8271 0.388576 23.5969 1.13892 25.2233C1.88926 26.8498 2.98351 28.2941 4.34618 29.4567C5.70885 30.6191 7.30749 31.4722 9.03183 31.957C10.7562 32.4418 12.5651 32.5468 14.3339 32.2646L14.1634 32.0941C10.9667 28.8952 9.17103 24.5582 9.17103 20.0359C9.17103 15.5136 10.9667 11.1764 14.1634 7.97768Z" fill="#64748B"/>
<path d="M81.9333 13.591H85.9901V29.7485H81.9333V27.7708C81.1466 28.5659 80.2052 29.1912 79.1673 29.6084C78.1294 30.0255 77.0171 30.2256 75.899 30.1963C73.758 30.2081 71.6904 29.4169 70.1044 27.9787C68.3986 26.5127 67.5456 24.3964 67.5456 21.6724C67.5456 18.9484 68.3986 16.8747 70.1044 15.3661C71.689 13.9257 73.7576 13.1341 75.899 13.1485C77.0159 13.1248 78.1262 13.3268 79.1631 13.7427C80.2001 14.1586 81.1424 14.7796 81.9333 15.5687V13.591ZM76.8212 26.3049C78.1609 26.3829 79.479 25.9398 80.4994 25.0681C80.9598 24.6381 81.3227 24.1144 81.5635 23.5323C81.8045 22.9503 81.9178 22.3233 81.896 21.6937C81.922 21.0605 81.8106 20.4291 81.5695 19.8429C81.3285 19.2568 80.9634 18.7298 80.4994 18.298C79.4461 17.4793 78.1499 17.0349 76.8159 17.0349C75.4817 17.0349 74.1856 17.4793 73.1322 18.298C72.6583 18.719 72.2842 19.2403 72.037 19.8239C71.79 20.4077 71.676 21.0392 71.7036 21.6724C71.6765 22.3092 71.791 22.9442 72.039 23.5314C72.287 24.1187 72.6623 24.6435 73.1376 25.0681C74.1593 25.9411 75.4796 26.3843 76.8212 26.3049ZM104.802 15.3661C106.476 16.8641 107.329 18.975 107.329 21.6724C107.329 24.3697 106.476 26.5127 104.802 27.9786C103.201 29.4127 101.125 30.2027 98.9758 30.1963C97.8651 30.2305 96.7592 30.0362 95.7266 29.6253C94.6941 29.2145 93.757 28.596 92.9733 27.8081V35.4257H88.9166V13.5696H92.9733V15.51C93.7591 14.7253 94.6967 14.1094 95.7288 13.6996C96.761 13.2899 97.8658 13.0951 98.9758 13.1272C101.129 13.1245 103.205 13.9225 104.802 15.3661ZM98.0536 26.3047C99.4124 26.3771 100.747 25.9269 101.785 25.0468C102.247 24.6176 102.61 24.0941 102.851 23.5117C103.092 22.9295 103.205 22.3021 103.182 21.6724C103.206 21.0424 103.094 20.4148 102.853 19.8324C102.612 19.2499 102.247 18.7264 101.785 18.298C100.748 17.4158 99.4131 16.9638 98.0536 17.0346C96.7047 16.9596 95.3798 17.4128 94.3593 18.298C93.8982 18.7274 93.5347 19.2509 93.2937 19.8332C93.0527 20.4154 92.9398 21.0427 92.9626 21.6724C92.9378 22.3055 93.0497 22.9365 93.2907 23.5225C93.5317 24.1085 93.8962 24.6356 94.3593 25.0681C95.3839 25.9436 96.7084 26.3871 98.0536 26.3047ZM112.239 28.1495C111.245 27.3871 110.447 26.3981 109.913 25.2649C109.379 24.1316 109.124 22.8872 109.168 21.6352C109.133 20.3938 109.388 19.1612 109.915 18.0364C110.442 16.9117 111.225 15.9259 112.202 15.1584C114.017 13.844 116.203 13.1403 118.443 13.1487C121.27 13.1487 124.164 14.2788 125.907 16.4058C125.907 16.4324 122.938 19.3804 122.938 19.375C122.451 18.6339 121.781 18.0299 120.995 17.6202C120.209 17.2106 119.33 17.0091 118.443 17.0349C117.162 17.0218 115.912 17.4426 114.899 18.2289C114.373 18.6289 113.955 19.1526 113.68 19.7534C113.406 20.3542 113.284 21.0135 113.326 21.6726C113.285 22.3316 113.408 22.9906 113.682 23.5912C113.956 24.1918 114.374 24.7156 114.899 25.1162C115.912 25.9007 117.162 26.3196 118.443 26.305C120.251 26.305 122.122 25.4575 122.975 23.9222L125.944 26.8914L125.912 26.934C125.129 27.9065 124.12 28.6746 122.975 29.173C121.559 29.8454 120.011 30.1949 118.443 30.1965C116.209 30.2038 114.031 29.4855 112.239 28.1495ZM141.366 13.591H145.423V29.7485H141.366V27.7708C140.579 28.5653 139.637 29.1904 138.6 29.6074C137.561 30.0246 136.45 30.225 135.331 30.1963C133.193 30.2068 131.127 29.4156 129.542 27.9787C127.837 26.5127 126.983 24.3964 126.983 21.6724C126.983 18.9484 127.837 16.8747 129.542 15.3661C131.127 13.9257 133.195 13.1341 135.337 13.1485C136.453 13.1248 137.564 13.3268 138.601 13.7427C139.639 14.1586 140.58 14.7796 141.372 15.5687L141.366 13.591ZM136.254 26.3049C137.596 26.3787 138.916 25.9276 139.931 25.0468C140.395 24.6179 140.758 24.0946 141 23.5123C141.242 22.93 141.356 22.3025 141.334 21.6724C141.357 21.0422 141.244 20.4143 141.002 19.8319C140.76 19.2495 140.395 18.7263 139.931 18.298C138.88 17.4789 137.585 17.0342 136.251 17.0342C134.918 17.0342 133.622 17.4789 132.57 18.298C132.098 18.7204 131.725 19.2419 131.478 19.8253C131.232 20.4086 131.116 21.0394 131.141 21.6724C131.113 22.3089 131.227 22.9436 131.475 23.5307C131.721 24.1178 132.095 24.6429 132.57 25.0681C133.592 25.9411 134.912 26.3843 136.254 26.3049ZM152.406 16.0805C154.213 14.1347 156.532 13.5483 159.294 13.5483V17.3652C156.293 17.3652 152.406 18.6019 152.406 22.456V29.7485H148.349V13.591H152.406V16.0805ZM64.4431 25.0682C64.3272 25.4521 64.0828 25.7847 63.7508 26.0098C63.4189 26.2349 63.0197 26.3391 62.62 26.305C61.4313 26.305 60.6796 25.5214 60.6796 24.1247V17.4771H65.8611V13.591H60.6796V8.1377L56.6229 10.5579V13.591H52.6089V17.4771H56.5962V24.6684C56.5668 25.4188 56.7045 26.1663 56.9996 26.8568C57.2946 27.5474 57.7395 28.1637 58.3021 28.6612C59.4839 29.7057 61.0224 30.2554 62.5987 30.1964C63.4844 30.2183 64.364 30.0437 65.1742 29.6852C65.9844 29.3267 66.705 28.793 67.2844 28.1228L67.3644 28.0321C67.3644 28.0321 64.4484 25.0682 64.4431 25.0682ZM173.063 25.0682C172.949 25.4522 172.706 25.7852 172.374 26.0105C172.043 26.236 171.644 26.3399 171.245 26.305C170.051 26.305 169.3 25.5214 169.3 24.1247V17.4771H174.481V13.591H169.3V8.1377H169.273L165.216 10.5579V13.591H161.228V17.4771H165.216V24.6684C165.186 25.4188 165.324 26.1663 165.619 26.8568C165.914 27.5474 166.359 28.1637 166.922 28.6612C168.104 29.7057 169.642 30.2554 171.218 30.1964H171.245C172.129 30.2168 173.006 30.0414 173.814 29.6829C174.623 29.3244 175.341 28.7916 175.92 28.1228L176 28.0321C176 28.0321 173.073 25.0682 173.063 25.0682Z" fill="#64748B"/>
</g>
<defs>
<clipPath id="clip0_46_756">
<rect width="176" height="40.2188" fill="white"/>
</clipPath>
</defs>
</svg>
