<svg width="176" height="36" viewBox="0 0 176 36" fill="none" xmlns="http://www.w3.org/2000/svg">
<path d="M17.3876 0C26.9965 0 34.7751 7.77864 34.7751 17.3876C34.7751 26.9965 26.9965 34.7751 17.3876 34.7751C7.77864 34.7751 0 26.9965 0 17.3876C0 7.77864 7.77864 0 17.3876 0ZM19.5447 6.43862C18.8583 6.30789 18.172 6.24253 17.4529 6.24253C11.2758 6.24253 6.30789 11.2431 6.30789 17.3876C6.30789 21.7018 8.75915 25.4604 12.3543 27.2906C12.2563 28.0097 12.7138 28.7287 13.4329 28.9902C13.5963 29.0555 13.7924 29.0882 13.9558 29.0882C14.2173 29.0882 14.4787 29.0228 14.7075 28.8921C14.969 28.7614 15.1651 28.5653 15.3285 28.3038C15.383 28.2221 15.4374 28.1404 15.473 28.0398L15.4919 27.977L16.7666 24.2184L21.2115 11.5699L22.4862 7.81133C22.5188 7.71328 22.5515 7.58254 22.5515 7.45181C22.5842 7.09229 22.4862 6.76546 22.3227 6.47131C22.1266 6.14447 21.8325 5.88301 21.4403 5.75227C20.7213 5.52349 19.9369 5.81764 19.5447 6.43862ZM24.6106 8.92256L23.0745 13.5636C23.8262 14.6422 24.2511 15.9822 24.2511 17.3876C24.2511 20.3482 22.4133 22.8335 19.8297 23.814L19.7081 23.8589L18.172 28.4999C23.9569 28.075 28.4999 23.2706 28.5326 17.3876C28.5326 13.9885 26.9965 10.9489 24.6106 8.92256ZM152.991 9.60891C155.377 9.60891 157.567 10.4587 159.135 11.9621L156.913 14.4461C155.998 13.3348 154.69 12.7138 153.285 12.7138C152.468 12.7138 151.684 12.9099 150.997 13.3021C150.213 13.727 149.559 14.348 149.134 15.1978C149.126 15.2141 149.118 15.2325 149.11 15.2519L149.061 15.3724L149.036 15.4266C148.807 15.9168 148.677 16.4724 148.611 16.9954V17.8124C148.611 17.8778 148.644 17.9759 148.644 18.0412L148.677 18.2046C148.677 18.3027 148.709 18.4007 148.742 18.5315C148.807 18.7929 148.873 19.0217 148.971 19.2505C149.363 20.231 150.115 21.0481 151.03 21.5057L151.095 21.5383L151.128 21.571C151.161 21.6037 151.193 21.6364 151.226 21.6364C151.88 21.9632 152.566 22.1266 153.285 22.1266C154.69 22.1266 156.03 21.473 156.88 20.3944L159.103 22.813V22.911C157.534 24.4145 155.377 25.2316 153.024 25.2316C148.219 25.2316 144.624 21.8652 144.624 17.4202C144.624 12.9753 148.219 9.60891 152.991 9.60891ZM168.156 9.54355C172.47 9.57623 176 13.1714 176 17.551V18.3681H164.071L164.103 18.6295C164.495 20.95 166.097 22.192 168.744 22.192C170.509 22.192 172.176 21.6364 173.712 20.5578C173.712 20.5252 173.745 20.5252 173.778 20.5578L175.608 22.7803C175.64 22.7803 175.64 22.813 175.608 22.8457C173.745 24.3164 171.196 25.1662 168.679 25.1662C163.384 25.1662 159.985 22.094 159.952 17.3549C159.952 15.1978 160.737 13.2041 162.142 11.7987C163.613 10.3279 165.705 9.54355 168.058 9.54355H168.156ZM100.959 9.54355C105.763 9.54355 109.391 12.8773 109.391 17.3549C109.391 21.7998 105.763 25.1662 100.959 25.1662C96.1545 25.1662 92.5593 21.7998 92.5593 17.3549C92.5593 12.9099 96.1872 9.54355 100.959 9.54355ZM77.9825 2.9415C78.0152 2.9415 78.0479 2.97419 78.0479 3.00687V12.5504L78.4728 12.0928C79.8128 10.524 81.7085 9.67428 83.8002 9.67428C87.7222 9.67428 90.7617 13.0407 90.7617 17.3222C90.7617 21.6364 87.7549 24.9047 83.8002 24.9047C81.545 24.9047 79.584 23.9896 78.244 22.3227L77.8191 21.8325V24.5125C77.8191 24.5452 77.7864 24.5779 77.7538 24.5779H74.2566C74.224 24.5779 74.1913 24.5452 74.1913 24.5125V3.00687C74.1913 2.97419 74.224 2.9415 74.2566 2.9415H77.9825ZM115.568 10.2299C115.601 10.2299 115.634 10.2626 115.634 10.2953V18.3354C115.634 18.7929 115.666 19.2178 115.797 19.61C116.222 20.7213 117.399 21.5057 118.641 21.5057C119.915 21.473 121.059 20.6886 121.484 19.5773C121.582 19.1851 121.648 18.7603 121.648 18.3027V10.2953C121.648 10.2626 121.68 10.2299 121.713 10.2299H125.439C125.471 10.2299 125.504 10.2626 125.504 10.2953V17.7798C125.373 20.6886 124.524 24.6106 118.641 24.6106C112.971 24.6106 111.948 21.5344 111.786 18.1507L111.777 17.9432V10.2953C111.777 10.2626 111.81 10.2299 111.843 10.2299H115.568ZM44.6455 10.2299C44.6782 10.2299 44.7109 10.2626 44.7109 10.2953V18.3354C44.7109 18.7929 44.7435 19.2178 44.8743 19.61C45.2992 20.7213 46.4758 21.5057 47.7177 21.5057C48.9924 21.473 50.1363 20.6886 50.5612 19.5773C50.6592 19.1851 50.7246 18.7603 50.7246 18.3027V10.2953C50.7246 10.2626 50.7573 10.2299 50.79 10.2299H54.5159C54.5486 10.2299 54.5812 10.2626 54.5812 10.2953V17.7798C54.4505 20.6886 53.6007 24.6106 47.7177 24.6106C41.9328 24.6106 40.985 21.4076 40.8542 17.9432V10.2953C40.8542 10.2626 40.8542 10.2299 40.9196 10.2299H44.6455ZM135.538 10.2299C141.092 10.2299 142.187 13.1818 142.382 16.483L142.393 16.6898C142.396 16.7588 142.399 16.828 142.401 16.8973V24.5125L138.643 24.5452C138.61 24.5452 138.578 24.5125 138.578 24.4798V16.4724C138.578 16.0149 138.545 15.59 138.414 15.1978C137.989 14.0865 136.813 13.3021 135.571 13.3021C134.296 13.3348 133.152 14.1192 132.727 15.2305C132.629 15.6227 132.564 16.0475 132.564 16.5051V24.5125C132.564 24.5452 132.531 24.5779 132.498 24.5779H128.773C128.74 24.5779 128.707 24.5452 128.707 24.5125V10.2953C128.707 10.2953 128.707 10.2626 128.74 10.2626H131.975C131.975 10.2626 132.008 10.2626 132.008 10.2953V10.8836L132.335 10.7528C133.25 10.3933 134.329 10.2299 135.538 10.2299ZM64.3863 10.2299C70.1712 10.2299 71.119 13.4329 71.2498 16.8973V24.5125C71.2498 24.5452 71.2171 24.5779 71.1844 24.5779V24.5452H67.4585C67.4258 24.5452 67.3931 24.5125 67.3931 24.4798V16.4724C67.3931 16.0149 67.3604 15.59 67.2297 15.1978C66.8048 14.0865 65.6282 13.3021 64.3863 13.3021C63.1116 13.3348 61.9677 14.1192 61.5428 15.2305C61.4448 15.6227 61.3794 16.0475 61.3794 16.5051V24.5125C61.3794 24.5452 61.3467 24.5779 61.314 24.5779H57.5881C57.5554 24.5779 57.5227 24.5452 57.5227 24.5125V10.2953C57.5227 10.2953 57.5228 10.2626 57.5554 10.2626H60.7911C60.8238 10.2626 60.8565 10.2626 60.8565 10.2953V10.8836L61.1833 10.7528C62.0984 10.3933 63.177 10.2299 64.3863 10.2299ZM17.3876 10.524C17.5444 10.524 17.7222 10.524 17.8875 10.5408L18.0085 10.5567L13.6943 23.1725C11.7987 21.9305 10.524 19.8061 10.524 17.3876C10.524 13.5963 13.5963 10.524 17.3876 10.524ZM100.959 12.7792C98.5077 12.7792 96.5794 14.7729 96.5794 17.3549C96.5794 19.9695 98.475 21.9305 100.959 21.9305C103.41 21.9305 105.371 19.9042 105.371 17.3549C105.371 14.8056 103.443 12.7792 100.959 12.7792ZM82.9831 12.9426C80.4992 12.9426 78.6035 14.8383 78.6035 17.3222C78.6035 19.7408 80.5318 21.6364 82.9831 21.6364C85.4344 21.6364 87.2973 19.7734 87.2973 17.2895C87.2973 14.7729 85.467 12.9426 82.9831 12.9426ZM168.058 12.5831C166.26 12.5831 164.953 13.5309 164.397 15.2631C164.332 15.4266 164.365 15.59 164.495 15.7207C164.594 15.8514 164.757 15.9495 164.92 15.9495H171.228C171.392 15.9495 171.555 15.8514 171.653 15.7207C171.751 15.59 171.784 15.4266 171.718 15.2631C171.13 13.5309 169.856 12.5831 168.058 12.5831Z" fill="#64748B"/>
</svg>
