<svg width="176" height="34" viewBox="0 0 176 34" fill="none" xmlns="http://www.w3.org/2000/svg">
<g clip-path="url(#clip0_46_721)">
<path d="M117.206 9.94213C124.733 9.94213 129.003 15.648 128.619 23.5672H110.863C111.375 26.9214 114.449 29.2871 117.85 28.9446C120.178 28.9994 122.431 28.1277 124.106 26.5239L127.208 29.861C124.774 32.3524 121.379 33.6873 117.885 33.5266C110.305 33.5266 105.408 28.5123 105.408 21.7344C105.337 18.6007 106.554 15.5733 108.779 13.3487C111.005 11.1242 114.047 9.89434 117.206 9.94213ZM35.9493 9.94213C43.4772 9.94213 47.7465 15.648 47.3632 23.5672H29.6238C30.1357 26.914 33.1989 29.2773 36.5941 28.9446C38.9215 28.9994 41.1743 28.1277 42.8499 26.5239L45.9517 29.861C43.5174 32.3524 40.1224 33.6873 36.6289 33.5266C29.0487 33.5266 24.1521 28.5123 24.1521 21.7344C24.0807 18.6007 25.2978 15.5733 27.5232 13.3487C29.7487 11.1242 32.7908 9.89434 35.9493 9.94213ZM150.593 14.1783L146.533 16.5299C145.395 14.8525 143.464 13.8781 141.427 13.9536C138.831 13.9536 137.507 15.2158 137.507 16.6682C137.507 18.1206 139.598 18.7431 142.891 19.4693C142.966 19.4855 143.041 19.502 143.116 19.5186L143.343 19.569C143.456 19.5945 143.57 19.6205 143.683 19.6471L143.911 19.701C143.987 19.7193 144.063 19.7378 144.139 19.7566L144.367 19.814L144.594 19.8733C147.813 20.7284 150.872 22.215 150.872 26.2126C150.872 29.3423 148.136 33.5439 141.654 33.5093C137.584 33.8056 133.701 31.7716 131.651 28.2702L136.025 25.936C137.202 28.0269 139.45 29.2985 141.863 29.2385C144.599 29.2385 146.01 27.838 146.01 26.2472C146.01 24.6565 143.362 24.034 140.486 23.4461C140.409 23.4299 140.331 23.4135 140.253 23.3968L140.02 23.3463C139.981 23.3377 139.942 23.3291 139.903 23.3205L139.67 23.2679C136.059 22.4401 132.592 21.0445 132.592 16.7028C132.592 13.1236 136.078 9.78651 141.41 9.78651C145.032 9.57021 148.507 11.2325 150.593 14.1783ZM100.825 0V33.0597H95.981V29.9474C94.1241 32.2285 91.3211 33.546 88.3659 33.5268C85.2678 33.5005 82.3117 32.2333 80.1689 30.0127C78.0262 27.7922 76.8787 24.8068 76.9869 21.7344C76.8535 18.6509 77.9981 15.6476 80.1543 13.4232C82.3105 11.1988 85.2904 9.94713 88.4008 9.95942C91.3197 9.93799 94.0972 11.2051 95.981 13.4176V0H100.825ZM20.0396 10.4954V14.9218L6.34297 28.7544H20.2836V33.1116H0V28.7025L13.6966 14.87H0.313663V10.4954H20.0396ZM159.637 0V21.6479L169.901 10.3744H175.791L166.886 20.0745L176 33.0597H170.546L163.471 23.0139L159.637 27.1809V33.077H154.793V0H159.637ZM62.5933 9.95942C68.3438 9.95942 73.1881 13.6769 73.1881 19.8324V33.0597H68.2044V20.4376C68.2044 16.7374 66.3921 14.5069 62.7327 14.5069C61.1321 14.3895 59.5618 14.9843 58.4473 16.1303C57.3328 17.2762 56.7895 18.8546 56.9648 20.4376V33.0597H52.0333V19.8324C52.0333 13.6769 56.8428 9.95942 62.5933 9.95942ZM89.0281 14.576C85.0438 14.576 81.8139 17.7809 81.8139 21.7344C81.8139 25.6878 85.0438 28.8927 89.0281 28.8927C93.0125 28.8927 96.2424 25.6878 96.2424 21.7344C96.2424 17.7809 93.0125 14.576 89.0281 14.576ZM110.845 19.7805L123.27 19.7978C123.101 16.6801 120.417 14.2882 117.275 14.455C114.051 14.2672 111.235 16.5992 110.845 19.7805ZM29.6238 19.7805L42.0135 19.7978C41.8355 16.687 39.1547 14.3053 36.019 14.4723C32.8138 14.3025 30.0216 16.6202 29.6238 19.7805Z" fill="#64748B"/>
</g>
<defs>
<clipPath id="clip0_46_721">
<rect width="176" height="33.7674" fill="white"/>
</clipPath>
</defs>
</svg>
