<svg width="130" height="34" viewBox="0 0 130 34" fill="none" xmlns="http://www.w3.org/2000/svg">
<g clip-path="url(#clip0_258_598)">
<path d="M14.2168 0H0V34L14.2168 0Z" fill="#CBD5E1"/>
<path d="M24.2196 0H38.4179V34L24.2196 0Z" fill="#CBD5E1"/>
<path d="M19.2182 12.5312L28.267 34.0001H22.3302L19.6257 27.1649H13.0035L19.2182 12.5312Z" fill="#CBD5E1"/>
<path d="M61.6115 21.6218L63.2879 26.4287C63.3435 26.5491 63.4268 26.6047 63.575 26.6047H66.7981C66.9741 26.6047 67.0019 26.5213 66.9741 26.3453L60.3149 7.84956C60.2871 7.70137 60.2593 7.67358 60.1111 7.67358H56.11C55.9989 7.67358 55.934 7.75694 55.934 7.87734C55.8785 8.84983 55.7951 9.14621 55.6747 9.43332L49.7379 26.3175C49.7101 26.5213 49.775 26.6047 49.9417 26.6047H52.8221C52.9981 26.6047 53.0814 26.5491 53.1463 26.3731L54.73 21.6218H61.6115ZM55.6469 18.4821C56.5175 15.8517 57.666 12.4804 58.1291 10.554H58.1569C58.7311 12.5731 60.0833 16.5742 60.6946 18.4821H55.6469Z" fill="#CBD5E1"/>
<path d="M75.535 26.8918C77.2669 26.8918 79.11 26.5769 80.9809 25.7711C81.1291 25.7156 81.1569 25.6507 81.1569 25.5118C81.1013 24.9931 81.0365 24.2429 81.0365 23.6687V6.25656C81.0365 6.14542 81.0365 6.08984 80.8976 6.08984H77.7578C77.6374 6.08984 77.5818 6.14542 77.5818 6.2936V12.1934C77.091 12.1378 76.7483 12.11 76.3408 12.11C71.2746 12.11 68.1626 15.4535 68.1626 19.6306C68.1626 24.4745 71.3579 26.8918 75.535 26.8918ZM77.5818 23.6687C77.0632 23.8354 76.4889 23.9003 75.9054 23.9003C73.6085 23.9003 71.7284 22.6036 71.7284 19.4546C71.7284 16.6668 73.6641 15.0182 76.2296 15.0182C76.7483 15.0182 77.2021 15.0738 77.5818 15.222V23.6687Z" fill="#CBD5E1"/>
<path d="M91.1733 12.1101C86.848 12.1101 84.1714 15.4258 84.1714 19.5195C84.1714 23.1779 86.3016 26.8919 91.1085 26.8919C95.1744 26.8919 98.027 23.9004 98.027 19.4269C98.027 15.4814 95.6097 12.1101 91.1733 12.1101ZM90.9973 15.0183C93.4424 15.0183 94.4797 17.1207 94.4797 19.5195C94.4797 22.4833 92.9516 23.9559 91.1733 23.9559C88.9783 23.9559 87.6816 22.1128 87.6816 19.4547C87.6816 16.7225 89.0616 15.0183 90.9973 15.0183Z" fill="#CBD5E1"/>
<path d="M101.273 6.08984C101.153 6.08984 101.069 6.14542 101.069 6.2936V26.0027C101.069 26.086 101.153 26.2342 101.273 26.262C102.653 26.688 104.098 26.8918 105.589 26.8918C109.859 26.8918 114.008 24.2429 114.008 18.9082C114.008 15.046 111.359 12.11 107.21 12.11C106.256 12.11 105.367 12.2582 104.589 12.5175L104.552 6.32139C104.552 6.11763 104.496 6.08984 104.292 6.08984H101.273ZM110.461 19.2601C110.461 22.4554 108.275 23.9558 105.913 23.9558C105.422 23.9558 104.987 23.928 104.589 23.8076V15.3979C105.043 15.222 105.589 15.0738 106.599 15.0738C108.877 15.0738 110.461 16.5186 110.461 19.2601Z" fill="#CBD5E1"/>
<path d="M125.725 20.2975C127.133 20.2975 128.291 20.2697 128.689 20.1771C128.837 20.1493 128.893 20.0938 128.921 19.9734C129.004 19.6585 129.041 19.0009 129.041 18.1951C129.041 15.4536 127.393 12.1101 123.132 12.1101C118.779 12.1101 116.362 15.6574 116.362 19.6585C116.362 23.2057 118.233 26.8919 123.475 26.8919C125.438 26.8919 126.707 26.577 127.8 26.0583C127.911 26.0028 127.967 25.9102 127.967 25.7434V23.3446C127.967 23.2057 127.883 23.1779 127.8 23.2335C126.707 23.6966 125.522 23.9281 124.225 23.9281C121.289 23.9281 119.955 22.3073 119.872 20.2975H125.725ZM119.872 17.8154C120.104 16.4076 120.993 14.8794 122.984 14.8794C125.179 14.8794 125.753 16.7225 125.753 17.556C125.753 17.5838 125.753 17.7042 125.753 17.7876C125.633 17.8154 125.262 17.8154 124.169 17.8154H119.872Z" fill="#CBD5E1"/>
</g>
<defs>
<clipPath id="clip0_258_598">
<rect width="129.041" height="34" fill="white"/>
</clipPath>
</defs>
</svg>
