<svg width="237" height="36" viewBox="0 0 237 36" fill="none" xmlns="http://www.w3.org/2000/svg">
<path d="M23.3565 23.097L11.6782 11.5485L23.3565 0H11.6782L0 11.5485L5.83912 17.3876L11.6782 23.097L17.5174 28.8063L23.3565 23.097Z" fill="#CBD5E1"/>
<path d="M31.661 17.3876L25.8219 11.5485L19.9828 5.83911L14.2734 11.5485L25.8219 23.097L14.1437 34.6454H25.8219L31.661 28.9361L37.5002 23.097L31.661 17.3876Z" fill="#CBD5E1"/>
<path d="M52.0331 11.5484C50.3462 11.5484 48.9189 12.0675 47.8808 13.2353C46.8427 14.4031 46.3237 15.9602 46.3237 18.0363C46.3237 20.1125 46.8427 21.6696 47.751 22.8374C48.7891 24.0052 50.0867 24.5243 51.9033 24.5243C53.0711 24.5243 54.2389 24.2647 55.6663 23.8755V25.5623C54.4985 25.9516 53.2009 26.2111 51.6438 26.2111C49.3081 26.2111 47.4915 25.5623 46.1939 24.135C44.8963 22.7076 44.2476 20.6315 44.2476 18.0363C44.2476 16.3495 44.5071 14.9221 45.1559 13.7543C45.8047 12.5865 46.713 11.5484 47.751 10.8996C48.7891 10.2508 50.2164 9.86157 51.9033 9.86157C53.5902 9.86157 55.0175 10.1211 56.3151 10.7699L55.5365 12.327C54.4985 11.9377 53.3306 11.5484 52.0331 11.5484Z" fill="#CBD5E1"/>
<path d="M68.2529 21.7995C68.2529 23.2268 67.7338 24.2649 66.6958 25.0434C65.6577 25.822 64.3601 26.2112 62.5435 26.2112C60.5971 26.2112 59.1698 25.9517 58.1317 25.4327V23.6161C58.7805 23.8756 59.5591 24.1351 60.2078 24.2649C60.8566 24.3946 61.7649 24.5244 62.5435 24.5244C63.8411 24.5244 64.7494 24.2649 65.2684 23.8756C65.9172 23.3565 66.1767 22.7078 66.1767 21.9292C66.1767 21.4102 66.047 20.8911 65.7874 20.6316C65.5279 20.2424 65.1387 19.9828 64.6196 19.5936C64.1006 19.334 63.322 18.9448 62.284 18.5555C60.8566 18.0365 59.6888 17.3877 59.1698 16.6091C58.521 15.8306 58.2615 14.9223 58.2615 13.7544C58.2615 12.5866 58.7805 11.5485 59.6888 10.77C60.5971 9.99145 61.8947 9.73193 63.322 9.73193C64.8791 9.73193 66.3065 9.99145 67.7338 10.6402L67.2148 12.1973C65.9172 11.6783 64.6196 11.4188 63.322 11.4188C62.284 11.4188 61.6352 11.6783 60.9864 12.0676C60.4674 12.4569 60.2078 13.1056 60.2078 13.8842C60.2078 14.4032 60.3376 14.9223 60.4674 15.1818C60.7269 15.5711 60.9864 15.8306 61.5054 16.0901C62.0245 16.3496 62.6733 16.7389 63.7113 17.1282C65.3982 17.7769 66.566 18.4257 67.2148 19.0745C67.9933 19.8531 68.2529 20.7614 68.2529 21.7995Z" fill="#CBD5E1"/>
<path d="M80.5799 21.7995C80.5799 23.2268 80.0609 24.2649 79.0228 25.0434C77.9847 25.822 76.6871 26.2112 74.8705 26.2112C72.9241 26.2112 71.4968 25.9517 70.4587 25.4327V23.6161C71.1075 23.8756 71.8861 24.1351 72.5349 24.2649C73.1837 24.3946 74.092 24.5244 74.8705 24.5244C76.1681 24.5244 77.0764 24.2649 77.5954 23.8756C78.2442 23.3565 78.5038 22.7078 78.5038 21.9292C78.5038 21.4102 78.374 20.8911 78.1145 20.6316C77.855 20.2424 77.4657 19.9828 76.9467 19.5936C76.4276 19.334 75.6491 18.9448 74.611 18.5555C73.1837 18.0365 72.0158 17.3877 71.4968 16.6091C70.848 15.8306 70.5885 14.9223 70.5885 13.7544C70.5885 12.5866 71.1075 11.5485 72.0158 10.77C72.9241 9.99145 74.2217 9.73193 75.6491 9.73193C77.2062 9.73193 78.6335 9.99145 80.0609 10.6402L79.5418 12.1973C78.2442 11.6783 76.9467 11.4188 75.6491 11.4188C74.611 11.4188 73.9622 11.6783 73.3134 12.0676C72.7944 12.4569 72.5349 13.1056 72.5349 13.8842C72.5349 14.4032 72.6646 14.9223 72.7944 15.1818C73.0539 15.5711 73.3134 15.8306 73.8325 16.0901C74.3515 16.3496 75.0003 16.7389 76.0383 17.1282C77.7252 17.7769 78.893 18.4257 79.5418 19.0745C80.1906 19.8531 80.5799 20.7614 80.5799 21.7995Z" fill="#CBD5E1"/>
<path d="M96.7997 17.7768C96.7997 20.372 96.0211 22.4481 94.5938 23.8755C93.1664 25.3028 91.0903 26.0814 88.3654 26.0814H83.175V10.1211H88.6249C91.2201 10.1211 93.1664 10.7699 94.5938 12.0675C96.0211 13.365 96.7997 15.3114 96.7997 17.7768ZM92.3879 17.9066C92.3879 16.4792 92.1284 15.3114 91.4796 14.6626C90.9605 14.0138 90.0522 13.6246 88.8844 13.6246H87.5868V22.5779H88.4951C89.7927 22.5779 90.701 22.1886 91.3498 21.4101C92.1284 20.6315 92.3879 19.4637 92.3879 17.9066Z" fill="#CBD5E1"/>
<path d="M105.364 26.3409C103.288 26.3409 101.73 25.8219 100.563 24.6541C99.3948 23.616 98.8757 22.0589 98.8757 19.9828C98.8757 17.9067 99.3948 16.3496 100.433 15.1817C101.471 14.0139 103.028 13.4949 104.974 13.4949C106.791 13.4949 108.218 14.0139 109.256 14.9222C110.294 15.8305 110.813 17.2579 110.813 19.0745V21.0209H103.158C103.158 21.6696 103.417 22.1887 103.936 22.7077C104.455 23.097 105.104 23.3565 105.883 23.3565C106.661 23.3565 107.31 23.2267 107.959 23.097C108.608 22.9672 109.256 22.7077 110.035 22.3184V25.4326C109.386 25.8219 108.737 25.9517 107.959 26.0814C107.18 26.2112 106.402 26.3409 105.364 26.3409ZM105.104 16.4793C104.585 16.4793 104.196 16.6091 103.807 16.9983C103.417 17.2579 103.288 17.7769 103.158 18.4257H106.791C106.791 17.7769 106.661 17.3876 106.272 16.9983C106.142 16.6091 105.753 16.4793 105.104 16.4793Z" fill="#CBD5E1"/>
<path d="M122.751 22.3184C122.751 23.616 122.362 24.6541 121.454 25.3029C120.545 25.9517 119.248 26.3409 117.561 26.3409C116.653 26.3409 115.874 26.3409 115.225 26.2112C114.577 26.0814 113.798 25.9517 113.149 25.6922V22.3184C113.798 22.578 114.577 22.8375 115.355 23.097C116.134 23.2267 116.782 23.3565 117.431 23.3565C118.339 23.3565 118.859 23.097 118.859 22.7077C118.859 22.4482 118.729 22.3184 118.469 22.1887C118.21 22.0589 117.431 21.6696 116.263 21.1506C115.096 20.6316 114.317 20.1125 113.928 19.5935C113.538 18.9447 113.279 18.2959 113.279 17.3876C113.279 16.2198 113.668 15.3115 114.577 14.6627C115.485 14.0139 116.653 13.7544 118.34 13.7544C119.118 13.7544 119.897 13.8842 120.675 14.0139C121.454 14.1437 122.102 14.4032 122.881 14.7925L121.713 17.5174C121.194 17.2579 120.545 16.9984 119.897 16.8686C119.248 16.7388 118.729 16.6091 118.34 16.6091C117.691 16.6091 117.301 16.7388 117.301 17.1281C117.301 17.3876 117.431 17.5174 117.691 17.6471C117.95 17.7769 118.599 18.0364 119.767 18.5554C120.675 18.9447 121.324 19.2042 121.713 19.5935C122.102 19.9828 122.492 20.3721 122.622 20.7613C122.622 21.0209 122.751 21.6696 122.751 22.3184Z" fill="#CBD5E1"/>
<path d="M125.087 10.6402C125.087 9.99143 125.217 9.4724 125.606 9.21288C125.995 8.95336 126.514 8.69385 127.293 8.69385C128.071 8.69385 128.72 8.82361 128.98 9.21288C129.369 9.4724 129.499 9.99143 129.499 10.6402C129.499 11.9378 128.72 12.4568 127.163 12.4568C125.736 12.5866 125.087 11.9378 125.087 10.6402ZM129.369 26.0815H125.087V13.7544H129.369V26.0815Z" fill="#CBD5E1"/>
<path d="M144.032 13.7544V15.8305L142.345 16.4793C142.604 16.8686 142.734 17.3876 142.734 17.9067C142.734 19.2042 142.215 20.2423 141.307 21.0209C140.398 21.7994 138.971 22.0589 137.154 22.0589C136.635 22.0589 136.376 22.0589 136.116 21.9292C135.987 22.0589 135.987 22.3184 135.987 22.4482C135.987 22.7077 136.116 22.8375 136.506 22.9672C136.895 23.097 137.284 23.097 137.803 23.097H139.879C142.604 23.097 144.032 24.2648 144.032 26.6005C144.032 28.1576 143.383 29.3254 142.085 30.1039C140.788 30.8825 138.971 31.4015 136.635 31.4015C134.949 31.4015 133.521 31.142 132.613 30.4932C131.705 29.9742 131.186 29.0659 131.186 28.0278C131.186 26.6005 132.094 25.5624 133.91 25.1731C133.521 25.0434 133.262 24.7838 132.872 24.3946C132.613 24.0053 132.483 23.7458 132.483 23.3565C132.483 22.9672 132.613 22.578 132.743 22.3184C133.002 22.0589 133.391 21.6696 134.04 21.2804C133.391 21.0209 132.872 20.5018 132.483 19.9828C132.094 19.334 131.964 18.6852 131.964 17.7769C131.964 16.4793 132.483 15.4412 133.391 14.6627C134.3 13.8841 135.597 13.4949 137.284 13.4949C137.544 13.4949 137.933 13.4949 138.452 13.6246C138.971 13.6246 139.36 13.7544 139.62 13.7544H144.032ZM134.689 27.6385C134.689 28.0278 134.819 28.2873 135.208 28.5468C135.597 28.8063 136.116 28.8063 136.765 28.8063C137.803 28.8063 138.582 28.6766 139.231 28.4171C139.879 28.1576 140.139 27.7683 140.139 27.379C140.139 26.9897 140.009 26.86 139.62 26.7302C139.231 26.6005 138.712 26.4707 137.933 26.4707H136.246C135.727 26.4707 135.468 26.6005 135.078 26.7302C134.819 26.9897 134.689 27.2492 134.689 27.6385ZM135.987 17.7769C135.987 19.0745 136.376 19.7233 137.284 19.7233C137.673 19.7233 138.063 19.5935 138.192 19.2042C138.452 18.9447 138.582 18.4257 138.582 17.7769C138.582 16.4793 138.192 15.8305 137.284 15.8305C136.506 15.8305 135.987 16.4793 135.987 17.7769Z" fill="#CBD5E1"/>
<path d="M153.634 26.0814V19.334C153.634 18.5554 153.504 17.9067 153.244 17.5174C152.985 17.1281 152.596 16.8686 152.077 16.8686C151.298 16.8686 150.779 17.1281 150.52 17.7769C150.26 18.2959 150.001 19.334 150.001 20.7613V26.2112H145.719V13.8842H148.962L149.481 15.4413H149.741C150.13 14.9222 150.649 14.4032 151.298 14.1437C151.947 13.8842 152.725 13.7544 153.504 13.7544C154.931 13.7544 155.969 14.1437 156.748 14.9222C157.527 15.7008 157.916 16.8686 157.916 18.2959V26.3409H153.634V26.0814Z" fill="#CBD5E1"/>
<path d="M171.54 26.0814L169.594 21.0208H163.236L161.29 26.0814H159.473L165.831 10.1211H167.388L173.617 26.0814H171.54ZM168.945 19.3339L167.129 14.4031C166.869 13.7543 166.61 12.9758 166.35 12.0675C166.22 12.7163 165.961 13.4948 165.701 14.4031L163.885 19.3339H168.945Z" fill="#CBD5E1"/>
<path d="M185.165 26.0814L182.959 19.0745C182.829 18.6852 182.57 17.6472 182.181 16.2198H182.051C181.791 17.5174 181.532 18.4257 181.272 19.2043L179.066 26.2112H176.99L173.746 14.2734H175.693C176.471 17.2579 176.99 19.5935 177.509 21.1506C177.899 22.7077 178.158 23.7458 178.158 24.2648H178.288C178.418 23.8755 178.547 23.3565 178.677 22.7077C178.807 22.0589 179.066 21.5399 179.196 21.1506L181.402 14.2734H183.348L185.425 21.1506C185.814 22.4482 186.073 23.4863 186.203 24.2648H186.333C186.333 24.0053 186.463 23.616 186.592 23.097C186.722 22.578 187.501 19.5935 188.798 14.2734H190.615L187.371 26.2112H185.165V26.0814Z" fill="#CBD5E1"/>
<path d="M200.087 26.0816L199.698 24.3947H199.568C198.919 25.1732 198.4 25.6923 197.752 25.9518C197.103 26.2113 196.454 26.3411 195.546 26.3411C194.378 26.3411 193.47 26.0816 192.821 25.4328C192.172 24.784 191.783 24.0054 191.783 22.8376C191.783 20.3722 193.729 19.2044 197.622 19.0746L199.698 18.9448V18.1663C199.698 17.258 199.438 16.4794 199.049 16.0902C198.66 15.7009 198.011 15.4414 197.103 15.4414C196.065 15.4414 195.027 15.7009 193.729 16.3497L193.21 14.9223C193.859 14.6628 194.378 14.4033 195.156 14.1438C195.805 14.014 196.584 13.8843 197.233 13.8843C198.66 13.8843 199.698 14.1438 200.347 14.7926C200.996 15.4414 201.385 16.4794 201.385 17.777V25.9518H200.087V26.0816ZM195.935 24.784C197.103 24.784 197.881 24.5245 198.53 23.8757C199.179 23.2269 199.438 22.4483 199.438 21.2805V20.2424L197.622 20.3722C196.194 20.3722 195.156 20.6317 194.508 21.021C193.859 21.4103 193.599 22.059 193.599 22.8376C193.599 23.4864 193.859 24.0054 194.248 24.2649C194.767 24.6542 195.286 24.784 195.935 24.784Z" fill="#CBD5E1"/>
<path d="M210.598 13.8843C211.117 13.8843 211.636 13.8843 212.025 14.014L211.766 15.7009C211.246 15.5711 210.857 15.5711 210.468 15.5711C209.56 15.5711 208.651 15.9604 208.003 16.739C207.354 17.5175 206.964 18.5556 206.964 19.7234V26.0816H205.148V14.1438H206.575L206.835 16.3497H206.964C207.354 15.5711 208.003 14.9223 208.522 14.5331C209.17 14.1438 209.819 13.8843 210.598 13.8843Z" fill="#CBD5E1"/>
<path d="M222.406 24.5242C221.497 25.6921 220.2 26.3409 218.513 26.3409C216.956 26.3409 215.788 25.8218 214.88 24.7838C213.971 23.7457 213.582 22.1886 213.582 20.2422C213.582 18.2958 213.971 16.7387 214.88 15.7007C215.788 14.6626 216.956 14.0138 218.513 14.0138C220.07 14.0138 221.368 14.6626 222.276 15.8304H222.406L222.276 14.9221V14.1436V9.08301H224.092V26.0813H222.665L222.406 24.5242ZM218.772 24.7838C220.07 24.7838 220.848 24.3945 221.497 23.7457C222.016 23.0969 222.276 21.9291 222.276 20.5017V20.1125C222.276 18.4256 222.016 17.2578 221.368 16.4792C220.848 15.7007 219.94 15.4412 218.643 15.4412C217.605 15.4412 216.826 15.8304 216.177 16.7387C215.658 17.5173 215.269 18.6851 215.269 20.2422C215.269 21.7993 215.528 22.9671 216.047 23.7457C216.826 24.3945 217.605 24.7838 218.772 24.7838Z" fill="#CBD5E1"/>
<path d="M235.641 22.8376C235.641 24.0054 235.252 24.784 234.343 25.4328C233.565 26.0816 232.397 26.3411 230.84 26.3411C229.283 26.3411 227.985 26.0816 227.077 25.5625V23.8757C227.596 24.1352 228.245 24.3947 228.894 24.5245C229.542 24.6542 230.191 24.784 230.84 24.784C231.748 24.784 232.527 24.6542 233.046 24.3947C233.565 24.1352 233.824 23.6161 233.824 22.9674C233.824 22.4483 233.565 22.059 233.176 21.7995C232.786 21.4103 232.008 21.021 230.84 20.6317C229.672 20.2424 228.894 19.8532 228.504 19.5936C227.985 19.3341 227.726 18.9448 227.466 18.5556C227.207 18.1663 227.077 17.6473 227.077 17.1282C227.077 16.2199 227.466 15.4414 228.245 14.7926C229.023 14.1438 230.061 13.8843 231.489 13.8843C232.786 13.8843 234.084 14.1438 235.252 14.6628L234.603 16.0902C233.435 15.5711 232.267 15.3116 231.359 15.3116C230.451 15.3116 229.802 15.4414 229.413 15.7009C229.023 15.9604 228.764 16.3497 228.764 16.8687C228.764 17.1282 228.894 17.5175 229.023 17.6473C229.153 17.9068 229.413 18.0365 229.802 18.2961C230.191 18.5556 230.84 18.8151 231.878 19.2044C233.305 19.7234 234.214 20.2424 234.733 20.7615C235.381 21.4103 235.641 22.059 235.641 22.8376Z" fill="#CBD5E1"/>
</svg>
