<svg width="159" height="42" viewBox="0 0 159 42" fill="none" xmlns="http://www.w3.org/2000/svg">
<path d="M46.2119 13.5121H50.0639V29.1121H46.2119V13.5121ZM51.5999 23.2441C51.5999 19.3801 53.9999 17.0641 57.5999 17.0641C61.1999 17.0641 63.5999 19.3801 63.5999 23.2441C63.5999 27.1081 61.2839 29.4481 57.5999 29.4481C53.9159 29.4481 51.5999 27.1921 51.5999 23.2441ZM59.7839 23.2441C59.7839 21.1201 58.9559 19.8721 57.6359 19.8721C56.3159 19.8721 55.4999 21.0721 55.4999 23.2441C55.4999 25.4161 56.3159 26.6041 57.6359 26.6041C58.9559 26.6041 59.8079 25.4161 59.8079 23.2561L59.7839 23.2441ZM65.1359 29.9161H68.8559C69.0252 30.3165 69.321 30.6507 69.6981 30.8673C70.0751 31.084 70.5126 31.1714 70.9439 31.1161C72.4199 31.1161 73.1879 30.3241 73.1879 29.1481V26.9881H73.1999C72.882 27.6607 72.368 28.2212 71.7255 28.5961C71.0829 28.971 70.3419 29.1424 69.5999 29.0881C66.7799 29.0881 64.9079 26.9401 64.9079 23.2441C64.9079 19.5481 66.6959 17.2441 69.7079 17.2441C70.4688 17.2034 71.2238 17.3996 71.8684 17.8058C72.5132 18.212 73.0161 18.8082 73.3079 19.5121H73.1999V17.3401H77.0159V29.0281C77.0159 31.8481 74.5199 33.6121 70.8479 33.6121C67.5119 33.6001 65.3759 32.0761 65.1599 29.9281L65.1359 29.9161ZM73.1999 23.2441C73.1999 21.3601 72.3359 20.1721 70.9679 20.1721C69.5999 20.1721 68.7599 21.3721 68.7599 23.2441C68.7599 25.1161 69.5879 26.2201 70.9679 26.2201C72.3479 26.2201 73.1999 25.2001 73.1999 23.2441ZM78.5399 23.2441C78.5399 19.3801 80.9399 17.0641 84.5399 17.0641C88.1399 17.0641 90.5399 19.3801 90.5399 23.2441C90.5399 27.1081 88.2119 29.4481 84.5399 29.4481C80.8679 29.4481 78.5639 27.1921 78.5639 23.2441H78.5399ZM86.7239 23.2441C86.7239 21.1201 85.8839 19.8721 84.5759 19.8721C83.2679 19.8721 82.4399 21.0721 82.4399 23.2441C82.4399 25.4161 83.2559 26.6041 84.5759 26.6041C85.8959 26.6041 86.7479 25.4161 86.7479 23.2561L86.7239 23.2441ZM92.0999 14.4961C92.0831 14.1037 92.1842 13.7152 92.39 13.3808C92.5958 13.0462 92.897 12.781 93.2548 12.6192C93.6126 12.4572 94.0107 12.406 94.3978 12.4723C94.7849 12.5384 95.1434 12.7189 95.427 12.9904C95.7107 13.2621 95.9067 13.6123 95.9897 13.9962C96.0726 14.38 96.0389 14.78 95.8928 15.1444C95.7466 15.509 95.4947 15.8215 95.1695 16.0417C94.8443 16.2619 94.4607 16.3797 94.0679 16.3801C93.817 16.3864 93.5672 16.3429 93.3332 16.252C93.0992 16.1611 92.8854 16.0245 92.7046 15.8504C92.5238 15.6763 92.3793 15.468 92.2797 15.2374C92.18 15.007 92.127 14.7591 92.1239 14.5081L92.0999 14.4961ZM92.0999 17.3281H95.9999V29.1601H92.1599L92.0999 17.3281ZM110.028 23.2441C110.028 27.0961 108.3 29.3281 105.36 29.3281C104.607 29.3745 103.858 29.1888 103.215 28.7961C102.571 28.4034 102.063 27.8226 101.76 27.1321H101.688V32.9641H97.8359V17.3641H101.664V19.4761H101.736C102.029 18.772 102.532 18.1753 103.176 17.7673C103.82 17.3593 104.574 17.1598 105.336 17.1961C108.36 17.1721 110.1 19.3921 110.1 23.2561L110.028 23.2441ZM106.104 23.2441C106.104 21.3721 105.228 20.1601 103.872 20.1601C102.516 20.1601 101.664 21.3601 101.652 23.2441C101.64 25.1281 102.516 26.3161 103.872 26.3161C105.228 26.3161 106.176 25.2001 106.176 23.2561L106.104 23.2441ZM116.604 17.0521C119.832 17.0521 121.836 18.5761 121.86 21.0241H118.344C118.344 20.1721 117.636 19.6441 116.58 19.6441C115.524 19.6441 115.02 20.0521 115.02 20.6641C115.02 21.2761 115.464 21.4681 116.352 21.6481L118.824 22.1521C121.224 22.6561 122.184 23.6161 122.184 25.4041C122.184 27.8041 119.964 29.4361 116.664 29.4361C113.364 29.4361 111.216 27.8521 111.06 25.4401H114.792C114.9 26.3161 115.596 26.8321 116.724 26.8321C117.852 26.8321 118.38 26.4721 118.38 25.8361C118.38 25.2001 118.02 25.0921 117.096 24.9001L114.864 24.4321C112.548 23.9401 111.336 22.7281 111.336 20.9161C111.408 18.5641 113.424 17.0641 116.676 17.0641L116.604 17.0521ZM135.084 29.1481H131.352V26.9281H131.28C131.071 27.6686 130.616 28.3158 129.99 28.7629C129.364 29.2101 128.604 29.4306 127.836 29.3881C127.256 29.4069 126.678 29.303 126.142 29.0829C125.605 28.863 125.12 28.5319 124.721 28.1115C124.32 27.691 124.014 27.1908 123.821 26.6436C123.628 26.0964 123.552 25.5144 123.6 24.9361V17.3401H127.452V24.1081C127.452 25.5001 128.184 26.2561 129.384 26.2561C129.666 26.2539 129.943 26.1914 130.199 26.0728C130.454 25.9542 130.681 25.7821 130.864 25.5682C131.047 25.3544 131.183 25.1037 131.261 24.8332C131.338 24.5626 131.357 24.2786 131.316 24.0001V17.3401H135.156L135.084 29.1481ZM136.944 17.3281H140.688V19.6081H140.772C140.978 18.8776 141.422 18.2365 142.032 17.7848C142.643 17.3332 143.386 17.0966 144.144 17.1121C144.906 17.0458 145.666 17.2662 146.273 17.73C146.881 18.1938 147.294 18.8678 147.432 19.6201H147.6C147.84 18.8637 148.322 18.2078 148.974 17.7543C149.624 17.3007 150.408 17.075 151.2 17.1121C151.727 17.092 152.252 17.1835 152.741 17.3804C153.23 17.5772 153.672 17.8752 154.038 18.2547C154.404 18.6342 154.685 19.0867 154.864 19.5825C155.044 20.0784 155.116 20.6064 155.076 21.1321V29.1601H151.2V22.1161C151.2 20.9161 150.636 20.2441 149.544 20.2441C149.302 20.2401 149.062 20.2886 148.84 20.386C148.618 20.4836 148.421 20.628 148.26 20.8092C148.099 20.9905 147.979 21.2042 147.908 21.436C147.839 21.6679 147.82 21.9121 147.852 22.1521V29.1601H144.18V22.0801C144.18 20.8801 143.592 20.2441 142.536 20.2441C142.291 20.2422 142.049 20.2926 141.826 20.3919C141.601 20.4914 141.402 20.6374 141.239 20.8204C141.077 21.0034 140.956 21.2191 140.884 21.4528C140.81 21.6867 140.789 21.9333 140.82 22.1761V29.1601H136.968L136.944 17.3281Z" fill="#CBD5E1"/>
<path d="M38.5919 14.5321C38.592 12.1438 37.8708 9.81102 36.5227 7.83949C35.1747 5.86797 33.2625 4.34955 31.0368 3.48315C28.8112 2.61673 26.3757 2.44273 24.0495 2.98392C21.7231 3.52511 19.6146 4.75626 17.9999 6.51611H3.02393V38.1241H34.6439V23.3521C35.8849 22.2421 36.8781 20.8829 37.5583 19.3631C38.2386 17.8433 38.5908 16.1972 38.5919 14.5321ZM32.5079 14.5321C32.5103 15.6765 32.1731 16.796 31.539 17.7488C30.9048 18.7015 30.0024 19.4448 28.9457 19.8843C27.889 20.324 26.7257 20.4403 25.6029 20.2184C24.4801 19.9967 23.4484 19.4467 22.6383 18.6383C21.8281 17.8298 21.2761 16.7993 21.052 15.6769C20.8278 14.5547 20.9417 13.391 21.3791 12.3335C21.8165 11.2759 22.5579 10.3718 23.5092 9.73573C24.4607 9.09965 25.5795 8.76012 26.7239 8.76011C28.2558 8.76011 29.7252 9.36785 30.8095 10.45C31.894 11.5321 32.5048 13.0002 32.5079 14.5321ZM28.5599 32.0401H9.10793V12.6001H15.0359C14.9214 13.2379 14.8612 13.8842 14.8559 14.5321C14.8591 17.6788 16.1105 20.6955 18.3355 22.9206C20.5605 25.1455 23.5773 26.397 26.7239 26.4001C27.3391 26.3969 27.9531 26.3447 28.5599 26.2441V32.0401Z" fill="#CBD5E1"/>
</svg>
