<svg width="186" height="34" viewBox="0 0 186 34" fill="none" xmlns="http://www.w3.org/2000/svg">
<g clip-path="url(#clip0_258_622)">
<path d="M104.002 25.0952H107.965V10.1449H104.002V25.0952ZM104.002 7.81349H107.965V4.25806H104.002V7.81349Z" fill="#CBD5E1"/>
<path d="M110.52 29.9911H114.483V23.4048H114.541C115.386 24.6871 116.756 25.5323 118.854 25.5323C122.701 25.5323 125.324 22.4723 125.324 17.6346C125.324 12.9717 122.788 9.73682 118.825 9.73682C116.785 9.73682 115.386 10.6986 114.424 12.01H114.337V10.1448H110.52V29.9911ZM118.009 22.2391C115.648 22.2391 114.396 20.4614 114.396 17.7511C114.396 15.07 115.386 12.9426 117.864 12.9426C120.312 12.9426 121.302 14.9243 121.302 17.7511C121.302 20.578 120.02 22.2391 118.009 22.2391Z" fill="#CBD5E1"/>
<path d="M133.23 25.5323C136.961 25.5323 139.525 23.7254 139.525 20.7237C139.525 17.2266 136.757 16.5271 134.25 16.0026C132.122 15.5654 130.141 15.4488 130.141 14.1666C130.141 13.0883 131.161 12.5054 132.705 12.5054C134.396 12.5054 135.416 13.0883 135.59 14.6911H139.175C138.884 11.6894 136.698 9.73682 132.764 9.73682C129.354 9.73682 126.673 11.2814 126.673 14.5163C126.673 17.7803 129.296 18.5088 131.977 19.0334C134.017 19.4414 135.911 19.5871 135.911 21.0151C135.911 22.0643 134.921 22.7346 133.172 22.7346C131.394 22.7346 130.17 21.9768 129.908 20.2574H126.236C126.469 23.434 128.888 25.5323 133.23 25.5323Z" fill="#CBD5E1"/>
<path d="M154.572 25.0953V10.145H150.609V18.7713C150.609 20.753 149.472 22.1519 147.608 22.1519C145.917 22.1519 145.131 21.1902 145.131 19.4416V10.145H141.196V20.1119C141.196 23.3759 143.061 25.5033 146.384 25.5033C148.482 25.5033 149.648 24.7165 150.668 23.3468H150.755V25.0953H154.572Z" fill="#CBD5E1"/>
<path d="M157.136 25.0951H161.1V16.4106C161.1 14.4288 162.178 13.1466 163.781 13.1466C165.238 13.1466 166.083 14.0208 166.083 15.7111V25.0951H170.047V16.4106C170.047 14.4288 171.067 13.1466 172.728 13.1466C174.185 13.1466 175.03 14.0208 175.03 15.7111V25.0951H178.994V15.0408C178.994 11.7768 177.216 9.73682 174.068 9.73682C172.174 9.73682 170.6 10.7277 169.58 12.3597H169.522C168.794 10.786 167.278 9.73682 165.384 9.73682C163.315 9.73682 161.858 10.786 161.042 12.1557H160.954V10.1448H157.136V25.0951Z" fill="#CBD5E1"/>
<path d="M0.700562 25.0952H4.66399V4.25806H0.700562V25.0952Z" fill="#CBD5E1"/>
<path d="M14.3551 25.5323C18.9888 25.5323 22.1654 22.0934 22.1654 17.6346C22.1654 13.1757 18.9888 9.73682 14.3551 9.73682C9.72135 9.73682 6.5448 13.1757 6.5448 17.6346C6.5448 22.0934 9.72135 25.5323 14.3551 25.5323ZM14.3551 22.5014C11.9071 22.5014 10.5665 20.5488 10.5665 17.6346C10.5665 14.7203 11.9071 12.7386 14.3551 12.7386C16.774 12.7386 18.1437 14.7203 18.1437 17.6346C18.1437 20.5488 16.774 22.5014 14.3551 22.5014Z" fill="#CBD5E1"/>
<path d="M30.594 30.1951C32.8089 30.1951 34.7323 29.6706 35.9854 28.5048C37.0929 27.4848 37.7632 26.0568 37.7632 23.9586V10.1448H33.9455V11.7186H33.8872C32.9837 10.4654 31.614 9.73682 29.7489 9.73682C25.9603 9.73682 23.2792 12.5928 23.2792 17.0517C23.2792 21.5688 26.5432 24.1917 29.8655 24.1917C31.7597 24.1917 32.8963 23.434 33.7706 22.4431H33.858V24.0751C33.858 26.1151 32.7797 27.1934 30.5357 27.1934C28.6997 27.1934 27.8546 26.4648 27.534 25.5323H23.5997C24.0077 28.4466 26.514 30.1951 30.594 30.1951ZM30.5357 21.0151C28.4957 21.0151 27.1552 19.5288 27.1552 16.9934C27.1552 14.4871 28.4957 12.9134 30.5066 12.9134C32.8963 12.9134 34.062 14.7786 34.062 16.9643C34.062 19.1791 33.042 21.0151 30.5357 21.0151Z" fill="#CBD5E1"/>
<path d="M47.397 25.5323C52.0307 25.5323 55.2073 22.0934 55.2073 17.6346C55.2073 13.1757 52.0307 9.73682 47.397 9.73682C42.7633 9.73682 39.5867 13.1757 39.5867 17.6346C39.5867 22.0934 42.7633 25.5323 47.397 25.5323ZM47.397 22.5014C44.949 22.5014 43.6084 20.5488 43.6084 17.6346C43.6084 14.7203 44.949 12.7386 47.397 12.7386C49.8158 12.7386 51.1856 14.7203 51.1856 17.6346C51.1856 20.5488 49.8158 22.5014 47.397 22.5014Z" fill="#CBD5E1"/>
<path d="M180.434 7.69036C180.434 7.01973 180.978 6.47607 181.648 6.47607H184.077C184.747 6.47607 185.291 7.01973 185.291 7.69036C185.291 8.36099 184.747 8.90465 184.077 8.90465H181.648C180.978 8.90465 180.434 8.36099 180.434 7.69036Z" fill="#CBD5E1"/>
<path fill-rule="evenodd" clip-rule="evenodd" d="M79.2435 0C88.632 0 96.2438 7.61116 96.2438 17C96.2438 26.3888 88.632 34 79.2435 34C69.8547 34 62.2435 26.3888 62.2435 17C62.2435 7.61116 69.8547 0 79.2435 0ZM78.6291 1.2721C76.6896 1.54504 74.8429 3.10342 73.4094 5.70979C72.9936 6.46581 72.6184 7.30104 72.2915 8.20287C74.2407 7.71305 76.3819 7.42426 78.6291 7.37959V1.2721ZM70.8546 8.61118C71.2613 7.33514 71.7586 6.16114 72.3326 5.11755C73.0432 3.8255 73.8866 2.70976 74.8368 1.8528C69.6697 3.35345 65.597 7.42627 64.0963 12.5933C64.9532 11.6431 66.069 10.7998 67.361 10.0892C68.4047 9.51516 69.5786 9.01774 70.8546 8.61118ZM70.4464 10.0479C69.9565 11.9972 69.6678 14.1384 69.6231 16.3855H63.5156C63.7885 14.4461 65.3469 12.5994 67.9533 11.1659C68.7093 10.7501 69.5445 10.3749 70.4464 10.0479ZM70.8522 16.3855C70.903 13.9332 71.2561 11.6309 71.8402 9.59667C73.8744 9.01255 76.1767 8.65946 78.6291 8.60872V11.2632C77.7142 13.6053 75.8483 15.471 73.5061 16.3855H70.8522ZM69.6231 17.6145H63.5156C63.7885 19.5539 65.3469 21.4005 67.9533 22.8341C68.7093 23.2499 69.5445 23.6251 70.4464 23.9521C69.9565 22.0028 69.6678 19.8616 69.6231 17.6145ZM71.8402 24.4033C71.2561 22.3691 70.903 20.0668 70.8522 17.6145H73.5061C75.8483 18.529 77.7142 20.3947 78.6291 22.7368V25.3913C76.1767 25.3405 73.8744 24.9875 71.8402 24.4033ZM70.8546 25.3888C69.5786 24.9823 68.4047 24.4848 67.361 23.9108C66.069 23.2002 64.9532 22.3569 64.0963 21.4067C65.597 26.5737 69.6697 30.6466 74.8368 32.1472C73.8866 31.2902 73.0432 30.1745 72.3326 28.8824C71.7586 27.8389 71.2613 26.6648 70.8546 25.3888ZM78.6291 32.7279C76.6896 32.455 74.8429 30.8966 73.4094 28.2902C72.9936 27.5342 72.6184 26.6989 72.2915 25.7972C74.2407 26.2869 76.3819 26.5758 78.6291 26.6204V32.7279ZM83.6502 32.1472C84.6004 31.2902 85.4437 30.1745 86.1543 28.8824C86.728 27.8389 87.2261 26.6648 87.6324 25.3888C88.9083 24.9823 90.0821 24.4848 91.1259 23.9108C92.4179 23.2002 93.534 22.3569 94.3908 21.4067C92.8897 26.5737 88.8173 30.6466 83.6502 32.1472ZM86.1959 25.7972C85.8687 26.6989 85.493 27.5342 85.0773 28.2902C83.6441 30.8966 81.7974 32.455 79.8579 32.7279V26.6204C82.1051 26.5758 84.2463 26.2869 86.1959 25.7972ZM88.0404 23.9521C88.9423 23.6251 89.7778 23.2499 90.5335 22.8341C93.1404 21.4006 94.6985 19.5539 94.9713 17.6145H88.8641C88.819 19.8616 88.53 22.0028 88.0404 23.9521ZM87.635 17.6145C87.584 20.0668 87.2312 22.3691 86.6464 24.4033C84.6126 24.9875 82.3102 25.3405 79.8579 25.3913V22.7388C80.7725 20.3958 82.6389 18.5292 84.9816 17.6145H87.635ZM88.8641 16.3855H94.9713C94.6985 14.4461 93.1404 12.5994 90.5335 11.1659C89.7778 10.7501 88.9423 10.3749 88.0404 10.0479C88.53 11.9972 88.819 14.1384 88.8641 16.3855ZM86.6464 9.59667C87.2312 11.6309 87.584 13.9332 87.635 16.3855H84.9817C82.6389 15.4708 80.7725 13.6042 79.8579 11.2612V8.60872C82.3102 8.65946 84.6126 9.01255 86.6464 9.59667ZM87.6324 8.61118C88.9083 9.01774 90.0821 9.51516 91.1259 10.0892C92.4179 10.7998 93.534 11.6431 94.3908 12.5933C92.8897 7.42627 88.8173 3.35345 83.6502 1.8528C84.6004 2.70976 85.4437 3.8255 86.1543 5.11755C86.728 6.16114 87.2261 7.33514 87.6324 8.61118ZM79.8579 1.2721C81.7974 1.54504 83.6441 3.10342 85.0773 5.70979C85.493 6.46581 85.8687 7.30104 86.1959 8.20287C84.2463 7.71305 82.1051 7.42426 79.8579 7.37959V1.2721Z" fill="#CBD5E1"/>
</g>
<defs>
<clipPath id="clip0_258_622">
<rect width="185.3" height="34" fill="white"/>
</clipPath>
</defs>
</svg>
