<svg width="187" height="40" viewBox="0 0 187 40" fill="none" xmlns="http://www.w3.org/2000/svg">
<path d="M29.892 17.828C29.3867 18.3364 28.9997 18.95 28.7587 19.6249C28.5176 20.3 28.4284 21.0199 28.4973 21.7333L28.4733 21.7093C28.5443 22.5492 28.4309 23.3943 28.1415 24.1859C27.852 24.9773 27.3933 25.6961 26.7975 26.2921C26.2015 26.888 25.4826 27.3468 24.691 27.6361C23.8996 27.9256 23.0544 28.0389 22.2147 27.968L22.2387 27.992C21.2341 27.8985 20.2252 28.1171 19.3493 28.618C18.4736 29.1189 17.7736 29.8777 17.3449 30.7911C16.9163 31.7044 16.7796 32.7276 16.9537 33.7215C17.128 34.7152 17.6044 35.6311 18.3181 36.3441C19.0319 37.0572 19.9481 37.5328 20.942 37.706C21.936 37.8793 22.9591 37.7417 23.872 37.3123C24.7849 36.8827 25.5431 36.1821 26.0432 35.3059C26.5433 34.4296 26.7611 33.4205 26.6667 32.416L26.692 32.44C26.621 31.6003 26.7343 30.7551 27.0237 29.9635C27.3132 29.172 27.772 28.4532 28.3679 27.8572C28.9639 27.2613 29.6827 26.8025 30.4741 26.5132C31.2657 26.2237 32.1108 26.1104 32.9506 26.1813L32.9253 26.1573C33.7459 26.2311 34.5719 26.0965 35.3267 25.7661C36.0813 25.4357 36.7405 24.9201 37.2429 24.2672C37.7453 23.6143 38.0749 22.8449 38.2008 22.0308C38.3268 21.2165 38.2452 20.3837 37.9636 19.6093C37.682 18.8351 37.2094 18.1444 36.5898 17.6013C35.9703 17.0583 35.2236 16.6804 34.4191 16.5028C33.6145 16.3252 32.7781 16.3535 31.9875 16.5851C31.1968 16.8168 30.4775 17.2443 29.896 17.828H29.892Z" fill="#CBD5E1"/>
<path d="M20.0559 24.8481L20.0305 24.8241C20.7443 24.8959 21.4651 24.8083 22.1409 24.5675C22.8167 24.3267 23.4305 23.9389 23.938 23.4318C24.4453 22.9247 24.8339 22.3111 25.0751 21.6355C25.3164 20.9599 25.4045 20.2393 25.3332 19.5254L25.3585 19.5494C25.2876 18.7095 25.4009 17.8645 25.6903 17.0729C25.9797 16.2814 26.4385 15.5626 27.0344 14.9666C27.6304 14.3707 28.3492 13.9119 29.1407 13.6226C29.9323 13.3331 30.7773 13.2198 31.6172 13.2907L31.5919 13.2667C32.5965 13.3611 33.6057 13.1432 34.482 12.6429C35.3584 12.1425 36.0589 11.384 36.4883 10.4709C36.9176 9.55773 37.0548 8.53436 36.8812 7.54034C36.7076 6.54633 36.2316 5.63009 35.518 4.91657C34.8045 4.20306 33.8883 3.72701 32.8943 3.55338C31.9003 3.37974 30.8769 3.51696 29.9637 3.94632C29.0505 4.37566 28.2921 5.07626 27.7917 5.95254C27.2913 6.82881 27.0735 7.8381 27.1679 8.84274L27.1439 8.81741C27.2149 9.65726 27.1019 10.5025 26.8125 11.2941C26.5232 12.0858 26.0644 12.8047 25.4685 13.4007C24.8725 13.9966 24.1536 14.4554 23.362 14.7447C22.5703 15.0341 21.7251 15.1471 20.8852 15.0761L20.9092 15.1014C20.1955 15.0295 19.4745 15.1171 18.7988 15.3579C18.1231 15.5986 17.5092 15.9866 17.0017 16.4937C16.4943 17.0007 16.1059 17.6143 15.8645 18.2899C15.6233 18.9655 15.5352 19.6862 15.6065 20.4001L15.5825 20.3761C15.6532 21.2158 15.5397 22.0609 15.2503 22.8523C14.9607 23.6437 14.502 24.3625 13.9061 24.9583C13.3102 25.5542 12.5915 26.0129 11.8001 26.3025C11.0087 26.5919 10.1636 26.7054 9.32388 26.6347L9.34788 26.6587C8.34324 26.5643 7.33395 26.7822 6.45767 27.2826C5.5814 27.783 4.8808 28.5414 4.45145 29.4546C4.02209 30.3678 3.88487 31.3911 4.05851 32.3851C4.23215 33.3791 4.7082 34.2954 5.42171 35.0089C6.13523 35.7225 7.05147 36.1985 8.04548 36.3721C9.03949 36.5457 10.0629 36.4085 10.976 35.9791C11.8892 35.5498 12.6477 34.8493 13.148 33.973C13.6484 33.0966 13.8663 32.0874 13.7719 31.0827L13.7972 31.1067C13.7263 30.2669 13.8396 29.4218 14.1291 28.6302C14.4184 27.8387 14.8772 27.1199 15.4731 26.5239C16.0691 25.9281 16.7879 25.4693 17.5793 25.1799C18.3709 24.8905 19.216 24.7771 20.0559 24.8481Z" fill="#CBD5E1"/>
<path d="M11.1201 22.1721C11.6255 21.6638 12.0124 21.0502 12.2532 20.3751C12.4941 19.7001 12.5829 18.9801 12.5135 18.2668L12.5388 18.2908C12.4678 17.4508 12.5811 16.6053 12.8707 15.8135C13.1603 15.0218 13.6193 14.3029 14.2156 13.7069C14.8119 13.1109 15.5309 12.6523 16.3228 12.363C17.1147 12.0737 17.9601 11.9608 18.8001 12.0321L18.7748 12.0081C19.7791 12.1022 20.788 11.8842 21.6639 11.3839C22.5397 10.8836 23.2398 10.1253 23.669 9.21239C24.0981 8.29951 24.2352 7.27651 24.0616 6.28287C23.888 5.28923 23.412 4.37334 22.6988 3.66008C21.9856 2.94683 21.0696 2.47094 20.076 2.29731C19.0824 2.12367 18.0593 2.26076 17.1465 2.68986C16.2336 3.11895 15.4753 3.81918 14.9751 4.69504C14.4747 5.57091 14.2567 6.57979 14.3508 7.58408L14.3268 7.56008C14.3977 8.39988 14.2844 9.24504 13.9949 10.0366C13.7055 10.8281 13.2468 11.5469 12.6509 12.1428C12.0549 12.7388 11.3361 13.1975 10.5446 13.4869C9.75307 13.7763 8.90792 13.8897 8.06812 13.8187L8.09212 13.8427C7.27154 13.7691 6.44567 13.9039 5.69103 14.2345C4.93639 14.565 4.27739 15.0807 3.77511 15.7338C3.27283 16.3867 2.94352 17.1561 2.81768 17.9702C2.69185 18.7845 2.77357 19.6173 3.05527 20.3914C3.33696 21.1657 3.80953 21.8562 4.42917 22.3991C5.04881 22.9422 5.79548 23.32 6.59999 23.4976C7.40448 23.675 8.24079 23.6466 9.03141 23.415C9.82202 23.1833 10.5414 22.7558 11.1228 22.1721H11.1201Z" fill="#CBD5E1"/>
<path d="M52.4226 8.87329H56.3826V28.144H52.4226V8.87329Z" fill="#CBD5E1"/>
<path d="M58.6254 21.5452C58.62 20.1604 59.0256 18.805 59.7909 17.6508C60.5562 16.4967 61.6469 15.5956 62.9248 15.0619C64.2026 14.528 65.6101 14.3855 66.969 14.6523C68.328 14.9191 69.5772 15.5831 70.5584 16.5604C71.5396 17.5376 72.2086 18.7842 72.4809 20.142C72.7532 21.4999 72.6162 22.908 72.0876 24.188C71.5589 25.4679 70.6622 26.5623 69.5112 27.3322C68.36 28.1022 67.0064 28.5132 65.6214 28.5132C64.7022 28.5238 63.7901 28.3508 62.9384 28.0047C62.0866 27.6586 61.3125 27.1462 60.6612 26.4975C60.0097 25.8487 59.4942 25.0766 59.1448 24.2263C58.7952 23.376 58.6186 22.4646 58.6254 21.5452ZM68.6574 21.5452C68.6409 20.9483 68.4488 20.3695 68.1052 19.8811C67.7614 19.3928 67.2814 19.0166 66.7252 18.7996C66.1688 18.5826 65.5609 18.5343 64.9773 18.661C64.3937 18.7876 63.8604 19.0834 63.444 19.5115C63.0277 19.9395 62.7466 20.4808 62.6364 21.0678C62.526 21.6546 62.5909 22.261 62.8233 22.8111C63.0557 23.3612 63.445 23.8306 63.9426 24.1606C64.4404 24.4906 65.0244 24.6666 65.6214 24.6666C66.0304 24.6775 66.4372 24.6035 66.8162 24.4494C67.1952 24.2952 67.5381 24.0643 67.8233 23.7711C68.1085 23.4778 68.33 23.1286 68.4734 22.7455C68.617 22.3624 68.6797 21.9538 68.6574 21.5452Z" fill="#CBD5E1"/>
<path d="M88.4 14.9452V27.4786C88.4 31.9132 84.9413 33.7879 81.4306 33.7879C80.1946 33.8804 78.9569 33.6307 77.8533 33.0663C76.7498 32.5018 75.823 31.6443 75.1746 30.5879L78.5533 28.6346C78.8258 29.1852 79.2601 29.6395 79.7978 29.9367C80.3357 30.2338 80.9514 30.3596 81.5626 30.2972C81.9533 30.3514 82.3512 30.317 82.7268 30.1966C83.1022 30.0762 83.446 29.8728 83.7324 29.6018C84.0188 29.3306 84.2405 28.9986 84.3813 28.63C84.522 28.2616 84.578 27.8663 84.5453 27.4732V26.2666C84.0816 26.8339 83.4914 27.2847 82.822 27.5827C82.1525 27.8807 81.4226 28.0176 80.6906 27.9826C78.949 27.9276 77.2972 27.1972 76.0846 25.9458C74.8721 24.6944 74.1941 23.0203 74.1941 21.2779C74.1941 19.5355 74.8721 17.8614 76.0846 16.61C77.2972 15.3586 78.949 14.6282 80.6906 14.5732C81.4226 14.5382 82.1525 14.6751 82.822 14.9731C83.4914 15.2711 84.0816 15.7219 84.5453 16.2892V14.9426L88.4 14.9452ZM84.5466 21.2799C84.5733 20.6418 84.4082 20.0102 84.0729 19.4666C83.7376 18.9228 83.2472 18.492 82.6649 18.2295C82.0826 17.9668 81.4352 17.8846 80.8057 17.9931C80.1762 18.1016 79.5937 18.396 79.1329 18.8386C78.6722 19.281 78.3545 19.8511 78.2205 20.4756C78.0866 21.1002 78.1426 21.7506 78.3816 22.343C78.6204 22.9354 79.031 23.4428 79.5606 23.7999C80.0902 24.157 80.7146 24.3474 81.3533 24.3466C81.7694 24.3756 82.1869 24.3172 82.579 24.1751C82.9712 24.033 83.3292 23.8102 83.63 23.5214C83.9308 23.2324 84.1678 22.8838 84.3257 22.4976C84.4836 22.1116 84.5589 21.6968 84.5466 21.2799Z" fill="#CBD5E1"/>
<path d="M90.6428 21.5452C90.6373 20.1604 91.0428 18.805 91.8082 17.6508C92.5736 16.4967 93.6642 15.5956 94.9421 15.0619C96.22 14.528 97.6274 14.3855 98.9864 14.6523C100.345 14.9191 101.594 15.5831 102.576 16.5604C103.557 17.5376 104.226 18.7842 104.498 20.142C104.77 21.4999 104.634 22.908 104.105 24.188C103.576 25.4679 102.68 26.5623 101.528 27.3322C100.377 28.1022 99.0237 28.5132 97.6388 28.5132C96.7196 28.5238 95.8073 28.3508 94.9557 28.0047C94.104 27.6586 93.3298 27.1462 92.6785 26.4975C92.027 25.8487 91.5116 25.0766 91.1621 24.2263C90.8125 23.376 90.636 22.4646 90.6428 21.5452ZM100.675 21.5452C100.658 20.9483 100.466 20.3695 100.122 19.8811C99.7788 19.3928 99.2988 19.0166 98.7425 18.7996C98.1861 18.5826 97.5781 18.5343 96.9946 18.661C96.411 18.7876 95.8777 19.0834 95.4613 19.5115C95.045 19.9395 94.764 20.4808 94.6536 21.0678C94.5432 21.6546 94.6082 22.261 94.8406 22.8111C95.073 23.3612 95.4624 23.8306 95.96 24.1606C96.4577 24.4906 97.0416 24.6666 97.6388 24.6666C98.0477 24.6775 98.4545 24.6035 98.8334 24.4494C99.2125 24.2952 99.5554 24.0643 99.8406 23.7711C100.126 23.4778 100.347 23.1286 100.491 22.7455C100.634 22.3624 100.697 21.9538 100.675 21.5452Z" fill="#CBD5E1"/>
<path d="M106.481 11.408C106.481 10.9381 106.621 10.4787 106.882 10.088C107.143 9.69723 107.514 9.39268 107.948 9.21285C108.382 9.03301 108.86 8.98596 109.321 9.07764C109.782 9.16932 110.205 9.39561 110.538 9.72791C110.87 10.0602 111.096 10.4835 111.188 10.9445C111.279 11.4053 111.232 11.8831 111.053 12.3172C110.873 12.7514 110.568 13.1225 110.177 13.3836C109.787 13.6447 109.327 13.784 108.857 13.784C108.229 13.7777 107.629 13.5255 107.184 13.0812C106.74 12.6369 106.488 12.0362 106.481 11.408ZM106.881 14.9453H110.843V28.1453H106.876L106.881 14.9453Z" fill="#CBD5E1"/>
<path d="M127.941 21.5453C127.987 22.4177 127.86 23.2905 127.567 24.1136C127.275 24.9366 126.822 25.6937 126.236 26.3413C125.649 26.9888 124.941 27.5141 124.151 27.8869C123.361 28.2596 122.505 28.4725 121.632 28.5133C120.898 28.5533 120.165 28.4296 119.485 28.151C118.804 27.8724 118.195 27.446 117.7 26.9026V33.424H113.74V14.9453H117.7V16.1853C118.195 15.6424 118.805 15.2162 119.485 14.938C120.165 14.6596 120.898 14.536 121.632 14.576C122.505 14.6166 123.361 14.8294 124.151 15.2022C124.941 15.575 125.65 16.1004 126.237 16.7481C126.823 17.3958 127.275 18.1532 127.568 18.9765C127.861 19.7997 127.987 20.6728 127.941 21.5453ZM123.981 21.5453C123.966 20.9276 123.769 20.3281 123.414 19.8218C123.059 19.3157 122.564 18.9253 121.988 18.6997C121.413 18.474 120.784 18.4229 120.18 18.553C119.576 18.683 119.023 18.9884 118.592 19.4308C118.161 19.8733 117.869 20.433 117.754 21.0404C117.64 21.6476 117.706 22.275 117.947 22.8445C118.187 23.414 118.589 23.8998 119.104 24.2416C119.619 24.5832 120.223 24.7654 120.841 24.7653C121.266 24.7842 121.689 24.7132 122.084 24.5569C122.479 24.4008 122.836 24.1628 123.133 23.8588C123.429 23.5546 123.658 23.1914 123.804 22.7928C123.951 22.3941 124.011 21.9689 123.981 21.5453Z" fill="#CBD5E1"/>
<path d="M140.161 24.1839C140.161 27.2199 137.523 28.5132 134.672 28.5132C133.52 28.6175 132.364 28.374 131.352 27.8139C130.34 27.2539 129.519 26.4032 128.996 25.3719L132.427 23.4186C132.566 23.8952 132.864 24.31 133.271 24.5934C133.679 24.8768 134.172 25.0119 134.667 24.9759C135.616 24.9759 136.092 24.6852 136.092 24.1586C136.092 22.7052 129.597 23.4719 129.597 18.9052C129.597 16.0266 132.027 14.5759 134.772 14.5759C135.804 14.5432 136.825 14.788 137.731 15.2847C138.636 15.7815 139.392 16.5119 139.919 17.3999L136.54 19.2212C136.392 18.8755 136.145 18.581 135.831 18.3744C135.516 18.1679 135.148 18.0586 134.772 18.0599C134.085 18.0599 133.663 18.3266 133.663 18.7986C133.668 20.3039 140.161 19.2999 140.161 24.1839Z" fill="#CBD5E1"/>
<path d="M154.627 14.9453V28.1453H150.667V26.904C150.209 27.4517 149.629 27.8833 148.973 28.1633C148.317 28.4433 147.605 28.5637 146.893 28.5146C144.227 28.5146 141.96 26.6146 141.96 23.048V14.9453H145.92V22.468C145.887 22.7824 145.923 23.1002 146.025 23.3993C146.127 23.6985 146.293 23.9718 146.512 24.2002C146.731 24.4286 146.996 24.6066 147.291 24.722C147.584 24.8373 147.9 24.8872 148.216 24.868C149.668 24.868 150.671 24.024 150.671 22.1493V14.9493L154.627 14.9453Z" fill="#CBD5E1"/>
<path d="M177.333 20.04V28.144H173.373V20.3826C173.373 19.0626 172.74 18.2186 171.473 18.2186C170.153 18.2186 169.413 19.1426 169.413 20.7V28.144H165.455V20.3826C165.455 19.0626 164.821 18.2186 163.553 18.2186C162.233 18.2186 161.495 19.1426 161.495 20.7V28.144H157.535V14.944H161.495V16.1573C161.905 15.619 162.444 15.1921 163.061 14.9157C163.68 14.6392 164.357 14.522 165.032 14.5746C165.709 14.5414 166.384 14.6845 166.991 14.9897C167.596 15.2948 168.112 15.7518 168.489 16.316C168.928 15.7257 169.509 15.2564 170.179 14.9518C170.848 14.6473 171.584 14.5176 172.317 14.5746C175.348 14.576 177.333 16.74 177.333 20.04Z" fill="#CBD5E1"/>
<path d="M180.683 14.8639C182.305 14.8639 183.621 13.5482 183.621 11.9252C183.621 10.3023 182.305 8.98657 180.683 8.98657C179.06 8.98657 177.744 10.3023 177.744 11.9252C177.744 13.5482 179.06 14.8639 180.683 14.8639Z" fill="#CBD5E1"/>
</svg>
