<svg width="170" height="41" viewBox="0 0 170 41" fill="none" xmlns="http://www.w3.org/2000/svg">
<g clip-path="url(#clip0_258_815)">
<path d="M51.2775 29.3231H63.2295V25.7231H55.5255V12.1631H51.2775V29.3231Z" fill="#CBD5E1"/>
<path d="M70.3105 26.9232C68.6065 26.9232 67.7185 25.4352 67.7185 23.2032C67.7185 20.9712 68.6065 19.4592 70.3105 19.4592C72.0145 19.4592 72.9265 20.9712 72.9265 23.2032C72.9265 25.4352 72.0145 26.9232 70.3105 26.9232ZM70.3345 29.7072C74.2945 29.7072 76.8865 26.8992 76.8865 23.2032C76.8865 19.5072 74.2945 16.6992 70.3345 16.6992C66.3985 16.6992 63.7585 19.5072 63.7585 23.2032C63.7585 26.8992 66.3985 29.7072 70.3345 29.7072Z" fill="#CBD5E1"/>
<path d="M83.7411 33.5713C85.5651 33.5713 87.1731 33.1633 88.2531 32.2033C89.2371 31.3153 89.8851 29.9713 89.8851 28.1233V17.0353H86.1411V18.3553H86.0931C85.3731 17.3233 84.2691 16.6753 82.6371 16.6753C79.5891 16.6753 77.4771 19.2193 77.4771 22.8193C77.4771 26.5873 80.0451 28.6513 82.8051 28.6513C84.2931 28.6513 85.2291 28.0513 85.9491 27.2353H86.0451V28.4593C86.0451 29.9473 85.3491 30.8113 83.6931 30.8113C82.3971 30.8113 81.7491 30.2593 81.5331 29.6113H77.7411C78.1251 32.1793 80.3571 33.5713 83.7411 33.5713ZM83.7171 25.7473C82.2531 25.7473 81.2931 24.5473 81.2931 22.6993C81.2931 20.8273 82.2531 19.6273 83.7171 19.6273C85.3491 19.6273 86.2131 21.0193 86.2131 22.6753C86.2131 24.4033 85.4211 25.7473 83.7171 25.7473Z" fill="#CBD5E1"/>
<path d="M97.5834 26.9232C95.8794 26.9232 94.9914 25.4352 94.9914 23.2032C94.9914 20.9712 95.8794 19.4592 97.5834 19.4592C99.2874 19.4592 100.199 20.9712 100.199 23.2032C100.199 25.4352 99.2874 26.9232 97.5834 26.9232ZM97.6074 29.7072C101.567 29.7072 104.159 26.8992 104.159 23.2032C104.159 19.5072 101.567 16.6992 97.6074 16.6992C93.6714 16.6992 91.0314 19.5072 91.0314 23.2032C91.0314 26.8992 93.6714 29.7072 97.6074 29.7072Z" fill="#CBD5E1"/>
<path d="M105.302 29.3231H109.214V17.0351H105.302V29.3231ZM105.302 15.3311H109.214V12.1631H105.302V15.3311Z" fill="#CBD5E1"/>
<path d="M110.911 33.3793H114.823V28.0513H114.871C115.639 29.0833 116.767 29.7073 118.351 29.7073C121.567 29.7073 123.703 27.1633 123.703 23.1793C123.703 19.4833 121.711 16.6753 118.447 16.6753C116.767 16.6753 115.567 17.4193 114.727 18.5233H114.655V17.0353H110.911V33.3793ZM117.343 26.6833C115.663 26.6833 114.703 25.3153 114.703 23.3233C114.703 21.3313 115.567 19.8193 117.271 19.8193C118.951 19.8193 119.743 21.2113 119.743 23.3233C119.743 25.4113 118.831 26.6833 117.343 26.6833Z" fill="#CBD5E1"/>
<path d="M130.072 29.7073C133.288 29.7073 135.664 28.3153 135.664 25.6273C135.664 22.4833 133.12 21.9313 130.96 21.5713C129.4 21.2833 128.008 21.1633 128.008 20.2993C128.008 19.5313 128.752 19.1713 129.712 19.1713C130.792 19.1713 131.536 19.5073 131.68 20.6113H135.28C135.088 18.1873 133.216 16.6753 129.736 16.6753C126.832 16.6753 124.432 18.0193 124.432 20.6113C124.432 23.4913 126.712 24.0673 128.848 24.4273C130.48 24.7153 131.968 24.8353 131.968 25.9393C131.968 26.7313 131.224 27.1633 130.048 27.1633C128.752 27.1633 127.936 26.5633 127.792 25.3393H124.096C124.216 28.0513 126.472 29.7073 130.072 29.7073Z" fill="#CBD5E1"/>
<path d="M140.978 29.6832C142.682 29.6832 143.762 29.0112 144.65 27.8112H144.722V29.3232H148.466V17.0352H144.554V23.8992C144.554 25.3632 143.738 26.3712 142.394 26.3712C141.146 26.3712 140.546 25.6272 140.546 24.2832V17.0352H136.658V25.0992C136.658 27.8352 138.146 29.6832 140.978 29.6832Z" fill="#CBD5E1"/>
<path d="M150.168 29.3233H154.08V22.4353C154.08 20.9713 154.8 19.9393 156.024 19.9393C157.2 19.9393 157.752 20.7073 157.752 22.0273V29.3233H161.664V22.4353C161.664 20.9713 162.36 19.9393 163.608 19.9393C164.784 19.9393 165.336 20.7073 165.336 22.0273V29.3233H169.248V21.3313C169.248 18.5713 167.856 16.6753 165.072 16.6753C163.488 16.6753 162.168 17.3473 161.208 18.8353H161.16C160.536 17.5153 159.312 16.6753 157.704 16.6753C155.928 16.6753 154.752 17.5153 153.984 18.7873H153.912V17.0353H150.168V29.3233Z" fill="#CBD5E1"/>
<path fill-rule="evenodd" clip-rule="evenodd" d="M20.1014 40.3232C31.1472 40.3232 40.1014 31.3689 40.1014 20.3232C40.1014 9.27754 31.1472 0.323242 20.1014 0.323242C9.05573 0.323242 0.10144 9.27754 0.10144 20.3232C0.10144 31.3689 9.05573 40.3232 20.1014 40.3232ZM23.1884 15.7758C24.8932 14.0709 24.8932 11.3068 23.1884 9.6019C21.4835 7.89702 18.7194 7.89702 17.0145 9.6019C15.3097 11.3068 15.3097 14.0709 17.0145 15.7758L20.1014 18.8627L23.1884 15.7758ZM24.6489 23.4102C26.3538 25.1151 29.1179 25.1151 30.8228 23.4102C32.5276 21.7053 32.5276 18.9412 30.8228 17.2363C29.1179 15.5315 26.3538 15.5315 24.6489 17.2363L21.562 20.3233L24.6489 23.4102ZM23.1884 31.0446C24.8932 29.3397 24.8932 26.5756 23.1884 24.8707L20.1014 21.7838L17.0145 24.8707C15.3097 26.5756 15.3097 29.3397 17.0145 31.0446C18.7194 32.7495 21.4835 32.7495 23.1884 31.0446ZM9.38007 23.4102C7.67523 21.7053 7.67523 18.9412 9.38007 17.2363C11.085 15.5315 13.8491 15.5315 15.554 17.2363L18.6409 20.3233L15.554 23.4102C13.8491 25.1151 11.085 25.1151 9.38007 23.4102Z" fill="#CBD5E1"/>
</g>
<defs>
<clipPath id="clip0_258_815">
<rect width="170" height="41" fill="white"/>
</clipPath>
</defs>
</svg>
