<svg width="179" height="36" viewBox="0 0 179 36" fill="none" xmlns="http://www.w3.org/2000/svg">
<g clip-path="url(#clip0_258_734)">
<path d="M57.6458 29.0738C56.7394 29.1231 55.843 28.8654 55.101 28.3424C54.7911 28.1126 54.5416 27.8107 54.3743 27.463C54.207 27.1151 54.127 26.7319 54.141 26.3462V12.2205C54.1337 12.1608 54.14 12.1 54.1596 12.043C54.1791 11.986 54.2114 11.9343 54.2541 11.8917C54.2968 11.849 54.3484 11.8167 54.4054 11.7972C54.4624 11.7775 54.5232 11.7713 54.5829 11.7786H57.1429C57.4325 11.7786 57.5696 11.931 57.5696 12.2205V25.2491C57.5696 25.8281 57.8286 26.1176 58.362 26.1176C58.5881 26.1269 58.8142 26.1013 59.0325 26.0415C59.3372 26.0415 59.5048 26.1329 59.5201 26.4072L59.7486 28.3119C59.7596 28.3675 59.7585 28.4247 59.7456 28.4799C59.7326 28.5349 59.708 28.5867 59.6732 28.6313C59.6386 28.6761 59.5947 28.713 59.5448 28.7394C59.4946 28.7657 59.4395 28.7811 59.3829 28.7843C58.8222 28.9696 58.2363 29.0673 57.6458 29.0738Z" fill="#CBD5E1"/>
<path d="M72.0458 27.4435C70.7595 28.5064 69.1429 29.0877 67.4744 29.0877C65.8058 29.0877 64.1893 28.5064 62.9029 27.4435C61.7724 26.3022 61.1381 24.7605 61.1381 23.154C61.1381 21.5474 61.7724 20.0058 62.9029 18.8644C64.1918 17.8071 65.8073 17.2292 67.4744 17.2292C69.1414 17.2292 70.757 17.8071 72.0458 18.8644C73.1504 20.0163 73.7671 21.5505 73.7671 23.1464C73.7671 24.7422 73.1504 26.2764 72.0458 27.4283V27.4435ZM65.3106 25.4321C65.9076 25.9729 66.6841 26.2723 67.4896 26.2723C68.2951 26.2723 69.0718 25.9729 69.6687 25.4321C70.209 24.811 70.5064 24.0154 70.5064 23.1921C70.5064 22.3689 70.209 21.5733 69.6687 20.9521C69.0718 20.4114 68.2951 20.1118 67.4896 20.1118C66.6841 20.1118 65.9076 20.4114 65.3106 20.9521C64.7704 21.5733 64.4728 22.3689 64.4728 23.1921C64.4728 24.0154 64.7704 24.811 65.3106 25.4321Z" fill="#CBD5E1"/>
<path d="M87.8629 17.6148C88.1524 17.6148 88.2895 17.7671 88.2895 18.0567V28.9824C88.3162 29.7199 88.1781 30.4539 87.8856 31.1313C87.593 31.8087 87.1532 32.4125 86.5981 32.8986C85.366 33.9492 83.7815 34.4937 82.1638 34.4224C80.7028 34.4737 79.2611 34.0748 78.0343 33.2795C77.5104 32.9356 77.0629 32.4874 76.7195 31.9633C76.3761 31.4389 76.1442 30.8497 76.0381 30.2319C76.0381 29.9271 76.0381 29.79 76.4495 29.79H79.0095C79.1182 29.7937 79.2236 29.8289 79.3128 29.891C79.4021 29.9532 79.4714 30.0397 79.5124 30.1405C79.6785 30.6033 80.0095 30.9886 80.4419 31.2224C80.969 31.4944 81.5557 31.6306 82.1486 31.6186C82.5064 31.6382 82.8645 31.5863 83.202 31.4659C83.5395 31.3457 83.8496 31.1591 84.1143 30.9176C84.3561 30.665 84.5442 30.3658 84.6673 30.0385C84.7904 29.7112 84.8459 29.3623 84.8305 29.0129V28.0529C83.9139 28.727 82.7983 29.0756 81.661 29.0433C80.8649 29.0723 80.0713 28.9402 79.3275 28.6548C78.5839 28.3692 77.9057 27.9366 77.3333 27.3824C76.2348 26.2459 75.6207 24.727 75.6207 23.1462C75.6207 21.5655 76.2348 20.0466 77.3333 18.91C77.9084 18.3608 78.5876 17.9323 79.3307 17.6497C80.0741 17.367 80.8663 17.2359 81.661 17.2643C82.8312 17.2334 83.9768 17.6045 84.9067 18.3157V18.0719C84.8997 18.0135 84.9058 17.9543 84.9245 17.8985C84.9432 17.8429 84.9742 17.792 85.015 17.7496C85.0559 17.7073 85.1057 17.6746 85.1607 17.6539C85.2159 17.6332 85.2748 17.6251 85.3333 17.63L87.8629 17.6148ZM81.9505 26.3309C82.343 26.3431 82.7336 26.2689 83.0943 26.1135C83.4549 25.9582 83.7772 25.7255 84.0381 25.4319C84.5448 24.7777 84.8197 23.9736 84.8197 23.1462C84.8197 22.3188 84.5448 21.5148 84.0381 20.8605C83.7781 20.5709 83.4578 20.3416 83.0999 20.1889C82.7418 20.0362 82.3548 19.9639 81.9657 19.9767C81.5686 19.9642 81.1736 20.0381 80.8079 20.1933C80.4422 20.3486 80.1146 20.5815 79.8476 20.8757C79.2864 21.5015 78.9912 22.3215 79.0248 23.1614C78.9973 23.9931 79.2859 24.8044 79.8324 25.4319C80.1 25.7254 80.4277 25.9578 80.7933 26.1129C81.1589 26.268 81.5535 26.3424 81.9505 26.3309Z" fill="#CBD5E1"/>
<path d="M101.44 27.4432C100.151 28.5006 98.5357 29.0784 96.8687 29.0784C95.2016 29.0784 93.5861 28.5006 92.2973 27.4432C91.1917 26.2888 90.5746 24.7522 90.5746 23.1537C90.5746 21.5554 91.1917 20.0186 92.2973 18.8642C93.5873 17.8096 95.2024 17.2334 96.8687 17.2334C98.535 17.2334 100.15 17.8096 101.44 18.8642C102.545 20.016 103.161 21.5502 103.161 23.1461C103.161 24.742 102.545 26.2761 101.44 27.428V27.4432ZM94.6896 25.4318C94.9817 25.7097 95.3261 25.9269 95.7028 26.0707C96.0795 26.2146 96.4809 26.2824 96.8839 26.2699C97.2844 26.2803 97.683 26.2117 98.0569 26.0678C98.4309 25.924 98.7727 25.7079 99.063 25.4318C99.5945 24.8064 99.8863 24.0125 99.8863 23.1918C99.8863 22.3711 99.5945 21.5772 99.063 20.9518C98.7727 20.6758 98.4309 20.4596 98.0569 20.3159C97.683 20.1721 97.2844 20.1033 96.8839 20.1137C96.4809 20.1014 96.0795 20.169 95.7028 20.3129C95.3261 20.4567 94.9817 20.674 94.6896 20.9518C94.1583 21.5772 93.8665 22.3711 93.8665 23.1918C93.8665 24.0125 94.1583 24.8064 94.6896 25.4318Z" fill="#CBD5E1"/>
<path d="M108.663 15.0245C108.26 15.3771 107.743 15.5714 107.208 15.5714C106.672 15.5714 106.155 15.3771 105.752 15.0245C105.57 14.8521 105.424 14.6443 105.325 14.4137C105.226 14.1832 105.174 13.9346 105.174 13.6835C105.174 13.4324 105.226 13.184 105.325 12.9533C105.424 12.7228 105.57 12.5149 105.752 12.3426C106.159 11.9988 106.675 11.8103 107.208 11.8103C107.74 11.8103 108.256 11.9988 108.663 12.3426C108.846 12.5149 108.991 12.7228 109.091 12.9533C109.19 13.184 109.241 13.4324 109.241 13.6835C109.241 13.9346 109.19 14.1832 109.091 14.4137C108.991 14.6443 108.846 14.8521 108.663 15.0245ZM108.983 29.074C108.077 29.1185 107.182 28.8613 106.438 28.3426C106.133 28.1094 105.888 27.8065 105.724 27.4592C105.559 27.1119 105.48 26.7304 105.493 26.3464V18.0569C105.486 17.9971 105.492 17.9363 105.512 17.8793C105.532 17.8223 105.564 17.7707 105.606 17.728C105.649 17.6853 105.701 17.653 105.758 17.6335C105.815 17.6139 105.876 17.6076 105.935 17.615H108.495C108.785 17.615 108.922 17.7673 108.922 18.0569V25.2492C108.922 25.8283 109.181 26.1178 109.699 26.1178C109.93 26.1262 110.161 26.1004 110.385 26.0416C110.69 26.0416 110.857 26.133 110.872 26.4073L111.101 28.3121C111.112 28.3677 111.111 28.4249 111.098 28.48C111.085 28.535 111.06 28.5868 111.026 28.6315C110.991 28.6763 110.947 28.7132 110.897 28.7395C110.847 28.7659 110.792 28.7813 110.735 28.7845C110.17 28.9708 109.579 29.0685 108.983 29.074Z" fill="#CBD5E1"/>
<path d="M120.518 17.249C121.318 17.2175 122.115 17.3469 122.864 17.6295C123.613 17.9123 124.297 18.3425 124.876 18.8947C125.954 20.0513 126.553 21.5731 126.553 23.1538C126.553 24.7344 125.954 26.2564 124.876 27.4128C124.3 27.9701 123.616 28.4045 122.867 28.6899C122.118 28.9755 121.319 29.1061 120.518 29.0738C119.377 29.0992 118.259 28.7515 117.333 28.0833V33.5843C117.333 33.8738 117.181 34.0109 116.891 34.0109H114.331C114.273 34.0219 114.213 34.0184 114.156 34.0009C114.099 33.9832 114.048 33.9521 114.006 33.9101C113.964 33.868 113.932 33.8165 113.915 33.7597C113.897 33.703 113.894 33.6428 113.905 33.5843V21.089C113.923 20.9668 113.912 20.8422 113.873 20.7248C113.834 20.6077 113.768 20.501 113.681 20.4137C113.594 20.3264 113.487 20.2607 113.37 20.2218C113.253 20.183 113.128 20.1721 113.006 20.19H112.503C112.168 20.19 112 20.0681 112 19.8243V18.0262C111.992 17.9149 112.022 17.8043 112.086 17.7129C112.15 17.6213 112.243 17.5544 112.35 17.5233C112.877 17.3318 113.435 17.2388 113.996 17.249C114.555 17.1995 115.117 17.3182 115.608 17.5896C116.099 17.8611 116.498 18.2732 116.754 18.7728C117.245 18.2764 117.832 17.8852 118.479 17.6231C119.126 17.3612 119.82 17.2338 120.518 17.249ZM118.141 25.4319C118.413 25.7159 118.739 25.9419 119.1 26.0963C119.462 26.2506 119.851 26.3302 120.244 26.3302C120.637 26.3302 121.026 26.2506 121.387 26.0963C121.748 25.9419 122.075 25.7159 122.347 25.4319C122.919 24.7936 123.22 23.9571 123.185 23.1005C123.225 22.2432 122.923 21.4048 122.347 20.769C122.075 20.4851 121.748 20.2592 121.387 20.1048C121.026 19.9503 120.637 19.8707 120.244 19.8707C119.851 19.8707 119.462 19.9503 119.1 20.1048C118.739 20.2592 118.413 20.4851 118.141 20.769C117.586 21.416 117.298 22.2491 117.333 23.1005C117.302 23.9512 117.59 24.7827 118.141 25.4319Z" fill="#CBD5E1"/>
<path d="M133.745 29.074C132.377 29.1302 131.02 28.8031 129.829 28.1293C129.35 27.8413 128.943 27.4492 128.637 26.9823C128.331 26.5154 128.134 25.9856 128.061 25.4321C128.061 25.1273 128.168 24.975 128.503 24.975H130.743C130.849 24.9792 130.953 25.0126 131.041 25.0719C131.13 25.131 131.201 25.2134 131.246 25.3102C131.566 26.1331 132.404 26.5445 133.745 26.5445C134.213 26.566 134.678 26.4717 135.101 26.2702C135.247 26.2044 135.372 26.1001 135.463 25.9686C135.555 25.8371 135.608 25.6832 135.619 25.5235C135.619 25.1273 135.375 24.8531 134.888 24.6702C134.309 24.4777 133.711 24.3499 133.105 24.2893C132.386 24.2079 131.674 24.0806 130.971 23.9083C130.288 23.7538 129.667 23.3981 129.189 22.8873C128.906 22.5402 128.699 22.1387 128.579 21.7079C128.458 21.2771 128.428 20.8261 128.489 20.3831C128.551 19.94 128.703 19.5142 128.936 19.1325C129.169 18.7507 129.478 18.4209 129.844 18.1635C130.942 17.464 132.231 17.1231 133.531 17.1883C134.791 17.1458 136.037 17.4573 137.128 18.0873C137.567 18.3365 137.946 18.6804 138.236 19.0943C138.526 19.5081 138.72 19.9814 138.804 20.4797C138.804 20.7845 138.667 20.9369 138.392 20.9369H136.137C136.042 20.9425 135.948 20.9193 135.866 20.8704C135.785 20.8215 135.72 20.749 135.68 20.6626C135.529 20.3017 135.246 20.0125 134.888 19.855C134.484 19.6438 134.033 19.5388 133.577 19.5502C133.13 19.526 132.685 19.6151 132.282 19.8093C132.14 19.8641 132.018 19.9601 131.931 20.0851C131.844 20.21 131.796 20.3581 131.794 20.5102C131.804 20.7187 131.88 20.9184 132.012 21.0803C132.144 21.2421 132.324 21.3573 132.526 21.4093C133.111 21.6299 133.719 21.7832 134.339 21.8664C135.052 21.9603 135.759 22.0925 136.457 22.2626C137.14 22.4173 137.761 22.7728 138.24 23.2835C138.496 23.565 138.694 23.8943 138.822 24.2527C138.95 24.6109 139.006 24.9911 138.987 25.3712C139 25.8979 138.876 26.4191 138.628 26.8838C138.379 27.3485 138.015 27.7408 137.569 28.0226C136.431 28.7536 135.097 29.1202 133.745 29.074Z" fill="#CBD5E1"/>
<path d="M155.093 28.3121C155.103 28.3662 155.1 28.4215 155.087 28.4747C155.074 28.5281 155.051 28.578 155.017 28.6221C154.985 28.6661 154.944 28.7031 154.897 28.731C154.85 28.7589 154.798 28.777 154.743 28.7845C154.187 28.9662 153.606 29.0638 153.021 29.074C152.442 29.1341 151.857 29.0436 151.324 28.8113C150.789 28.5791 150.324 28.2129 149.973 27.7483C148.898 28.6737 147.505 29.1486 146.088 29.074C145.429 29.1044 144.773 28.9966 144.159 28.7578C143.544 28.5191 142.987 28.1544 142.522 27.6874C142.06 27.1981 141.702 26.6206 141.469 25.9895C141.236 25.3585 141.133 24.687 141.166 24.015V18.0569C141.166 17.7674 141.303 17.615 141.592 17.615H144.152C144.442 17.615 144.579 17.7674 144.579 18.0569V23.5578C144.552 24.2433 144.785 24.9134 145.234 25.4321C145.458 25.6698 145.731 25.8567 146.033 25.9802C146.335 26.1038 146.661 26.1611 146.987 26.1483C147.32 26.163 147.654 26.1113 147.968 25.9961C148.282 25.881 148.57 25.7049 148.815 25.4778C149.047 25.2386 149.228 24.9543 149.346 24.6423C149.464 24.3304 149.516 23.9976 149.501 23.6645V18.0569C149.501 17.7674 149.638 17.615 149.928 17.615H152.518C152.808 17.615 152.945 17.7674 152.945 18.0569V25.234C152.945 25.8283 153.204 26.1178 153.707 26.1178C153.943 26.127 154.179 26.1014 154.408 26.0417C154.466 26.0255 154.527 26.0226 154.584 26.0333C154.644 26.0438 154.699 26.0676 154.748 26.1028C154.796 26.138 154.836 26.1837 154.865 26.2364C154.892 26.2891 154.908 26.3476 154.911 26.4074L155.093 28.3121Z" fill="#CBD5E1"/>
<path d="M179.307 28.3118C179.32 28.3663 179.322 28.4233 179.311 28.4785C179.299 28.5335 179.276 28.5856 179.243 28.6307C179.209 28.6758 179.166 28.713 179.116 28.7395C179.067 28.7662 179.013 28.7814 178.956 28.7842C178.389 28.9684 177.8 29.0661 177.204 29.0737C176.297 29.1205 175.403 28.8631 174.659 28.3423C174.337 28.1192 174.077 27.8203 173.899 27.4722C173.72 27.124 173.63 26.7371 173.638 26.3461V22.7651C173.67 22.0818 173.441 21.4118 172.998 20.8908C172.785 20.6527 172.52 20.4649 172.225 20.341C171.93 20.2173 171.611 20.1605 171.291 20.1746C171.003 20.1638 170.717 20.2185 170.452 20.3346C170.188 20.4507 169.955 20.6254 169.768 20.8451C169.365 21.3557 169.16 21.9939 169.189 22.6432V28.2661C169.189 28.5556 169.051 28.708 168.762 28.708H166.187C166.127 28.7154 166.066 28.709 166.01 28.6895C165.952 28.6699 165.9 28.6376 165.857 28.5949C165.815 28.5524 165.783 28.5006 165.763 28.4436C165.743 28.3866 165.737 28.3259 165.745 28.2661V22.7651C165.778 22.0893 165.566 21.424 165.15 20.8908C164.965 20.6668 164.731 20.4866 164.468 20.3628C164.206 20.2391 163.918 20.1748 163.627 20.1746C163.316 20.1621 163.006 20.2153 162.717 20.331C162.427 20.4465 162.167 20.6217 161.95 20.8451C161.515 21.3394 161.291 21.9852 161.326 22.6432V28.2661C161.333 28.3259 161.327 28.3866 161.307 28.4436C161.288 28.5006 161.256 28.5524 161.213 28.5949C161.17 28.6376 161.118 28.6699 161.062 28.6895C161.004 28.709 160.943 28.7154 160.884 28.708H158.4C158.11 28.708 157.973 28.5556 157.973 28.2661V21.0889C157.992 20.9667 157.981 20.8421 157.941 20.7247C157.903 20.6075 157.838 20.5009 157.749 20.4136C157.662 20.3263 157.556 20.2606 157.438 20.2217C157.321 20.1829 157.196 20.172 157.074 20.1899H156.571C156.236 20.1899 156.069 20.068 156.069 19.8242V18.0261C156.061 17.9148 156.091 17.8042 156.155 17.7128C156.219 17.6212 156.312 17.5543 156.419 17.5232C156.946 17.3317 157.504 17.2387 158.065 17.2489C158.603 17.2031 159.144 17.3103 159.624 17.5584C160.104 17.8065 160.503 18.1851 160.777 18.6508C161.291 18.1637 161.9 17.7876 162.566 17.5464C163.232 17.3051 163.941 17.204 164.648 17.2489C165.335 17.2154 166.019 17.3442 166.647 17.6248C167.275 17.9055 167.826 18.3301 168.259 18.8642C168.763 18.316 169.384 17.8869 170.074 17.6075C170.764 17.3282 171.508 17.2058 172.251 17.2489C172.916 17.2178 173.58 17.325 174.202 17.5637C174.824 17.8024 175.389 18.1673 175.863 18.6356C176.326 19.124 176.684 19.7013 176.917 20.3326C177.15 20.9638 177.254 21.636 177.219 22.308V25.2489C177.219 25.828 177.478 26.1175 177.966 26.1175C178.202 26.1285 178.438 26.1029 178.667 26.0413C178.982 26.0413 179.15 26.1632 179.169 26.407L179.307 28.3118Z" fill="#CBD5E1"/>
<path d="M0.624762 15.6339C1.74898 11.1153 4.35266 7.10267 8.02118 4.23508C11.6898 1.36742 16.2123 -0.19043 20.8686 -0.19043C25.5249 -0.19043 30.0474 1.36742 33.716 4.23508C37.3845 7.10267 39.9881 11.1153 41.1124 15.6339H39.2838C36.1992 15.5885 33.1778 16.5104 30.6438 18.2701C30.4975 18.376 30.3448 18.4727 30.1867 18.5596H29.9733C29.8152 18.4727 29.6625 18.376 29.5162 18.2701C26.9599 16.5511 23.9491 15.633 20.8686 15.633C17.788 15.633 14.7773 16.5511 12.221 18.2701C12.0747 18.376 11.922 18.4727 11.7638 18.5596H11.5505C11.3923 18.4727 11.2396 18.376 11.0933 18.2701C8.55939 16.5104 5.53798 15.5885 2.45333 15.6339H0.624762ZM35.9924 25.1882C36.9311 24.4572 38.0945 24.0747 39.2838 24.1063H41.7371V19.2148H39.2838C37.1889 19.1895 35.1419 19.8416 33.4476 21.0739C32.4942 21.7768 31.3408 22.1561 30.1562 22.1561C28.9716 22.1561 27.8182 21.7768 26.8648 21.0739C25.1275 19.8646 23.0615 19.2162 20.9448 19.2162C18.828 19.2162 16.7621 19.8646 15.0248 21.0739C14.0713 21.7768 12.9179 22.1561 11.7333 22.1561C10.5487 22.1561 9.39535 21.7768 8.44191 21.0739C6.72671 19.8257 4.65036 19.1729 2.52952 19.2148H0V24.1063H2.45333C3.64268 24.0747 4.8061 24.4572 5.74476 25.1882C7.47886 26.3984 9.54255 27.0472 11.6571 27.0472C13.7717 27.0472 15.8354 26.3984 17.5695 25.1882C18.5094 24.4595 19.6719 24.0773 20.861 24.1063C22.0507 24.0721 23.2149 24.4549 24.1524 25.1882C25.8897 26.3976 27.9557 27.0458 30.0724 27.0458C32.1891 27.0458 34.2551 26.3976 35.9924 25.1882ZM35.9924 33.9348C36.9311 33.2039 38.0945 32.8214 39.2838 32.8529H41.7371V27.9615H39.2838C37.1889 27.9362 35.1419 28.5882 33.4476 29.8205C32.4942 30.5235 31.3408 30.9027 30.1562 30.9027C28.9716 30.9027 27.8182 30.5235 26.8648 29.8205C25.1275 28.6112 23.0615 27.963 20.9448 27.963C18.828 27.963 16.7621 28.6112 15.0248 29.8205C14.0713 30.5235 12.9179 30.9027 11.7333 30.9027C10.5487 30.9027 9.39535 30.5235 8.44191 29.8205C6.72671 28.5725 4.65036 27.9196 2.52952 27.9615H0V32.8529H2.45333C3.64268 32.8214 4.8061 33.2039 5.74476 33.9348C7.47886 35.145 9.54255 35.7939 11.6571 35.7939C13.7717 35.7939 15.8354 35.145 17.5695 33.9348C18.5094 33.2061 19.6719 32.824 20.861 32.8529C22.0507 32.8188 23.2149 33.2016 24.1524 33.9348C25.8897 35.1443 27.9557 35.7925 30.0724 35.7925C32.1891 35.7925 34.2551 35.1443 35.9924 33.9348Z" fill="#CBD5E1"/>
</g>
<defs>
<clipPath id="clip0_258_734">
<rect width="178.667" height="36" fill="white"/>
</clipPath>
</defs>
</svg>
