<svg width="158" height="40" viewBox="0 0 158 40" fill="none" xmlns="http://www.w3.org/2000/svg">
<path d="M18.1764 7.82349V2.82349H2.41174V37.1764H18.1764V32.1764C14.947 32.1764 11.8499 30.8935 9.56638 28.61C7.28285 26.3264 5.99998 23.2294 5.99998 20C5.99998 16.7706 7.28285 13.6734 9.56638 11.3899C11.8499 9.10637 14.947 7.82349 18.1764 7.82349Z" fill="#CBD5E1"/>
<path d="M18.1765 7.82349V32.1764C21.4059 32.1764 24.5031 30.8935 26.7866 28.61C29.0702 26.3264 30.353 23.2294 30.353 20C30.353 16.7706 29.0702 13.6734 26.7866 11.3899C24.5031 9.10637 21.4059 7.82349 18.1765 7.82349Z" fill="#CBD5E1"/>
<path d="M39.2 10.8823H42.7294V27.8823H39.2V10.8823Z" fill="#CBD5E1"/>
<path d="M44.7059 22.0589C44.7059 20.8358 45.0691 19.6403 45.7493 18.6238C46.4295 17.6074 47.3962 16.8157 48.5269 16.3493C49.6576 15.8829 50.9013 15.7627 52.1003 16.0038C53.2994 16.245 54.3999 16.8368 55.2622 17.7041C56.1246 18.5715 56.7101 19.6753 56.9445 20.8757C57.1787 22.0762 57.0514 23.3191 56.5785 24.4471C56.1055 25.575 55.3085 26.5373 54.2881 27.2116C53.2678 27.8861 52.0701 28.2423 50.8471 28.2354C50.0359 28.2417 49.2315 28.0861 48.4813 27.7774C47.7311 27.4688 47.0499 27.0135 46.4779 26.4383C45.9059 25.863 45.4546 25.1793 45.1502 24.4273C44.846 23.6753 44.6949 22.8701 44.7059 22.0589ZM53.5529 22.0589C53.5391 21.5316 53.37 21.0201 53.0669 20.5884C52.7639 20.1567 52.3403 19.8238 51.8491 19.6316C51.3579 19.4394 50.8209 19.3962 50.3054 19.5076C49.7898 19.6189 49.3185 19.8797 48.9503 20.2576C48.5822 20.6354 48.3336 21.1133 48.2358 21.6316C48.1379 22.15 48.1949 22.6856 48.3999 23.1716C48.6048 23.6576 48.9485 24.0726 49.388 24.3642C49.8274 24.656 50.3431 24.8116 50.8706 24.8118C51.2298 24.8189 51.5865 24.7517 51.9185 24.6146C52.2505 24.4775 52.5506 24.2734 52.8001 24.015C53.0496 23.7567 53.2432 23.4495 53.3687 23.113C53.4942 22.7764 53.5489 22.4176 53.5294 22.0589H53.5529Z" fill="#CBD5E1"/>
<path d="M70.953 16.2354V27.306C70.953 31.2118 67.8942 32.8707 64.8 32.8707C63.7086 32.9602 62.6139 32.7434 61.6392 32.2446C60.6644 31.7457 59.8482 30.9847 59.2824 30.0471L62.2589 28.3295C62.5 28.8158 62.8837 29.217 63.3587 29.4797C63.8338 29.7424 64.3776 29.8542 64.9177 29.8001C65.2618 29.8424 65.611 29.8083 65.9403 29.7001C66.2697 29.5917 66.571 29.4121 66.8228 29.1737C67.0746 28.9354 67.2706 28.6444 67.3969 28.3215C67.5231 27.9987 67.5764 27.6518 67.553 27.306V26.2354C67.1423 26.7334 66.6211 27.1287 66.031 27.3901C65.4408 27.6515 64.7978 27.7717 64.153 27.7413C62.5929 27.7413 61.0967 27.1215 59.9936 26.0183C58.8904 24.9153 58.2706 23.419 58.2706 21.8589C58.2706 20.2988 58.8904 18.8027 59.9936 17.6995C61.0967 16.5963 62.5929 15.9766 64.153 15.9766C64.7978 15.9461 65.4408 16.0663 66.031 16.3277C66.6211 16.5891 67.1423 16.9844 67.553 17.4824V16.306L70.953 16.2354ZM67.553 21.8236C67.5764 21.2608 67.431 20.7037 67.1353 20.2242C66.8397 19.7447 66.4075 19.3646 65.8939 19.1327C65.3805 18.9008 64.8096 18.8278 64.2543 18.9231C63.6991 19.0184 63.185 19.2776 62.7783 19.6674C62.3716 20.0571 62.0908 20.5597 61.9719 21.1104C61.8531 21.6611 61.9017 22.2347 62.1115 22.7575C62.3213 23.2803 62.6827 23.7284 63.1492 24.0442C63.6158 24.36 64.1662 24.529 64.7295 24.5295C65.0971 24.556 65.4662 24.505 65.8127 24.3801C66.1595 24.255 66.4762 24.0587 66.7422 23.8036C67.0083 23.5487 67.2179 23.2407 67.3576 22.8996C67.4972 22.5586 67.5638 22.192 67.553 21.8236Z" fill="#CBD5E1"/>
<path d="M72.9412 22.0588C72.9412 20.8367 73.3038 19.6421 73.983 18.6261C74.6621 17.6101 75.6274 16.8185 76.7567 16.3514C77.886 15.8842 79.1285 15.7626 80.327 16.0019C81.5254 16.2412 82.6259 16.8306 83.4893 17.6955C84.3526 18.5606 84.9399 19.6622 85.1769 20.8611C85.4139 22.06 85.2899 23.3022 84.8206 24.4306C84.3513 25.5591 83.5578 26.5228 82.5406 27.2001C81.5233 27.8774 80.328 28.2376 79.1059 28.2353C78.2932 28.2432 77.487 28.0887 76.7347 27.7809C75.9825 27.4732 75.2992 27.0183 74.7251 26.4431C74.1509 25.8678 73.6973 25.1836 73.391 24.4308C73.0847 23.678 72.9318 22.8715 72.9412 22.0588ZM81.7883 22.0588C81.7744 21.5311 81.605 21.0191 81.3014 20.5871C80.9979 20.1552 80.5736 19.8223 80.0817 19.6305C79.5898 19.4386 79.0523 19.3961 78.5364 19.5085C78.0205 19.6207 77.5492 19.8828 77.1816 20.2618C76.8139 20.6407 76.5663 21.1198 76.4698 21.6388C76.3732 22.1579 76.4319 22.6939 76.6386 23.1796C76.8453 23.6655 77.1909 24.0795 77.6319 24.3699C78.0729 24.6601 78.5897 24.8139 79.1177 24.8118C79.4769 24.8188 79.8336 24.7516 80.1656 24.6145C80.4976 24.4774 80.7977 24.2733 81.0472 24.0149C81.2967 23.7566 81.4903 23.4494 81.6158 23.1129C81.7413 22.7763 81.796 22.4175 81.7765 22.0588H81.7883Z" fill="#CBD5E1"/>
<path d="M86.9059 13.1176C86.9059 12.7034 87.0287 12.2985 87.2588 11.9541C87.4889 11.6097 87.816 11.3413 88.1986 11.1828C88.5813 11.0243 89.0024 10.9829 89.4086 11.0637C89.8147 11.1445 90.1879 11.3439 90.4808 11.6368C90.7736 11.9297 90.9731 12.3029 91.0539 12.709C91.1347 13.1152 91.0932 13.5363 90.9347 13.919C90.7762 14.3016 90.5078 14.6286 90.1634 14.8587C89.8191 15.0889 89.4142 15.2117 89 15.2117C88.4465 15.2056 87.9174 14.983 87.526 14.5916C87.1346 14.2001 86.912 13.6711 86.9059 13.1176ZM87.2471 16.2352H90.7765V27.8823H87.2471V16.2352Z" fill="#CBD5E1"/>
<path d="M105.882 22.0589C105.922 22.8335 105.808 23.6083 105.547 24.3386C105.286 25.069 104.883 25.7405 104.361 26.3145C103.84 26.8886 103.21 27.3538 102.508 27.6835C101.806 28.0131 101.045 28.2006 100.271 28.2354C99.6131 28.2791 98.9541 28.1738 98.3431 27.9274C97.7319 27.6808 97.1844 27.2995 96.7412 26.8118V32.5648H93.2118V16.2354H96.7412V17.3295C97.185 16.8432 97.733 16.4637 98.3441 16.2192C98.9553 15.9746 99.6139 15.8716 100.271 15.9177C101.042 15.9524 101.8 16.1389 102.499 16.4663C103.199 16.7937 103.827 17.2558 104.348 17.8261C104.87 18.3963 105.273 19.0636 105.536 19.7899C105.8 20.5162 105.917 21.2871 105.882 22.0589ZM102.353 22.0589C102.339 21.5124 102.164 20.9823 101.85 20.5349C101.536 20.0875 101.097 19.7425 100.588 19.5436C100.079 19.3445 99.5227 19.3003 98.9885 19.4162C98.4544 19.5321 97.9664 19.8031 97.5856 20.1952C97.2047 20.5873 96.9481 21.0831 96.848 21.6205C96.7478 22.1578 96.8084 22.7128 97.0223 23.2158C97.2361 23.7188 97.5937 24.1475 98.0501 24.4482C98.5066 24.7489 99.0417 24.9081 99.5883 24.9059C99.9626 24.9218 100.336 24.8584 100.684 24.7198C101.032 24.5812 101.347 24.3706 101.608 24.1018C101.87 23.833 102.071 23.5119 102.199 23.1599C102.327 22.8078 102.38 22.4326 102.353 22.0589Z" fill="#CBD5E1"/>
<path d="M116.623 24.3883C116.623 27.0707 114.271 28.2118 111.776 28.2118C110.759 28.3034 109.738 28.0877 108.844 27.5928C107.951 27.0978 107.227 26.3463 106.765 25.4354L109.8 23.7177C109.92 24.1375 110.181 24.5033 110.539 24.7538C110.896 25.0044 111.329 25.1245 111.765 25.0942C112.6 25.0942 113.023 24.8354 113.023 24.3648C113.023 23.0824 107.294 23.7648 107.294 19.7295C107.294 17.1883 109.435 15.9177 111.859 15.9177C112.78 15.8764 113.695 16.0855 114.507 16.5225C115.319 16.9596 115.998 17.6084 116.471 18.4001L113.435 20.0001C113.301 19.6965 113.082 19.4384 112.804 19.2568C112.527 19.0751 112.202 18.9778 111.871 18.9765C111.259 18.9765 110.894 19.2118 110.894 19.6236C110.894 20.9648 116.623 20.0824 116.623 24.3883Z" fill="#CBD5E1"/>
<path d="M129.412 16.2354V27.8824H125.882V26.7883C125.481 27.2726 124.972 27.6558 124.396 27.9072C123.82 28.1586 123.193 28.271 122.565 28.2354C120.212 28.2354 118.2 26.553 118.2 23.4118V16.2354H121.729V22.8824C121.701 23.1603 121.734 23.4409 121.826 23.7049C121.918 23.9688 122.065 24.2097 122.258 24.4111C122.452 24.6124 122.687 24.7694 122.947 24.8711C123.207 24.9728 123.486 25.0168 123.765 25.0001C125.035 25.0001 125.929 24.2471 125.929 22.6471V16.2354H129.412Z" fill="#CBD5E1"/>
<path d="M149.412 20.7295V27.8824H145.882V21.0354C145.882 19.8589 145.329 19.1295 144.212 19.1295C143.094 19.1295 142.388 19.9413 142.388 21.3177V27.8824H138.859V21.0354C138.859 19.8589 138.306 19.1295 137.188 19.1295C136.071 19.1295 135.365 19.9413 135.365 21.3177V27.8824H131.835V16.2354H135.365V17.306C135.731 16.833 136.207 16.4584 136.754 16.2161C137.3 15.9737 137.899 15.8711 138.494 15.9177C139.091 15.8866 139.686 16.0113 140.22 16.2794C140.754 16.5475 141.209 16.95 141.541 17.4471C141.929 16.9276 142.442 16.5149 143.033 16.2475C143.622 15.98 144.272 15.8666 144.918 15.9177C147.671 15.9177 149.412 17.8236 149.412 20.7295Z" fill="#CBD5E1"/>
<path d="M152.376 16.1648C153.806 16.1648 154.965 15.0059 154.965 13.5765C154.965 12.1471 153.806 10.9883 152.376 10.9883C150.947 10.9883 149.788 12.1471 149.788 13.5765C149.788 15.0059 150.947 16.1648 152.376 16.1648Z" fill="#CBD5E1"/>
</svg>
