<svg width="130" height="67" viewBox="0 0 130 67" fill="none" xmlns="http://www.w3.org/2000/svg">
<path d="M3.36072 38.3713H7.04351V56.4292H3.36072V38.3713Z" fill="#CBD5E1"/>
<path d="M9.17949 50.2422C9.17706 48.9452 9.55946 47.6765 10.2783 46.5969C10.9971 45.5172 12.0201 44.6751 13.2177 44.1771C14.4153 43.679 15.7337 43.5475 17.0062 43.799C18.2786 44.0506 19.4478 44.6739 20.3658 45.5903C21.2838 46.5065 21.9094 47.6746 22.1633 48.9465C22.4173 50.2184 22.2882 51.5372 21.7924 52.7358C21.2966 53.9342 20.4564 54.9588 19.378 55.6796C18.2998 56.4006 17.0319 56.7853 15.7349 56.7853C14.8722 56.7951 14.0164 56.6328 13.2175 56.3075C12.4185 55.9824 11.6925 55.501 11.0819 54.8915C10.4714 54.2822 9.98865 53.5571 9.66198 52.7586C9.3353 51.9603 9.17127 51.1048 9.17949 50.2422ZM18.5828 50.2422C18.5684 49.6823 18.3891 49.139 18.0675 48.6805C17.7459 48.2219 17.2962 47.8684 16.7747 47.6641C16.2531 47.4597 15.6829 47.4138 15.1355 47.5319C14.5879 47.6499 14.0874 47.9268 13.6964 48.3278C13.3055 48.7289 13.0414 49.2364 12.9374 49.7868C12.8333 50.3371 12.8939 50.906 13.1114 51.4221C13.329 51.9382 13.6939 52.3788 14.1605 52.6886C14.6272 52.9984 15.1747 53.1637 15.7349 53.1638C16.118 53.1746 16.4993 53.1059 16.8546 52.9618C17.2099 52.8178 17.5315 52.6017 17.7992 52.3272C18.0667 52.0526 18.2746 51.7257 18.4094 51.3669C18.5443 51.0079 18.6034 50.6251 18.5828 50.2422Z" fill="#CBD5E1"/>
<path d="M37.0949 44.0551V55.8154C37.0949 59.977 33.8418 61.7325 30.5519 61.7325C29.395 61.8186 28.2367 61.5846 27.2039 61.0562C26.171 60.5279 25.3036 59.7256 24.6963 58.7372L27.8635 56.9081C28.1148 57.4146 28.5125 57.8341 29.0049 58.112C29.4974 58.3899 30.0619 58.5137 30.6256 58.467C30.9964 58.5289 31.3765 58.5047 31.7366 58.3963C32.0967 58.288 32.427 58.0985 32.7022 57.8423C32.9773 57.586 33.19 57.27 33.3238 56.9186C33.4575 56.5672 33.5088 56.1898 33.4735 55.8154V54.6738C33.0406 55.2065 32.4881 55.6297 31.8611 55.909C31.2342 56.1884 30.5501 56.3162 29.8645 56.282C28.1975 56.282 26.5989 55.6198 25.42 54.4411C24.2413 53.2624 23.5791 51.6636 23.5791 49.9966C23.5791 48.3296 24.2413 46.731 25.42 45.5523C26.5989 44.3736 28.1975 43.7114 29.8645 43.7114C30.5497 43.6801 31.2327 43.8091 31.8593 44.0883C32.4859 44.3675 33.0387 44.7891 33.4735 45.3195V44.0919L37.0949 44.0551ZM33.4735 49.9966C33.4981 49.3997 33.3434 48.8089 33.0296 48.3004C32.7156 47.792 32.2569 47.389 31.7122 47.1434C31.1675 46.8977 30.5617 46.8206 29.9728 46.922C29.3839 47.0233 28.8388 47.2985 28.4076 47.712C27.9762 48.1257 27.6785 48.6588 27.5527 49.2429C27.4267 49.827 27.4785 50.4355 27.7011 50.99C27.9238 51.5445 28.3072 52.0197 28.8021 52.3546C29.297 52.6896 29.8807 52.8687 30.4782 52.8692C30.8683 52.8968 31.2598 52.8425 31.6274 52.7095C31.9952 52.5765 32.331 52.3681 32.6132 52.0974C32.8953 51.8268 33.1177 51.4999 33.2659 51.1382C33.4141 50.7764 33.4848 50.3875 33.4735 49.9966Z" fill="#CBD5E1"/>
<path d="M39.2188 50.2422C39.2163 48.9452 39.5988 47.6765 40.3176 46.5969C41.0365 45.5172 42.0594 44.6751 43.257 44.1771C44.4546 43.679 45.773 43.5475 47.0455 43.799C48.3179 44.0506 49.4871 44.6739 50.4052 45.5903C51.3231 46.5065 51.9487 47.6746 52.2027 48.9465C52.4566 50.2184 52.3275 51.5372 51.8317 52.7358C51.3358 53.9342 50.4957 54.9588 49.4174 55.6796C48.3391 56.4006 47.0712 56.7853 45.7742 56.7853C44.9116 56.7951 44.0557 56.6328 43.2567 56.3075C42.4578 55.9824 41.7317 55.501 41.1212 54.8915C40.5107 54.2822 40.0279 53.5571 39.7012 52.7586C39.3745 51.9603 39.2105 51.1048 39.2188 50.2422ZM48.6222 50.2422C48.6077 49.6823 48.4284 49.139 48.1068 48.6805C47.7852 48.2219 47.3355 47.8684 46.8139 47.6641C46.2925 47.4597 45.7223 47.4138 45.1748 47.5319C44.6272 47.6499 44.1267 47.9268 43.7357 48.3278C43.3447 48.7289 43.0807 49.2364 42.9766 49.7868C42.8726 50.3371 42.9332 50.906 43.1507 51.4221C43.3683 51.9382 43.7332 52.3788 44.1998 52.6886C44.6665 52.9984 45.214 53.1637 45.7742 53.1638C46.1553 53.1711 46.5339 53.0999 46.8863 52.9543C47.2386 52.8087 47.5573 52.5921 47.8222 52.3179C48.0871 52.0439 48.2927 51.718 48.4262 51.3609C48.5596 51.0038 48.6179 50.6229 48.5977 50.2422H48.6222Z" fill="#CBD5E1"/>
<path d="M54.0359 40.7408C54.0359 40.2989 54.1669 39.8669 54.4124 39.4996C54.6579 39.1322 55.0069 38.8458 55.4151 38.6767C55.8234 38.5075 56.2725 38.4633 56.706 38.5495C57.1394 38.6357 57.5374 38.8485 57.85 39.1609C58.1625 39.4734 58.3752 39.8715 58.4613 40.3049C58.5477 40.7383 58.5033 41.1876 58.3343 41.5958C58.1652 42.004 57.8788 42.3531 57.5114 42.5985C57.1439 42.8439 56.7121 42.975 56.2701 42.975C55.6786 42.9719 55.1122 42.7354 54.6938 42.317C54.2755 41.8988 54.0391 41.3324 54.0359 40.7408ZM54.4164 44.0553H58.0992V56.4295H54.4164V44.0553Z" fill="#CBD5E1"/>
<path d="M74.156 50.2423C74.2006 51.0602 74.0831 51.879 73.8101 52.6513C73.537 53.4236 73.1139 54.1343 72.5651 54.7425C72.0162 55.3506 71.3526 55.8442 70.6122 56.1948C69.8719 56.5454 69.0695 56.7462 68.2513 56.7854C67.5644 56.8183 66.8785 56.7003 66.2423 56.4394C65.6059 56.1784 65.0346 55.7812 64.5685 55.2755V61.4134H60.8857V44.0552H64.5685V45.2214C65.0346 44.7157 65.6059 44.3184 66.2423 44.0575C66.8785 43.7966 67.5644 43.6786 68.2513 43.7114C69.0685 43.7507 69.8698 43.951 70.6092 44.3009C71.3488 44.6508 72.0119 45.1433 72.5605 45.7501C73.1093 46.3569 73.5325 47.0661 73.8063 47.837C74.0802 48.6079 74.199 49.4253 74.156 50.2423ZM70.4732 50.2423C70.4587 49.6661 70.2754 49.1068 69.9461 48.6338C69.6168 48.1608 69.1561 47.7946 68.6209 47.5809C68.0857 47.367 67.4994 47.3149 66.9349 47.431C66.3703 47.547 65.8521 47.8261 65.4446 48.2336C65.037 48.6412 64.7581 49.1592 64.642 49.7238C64.526 50.2884 64.5781 50.8746 64.7919 51.4098C65.0057 51.945 65.3718 52.4058 65.8448 52.735C66.3179 53.0643 66.8772 53.2476 67.4533 53.2622C67.8554 53.2878 68.2583 53.2269 68.635 53.0839C69.0117 52.9408 69.3533 52.7188 69.6371 52.4328C69.9207 52.1466 70.14 51.8032 70.2801 51.4254C70.4199 51.0476 70.4775 50.6442 70.4487 50.2423H70.4732Z" fill="#CBD5E1"/>
<path d="M85.6219 52.722C85.6219 55.5701 83.1667 56.7853 80.466 56.7853C79.3871 56.8809 78.3043 56.6513 77.357 56.1262C76.4098 55.6011 75.6413 54.8046 75.1505 53.8391L78.3668 52.01C78.4974 52.4566 78.7769 52.845 79.1587 53.1107C79.5406 53.3765 80.0019 53.5036 80.466 53.4708C81.3622 53.4708 81.804 53.1885 81.804 52.6975C81.804 51.3348 75.6661 52.0592 75.6661 47.7871C75.6661 45.0864 77.9494 43.7237 80.5764 43.7237C81.5459 43.6943 82.5055 43.9245 83.356 44.3909C84.2064 44.857 84.9166 45.5423 85.4132 46.3753L82.1847 48.0695C82.0421 47.7452 81.8083 47.4694 81.5119 47.2754C81.2155 47.0815 80.8693 46.9777 80.5151 46.9768C79.8768 46.9768 79.4839 47.2224 79.4839 47.6766C79.5331 49.0883 85.6219 48.143 85.6219 52.722Z" fill="#CBD5E1"/>
<path d="M99.1745 44.0552V56.4294H95.4916V55.2755C95.0633 55.7882 94.5196 56.1922 93.9051 56.4547C93.2907 56.7172 92.6228 56.8304 91.9561 56.7854C89.5009 56.7854 87.3281 55.0053 87.3281 51.6541V44.0552H91.0109V51.1139C90.9785 51.4147 91.0136 51.7189 91.1135 52.0045C91.2133 52.2902 91.3754 52.5499 91.5882 52.765C91.8009 52.9802 92.059 53.1452 92.3434 53.2481C92.6278 53.3512 92.9318 53.3894 93.2329 53.3604C94.5833 53.3604 95.5285 52.5747 95.5285 50.8193V44.0552H99.1745Z" fill="#CBD5E1"/>
<path d="M120.461 48.8428V56.4293H116.778V49.1621C116.778 47.9345 116.177 47.1242 114.998 47.1242C113.82 47.1242 113.058 47.9958 113.058 49.4566V56.4293H109.376V49.1621C109.376 47.9345 108.786 47.1242 107.596 47.1242C106.405 47.1242 105.668 47.9958 105.668 49.4566V56.4293H101.986V44.0553H105.668V45.1969C106.053 44.6927 106.558 44.2927 107.137 44.0333C107.716 43.7738 108.35 43.6632 108.983 43.7116C109.618 43.6806 110.25 43.8149 110.818 44.1009C111.386 44.387 111.87 44.8154 112.224 45.3442C112.635 44.7913 113.179 44.3515 113.806 44.0661C114.433 43.7806 115.122 43.6585 115.808 43.7116C118.607 43.7116 120.461 45.7493 120.461 48.8428Z" fill="#CBD5E1"/>
<path d="M123.604 43.9816C125.122 43.9816 126.354 42.7504 126.354 41.2317C126.354 39.713 125.122 38.4819 123.604 38.4819C122.085 38.4819 120.854 39.713 120.854 41.2317C120.854 42.7504 122.085 43.9816 123.604 43.9816Z" fill="#CBD5E1"/>
<path d="M45.0376 29.005C52.1496 29.005 57.915 23.2395 57.915 16.1274C57.915 9.01545 52.1496 3.25 45.0376 3.25C37.9255 3.25 32.16 9.01545 32.16 16.1274C32.16 23.2395 37.9255 29.005 45.0376 29.005Z" fill="#CBD5E1"/>
<path d="M73.8247 29.005C80.9367 29.005 86.7021 23.2395 86.7021 16.1274C86.7021 9.01545 80.9367 3.25 73.8247 3.25C66.7126 3.25 60.9471 9.01545 60.9471 16.1274C60.9471 23.2395 66.7126 29.005 73.8247 29.005Z" fill="#CBD5E1"/>
<path d="M29.1279 3.25H3.38525V28.9926H29.1279V3.25Z" fill="#CBD5E1"/>
</svg>
