
        <svg xmlns="http://www.w3.org/2000/svg" xmlns:xlink="http://www.w3.org/1999/xlink" version="1.1" width="3240" height="3215.787302147456" viewBox="0 0 3240 3215.787302147456">
			
			<g transform="scale(11.999999999999998) translate(10, 10)">
				<defs id="SvgjsDefs1370"/><g id="SvgjsG1371" featureKey="rootContainer" transform="matrix(2.4530634883643807,0,0,2.4530634883643807,0.10902506484402764,-0.022479023766969808)" fill="#fff"><path xmlns="http://www.w3.org/2000/svg" d="M101.8 83.6l-.2-29.5c0-6 .1-12.2-.2-18-.1-2.5-.1-5.1-.1-7.8 0-4.7-.1-9-.4-13.2l-.2-4.2c-.1-2.7-.2-5.3-.3-8V1h-7.3L77.2.7H66.6a25.7 25.7 0 0 0-5.5.6l-.6.3H49.8c-.1-.2-.8-.3-2.2-.4L34.3.3a130.5 130.5 0 0 0-18.8.1C12.3.6 9 .8 4.6.9L1.5.5H.4v1.2c-.2 2-.3 4.3-.3 7s0 6.8-.1 10.2 0 5.3 0 8a42.2 42.2 0 0 0 .4 6.9 20.3 20.3 0 0 1 .3 2.9c.1 3.8.4 4.8.8 5.5v17.6l-.2.5c.1 4-.1 7.6-.2 11.3-.3 7.4-.4 15-.1 22.5a25.5 25.5 0 0 0 .5 4.9v.8H6l-.2.2h5.4a51 51 0 0 1 8.6.4 21.1 21.1 0 0 0 3.8.3c6.6-.1 12.7.1 18.9.4h6.7l13.9-.3c6.1-.1 11.9-.5 18.3-.5h9.7l3.5-.2 2.8-.5h2.3v-1c.3 1.6.6 1.4 1-.8.1-.6.2-1.3.3-2s.3-2.6.5-3.4a51.3 51.3 0 0 0 .3-8.8z"/></g><g id="SvgjsG1372" featureKey="symbolFeature-0" transform="matrix(0.9057971014492755,0,0,0.9057971014492755,82,19.692129453023274)" fill="#000000"><path xmlns="http://www.w3.org/2000/svg" d="M28.416,76.572c-1.024,0-2.048-0.393-2.832-1.172L1.172,50.844C0.42,50.092,0,49.068,0,48c0-1.068,0.42-2.088,1.176-2.848  l24.412-24.548c1.56-1.568,4.092-1.576,5.656,0.004c1.56,1.58,1.56,4.12-0.004,5.696L9.664,48l21.58,21.704  c1.56,1.571,1.56,4.116,0,5.688C30.464,76.18,29.432,76.572,28.416,76.572L28.416,76.572z"/><path xmlns="http://www.w3.org/2000/svg" d="M67.588,76.572c-1.023,0-2.052-0.393-2.828-1.18c-1.568-1.572-1.568-4.117,0-5.697L86.344,48L64.76,26.304  c-1.568-1.58-1.568-4.12,0-5.696c1.568-1.58,4.088-1.576,5.656-0.008l24.412,24.552C95.58,45.9,96,46.928,96,48  c0,1.068-0.42,2.088-1.172,2.844L70.416,75.393C69.641,76.18,68.611,76.572,67.588,76.572L67.588,76.572z"/><path xmlns="http://www.w3.org/2000/svg" d="M38.348,78c-0.476,0-0.964-0.084-1.436-0.264c-2.06-0.805-3.092-3.133-2.296-5.213l19.868-51.947  c0.795-2.076,3.107-3.096,5.168-2.304c2.06,0.796,3.088,3.124,2.296,5.204L42.072,75.424C41.476,77.016,39.952,78,38.348,78z"/></g><g id="SvgjsG1373" featureKey="nameFeature-0" transform="matrix(4.981320333781754,0,0,4.981320333781754,21.214193030913492,11.369338630268018)" fill="#000000"><path d="M25.12 37 c0.21332 0.13332 0.42004 0.3466 0.62004 0.63992 s0.3 0.69332 0.3 1.2 l0 1.16 l-3.2 0 c-0.66668 0 -1.16 -0.21332 -1.48 -0.64 s-0.48 -1.0134 -0.48 -1.76 l0 -11.52 c0 -1.0133 -0.24668 -1.76 -0.74 -2.24 s-1.1133 -0.72 -1.86 -0.72 c-0.42668 0 -0.82 0.05332 -1.18 0.16 s-0.67332 0.22668 -0.94 0.36 c-0.29332 0.13332 -0.57332 0.29332 -0.84 0.48 l0 12.04 c0 0.24 0.04 0.41332 0.12 0.52 s0.17332 0.21336 0.28 0.32004 c0.21332 0.13332 0.42 0.34664 0.62 0.63996 s0.3 0.69332 0.3 1.2 l0 1.16 l-3.32 0 c-0.42668 0 -0.83336 -0.23332 -1.22 -0.7 s-0.58 -0.98 -0.58 -1.54 l0 -10.52 l0 -1.44 c0 -0.48 -0.09332 -0.89332 -0.28 -1.24 s-0.42 -0.62668 -0.7 -0.84 s-0.6 -0.36664 -0.96 -0.45996 s-0.71332 -0.14 -1.06 -0.14 s-0.67336 0.05332 -0.98004 0.16 s-0.58 0.22668 -0.82 0.36 s-0.43332 0.26 -0.58 0.38 l-0.22 0.18 l0 11.92 c0 0.26668 0.04 0.45336 0.12 0.56004 s0.18668 0.21336 0.32 0.32004 c0.18668 0.13332 0.38 0.34664 0.58 0.63996 s0.3 0.69332 0.3 1.2 l0 1.16 l-6.48 0 l0 -1.2 c0 -0.50668 0.1 -0.90668 0.3 -1.2 s0.40668 -0.50664 0.62 -0.63996 c0.13332 -0.10668 0.24 -0.21336 0.32 -0.32004 s0.12 -0.30668 0.12 -0.6 l0 -11.8 c0 -0.21332 -0.06668 -0.39332 -0.2 -0.54 s-0.27332 -0.29336 -0.42 -0.44004 s-0.28668 -0.3 -0.42 -0.46 s-0.2 -0.37332 -0.2 -0.64 l0 -2.12 l4.12 0 c0.21332 0 0.38 0.04668 0.5 0.14 s0.20668 0.19332 0.26 0.3 c0.08 0.10668 0.13332 0.24 0.16 0.4 c0.29332 -0.18668 0.64 -0.36 1.04 -0.52 c0.34668 -0.13332 0.75336 -0.25332 1.22 -0.36 s0.98 -0.16 1.54 -0.16 c2.0533 0 3.52 0.56 4.4 1.68 c0.37332 -0.29332 0.8 -0.57332 1.28 -0.84 c0.42668 -0.21332 0.94 -0.40664 1.54 -0.57996 s1.3133 -0.26 2.14 -0.26 c2 0 3.44 0.51332 4.32 1.54 s1.32 2.5667 1.32 4.62 l0 10.16 c0 0.24 0.03332 0.41332 0.1 0.52 s0.16668 0.21336 0.3 0.32004 z M39.27 27.119999999999997 c-1.44 0 -2.16 -0.5466 -2.16 -1.6399 c0 -0.66668 -0.20668 -1.2534 -0.62 -1.76 s-0.98 -0.76 -1.7 -0.76 c-0.74668 0 -1.3267 0.24668 -1.74 0.74 s-0.62 1.1666 -0.62 2.02 l0 8.52 c0 1.0667 0.20668 1.7934 0.62 2.18 s0.99332 0.58 1.74 0.58 c0.72 0 1.2867 -0.21332 1.7 -0.64 s0.62 -1.1067 0.62 -2.04 l0 -0.04 c0 -1.2533 0.72 -1.88 2.16 -1.88 l1.64 0 l0 2.32 c0 1.76 -0.54 3.1067 -1.62 4.04 s-2.58 1.4 -4.5 1.4 c-2 0 -3.5267 -0.49332 -4.58 -1.48 s-1.58 -2.4934 -1.58 -4.52 l0 -8.32 c0 -2.0533 0.52668 -3.5733 1.58 -4.56 s2.58 -1.48 4.58 -1.48 c0.96 0 1.82 0.14 2.58 0.42 s1.4 0.66 1.92 1.14 s0.92 1.04 1.2 1.68 s0.42 1.32 0.42 2.04 l0 2.04 l-1.64 0 l0 0 z"/></g>
			</g>
		</svg>
	